<?xml version="1.0" encoding="UTF-8" standalone="no"?><!DOCTYPE svg PUBLIC "-//W3C//DTD SVG 1.1//EN" "http://www.w3.org/Graphics/SVG/1.1/DTD/svg11.dtd"><!-- Generated by graphviz version 2.40.1 (20161225.0304)
 --><!-- Title: simple Pages: 1 --><svg xmlns="http://www.w3.org/2000/svg" xmlns:xlink="http://www.w3.org/1999/xlink" width="560pt" height="188pt" viewBox="0.00 0.00 560.34 188.00">
<g id="graph0" class="graph" transform="scale(1 1) rotate(0) translate(4 184)">
<title>simple</title>
<polygon fill="#ffffff" stroke="transparent" points="-4,4 -4,-184 556.3404,-184 556.3404,4 -4,4"/>
<!-- 140614612152160 -->
<g id="node1" class="node">
<title>140614612152160</title>
<ellipse fill="none" stroke="#000000" cx="269.2469" cy="-162" rx="37.1174" ry="18"/>
<text text-anchor="middle" x="269.2469" y="-157.8" font-family="Times,serif" font-size="14.00" fill="#000000">DIGIT</text>
</g>
<!-- 140614607456128 -->
<g id="node2" class="node">
<title>140614607456128</title>
<ellipse fill="none" stroke="#000000" cx="36.2469" cy="-90" rx="36.4955" ry="18"/>
<text text-anchor="middle" x="36.2469" y="-85.8" font-family="Times,serif" font-size="14.00" fill="#000000">ZERO</text>
</g>
<!-- 140614612152160&#45;&#45;140614607456128 -->
<g id="edge1" class="edge">
<title>140614612152160--140614607456128</title>
<path fill="none" stroke="#000000" d="M235.9913,-153.5346C198.1725,-143.6573 134.7353,-126.3274 81.2469,-108 75.6749,-106.0908 69.7855,-103.8799 64.169,-101.6749"/>
</g>
<!-- 140614607456632 -->
<g id="node3" class="node">
<title>140614607456632</title>
<ellipse fill="none" stroke="#000000" cx="121.2469" cy="-90" rx="30.7577" ry="18"/>
<text text-anchor="middle" x="121.2469" y="-85.8" font-family="Times,serif" font-size="14.00" fill="#000000">ONE</text>
</g>
<!-- 140614612152160&#45;&#45;140614607456632 -->
<g id="edge2" class="edge">
<title>140614612152160--140614607456632</title>
<path fill="none" stroke="#000000" d="M242.7875,-149.1278C215.0172,-135.618 171.7566,-114.5723 145.0334,-101.5718"/>
</g>
<!-- 140614606881680 -->
<g id="node4" class="node">
<title>140614606881680</title>
<ellipse fill="none" stroke="#000000" cx="197.2469" cy="-90" rx="27" ry="18"/>
<text text-anchor="middle" x="197.2469" y="-85.8" font-family="Times,serif" font-size="14.00" fill="#000000">T</text>
</g>
<!-- 140614612152160&#45;&#45;140614606881680 -->
<g id="edge5" class="edge">
<title>140614612152160--140614606881680</title>
<path fill="none" stroke="#000000" d="M252.909,-145.6621C240.7939,-133.5469 224.3931,-117.1462 212.5355,-105.2886"/>
</g>
<!-- 140614606882464 -->
<g id="node7" class="node">
<title>140614606882464</title>
<ellipse fill="none" stroke="#000000" cx="269.2469" cy="-90" rx="27" ry="18"/>
<text text-anchor="middle" x="269.2469" y="-85.8" font-family="Times,serif" font-size="14.00" fill="#000000">F</text>
</g>
<!-- 140614612152160&#45;&#45;140614606882464 -->
<g id="edge8" class="edge">
<title>140614612152160--140614606882464</title>
<path fill="none" stroke="#000000" d="M269.2469,-143.8314C269.2469,-133 269.2469,-119.2876 269.2469,-108.4133"/>
</g>
<!-- 140614606883472 -->
<g id="node10" class="node">
<title>140614606883472</title>
<ellipse fill="none" stroke="#000000" cx="341.2469" cy="-90" rx="27" ry="18"/>
<text text-anchor="middle" x="341.2469" y="-85.8" font-family="Times,serif" font-size="14.00" fill="#000000">S</text>
</g>
<!-- 140614612152160&#45;&#45;140614606883472 -->
<g id="edge11" class="edge">
<title>140614612152160--140614606883472</title>
<path fill="none" stroke="#000000" d="M285.5848,-145.6621C297.7,-133.5469 314.1008,-117.1462 325.9583,-105.2886"/>
</g>
<!-- 140614607456464 -->
<g id="node13" class="node">
<title>140614607456464</title>
<ellipse fill="none" stroke="#000000" cx="426.2469" cy="-90" rx="39.9857" ry="18"/>
<text text-anchor="middle" x="426.2469" y="-85.8" font-family="Times,serif" font-size="14.00" fill="#000000">EIGHT</text>
</g>
<!-- 140614612152160&#45;&#45;140614607456464 -->
<g id="edge12" class="edge">
<title>140614612152160--140614607456464</title>
<path fill="none" stroke="#000000" d="M296.5942,-149.4586C325.0591,-136.4046 369.4178,-116.0618 398.1558,-102.8825"/>
</g>
<!-- 140614607664072 -->
<g id="node14" class="node">
<title>140614607664072</title>
<ellipse fill="none" stroke="#000000" cx="518.2469" cy="-90" rx="34.1871" ry="18"/>
<text text-anchor="middle" x="518.2469" y="-85.8" font-family="Times,serif" font-size="14.00" fill="#000000">NINE</text>
</g>
<!-- 140614612152160&#45;&#45;140614607664072 -->
<g id="edge13" class="edge">
<title>140614612152160--140614607664072</title>
<path fill="none" stroke="#000000" d="M303.5792,-154.5531C344.825,-145.252 415.8878,-128.0938 475.2469,-108 480.7662,-106.1317 486.5823,-103.8904 492.0916,-101.6339"/>
</g>
<!-- 140614606881512 -->
<g id="node5" class="node">
<title>140614606881512</title>
<ellipse fill="none" stroke="#000000" cx="63.2469" cy="-18" rx="27.2467" ry="18"/>
<text text-anchor="middle" x="63.2469" y="-13.8" font-family="Times,serif" font-size="14.00" fill="#000000">WO</text>
</g>
<!-- 140614606881680&#45;&#45;140614606881512 -->
<g id="edge3" class="edge">
<title>140614606881680--140614606881512</title>
<path fill="none" stroke="#000000" d="M176.0142,-78.5914C150.923,-65.1096 109.4281,-42.8138 84.3803,-29.3552"/>
</g>
<!-- 140614607456688 -->
<g id="node6" class="node">
<title>140614607456688</title>
<ellipse fill="none" stroke="#000000" cx="144.2469" cy="-18" rx="36.4955" ry="18"/>
<text text-anchor="middle" x="144.2469" y="-13.8" font-family="Times,serif" font-size="14.00" fill="#000000">HREE</text>
</g>
<!-- 140614606881680&#45;&#45;140614607456688 -->
<g id="edge4" class="edge">
<title>140614606881680--140614607456688</title>
<path fill="none" stroke="#000000" d="M185.2204,-73.6621C176.7299,-62.1278 165.3799,-46.709 156.7789,-35.0245"/>
</g>
<!-- 140614606882800 -->
<g id="node8" class="node">
<title>140614606882800</title>
<ellipse fill="none" stroke="#000000" cx="230.2469" cy="-18" rx="31.339" ry="18"/>
<text text-anchor="middle" x="230.2469" y="-13.8" font-family="Times,serif" font-size="14.00" fill="#000000">OUR</text>
</g>
<!-- 140614606882464&#45;&#45;140614606882800 -->
<g id="edge6" class="edge">
<title>140614606882464--140614606882800</title>
<path fill="none" stroke="#000000" d="M260.0045,-72.937C253.8777,-61.626 245.8622,-46.8282 239.694,-35.4407"/>
</g>
<!-- 140614606883136 -->
<g id="node9" class="node">
<title>140614606883136</title>
<ellipse fill="none" stroke="#000000" cx="307.2469" cy="-18" rx="27.2447" ry="18"/>
<text text-anchor="middle" x="307.2469" y="-13.8" font-family="Times,serif" font-size="14.00" fill="#000000">IVE</text>
</g>
<!-- 140614606882464&#45;&#45;140614606883136 -->
<g id="edge7" class="edge">
<title>140614606882464--140614606883136</title>
<path fill="none" stroke="#000000" d="M278.2524,-72.937C284.2221,-61.626 292.032,-46.8282 298.0421,-35.4407"/>
</g>
<!-- 140614606884032 -->
<g id="node11" class="node">
<title>140614606884032</title>
<ellipse fill="none" stroke="#000000" cx="379.2469" cy="-18" rx="27" ry="18"/>
<text text-anchor="middle" x="379.2469" y="-13.8" font-family="Times,serif" font-size="14.00" fill="#000000">IX</text>
</g>
<!-- 140614606883472&#45;&#45;140614606884032 -->
<g id="edge9" class="edge">
<title>140614606883472--140614606884032</title>
<path fill="none" stroke="#000000" d="M350.2524,-72.937C356.2221,-61.626 364.032,-46.8282 370.0421,-35.4407"/>
</g>
<!-- 140614606882520 -->
<g id="node12" class="node">
<title>140614606882520</title>
<ellipse fill="none" stroke="#000000" cx="461.2469" cy="-18" rx="36.5575" ry="18"/>
<text text-anchor="middle" x="461.2469" y="-13.8" font-family="Times,serif" font-size="14.00" fill="#000000">EVEN</text>
</g>
<!-- 140614606883472&#45;&#45;140614606882520 -->
<g id="edge10" class="edge">
<title>140614606883472--140614606882520</title>
<path fill="none" stroke="#000000" d="M361.3322,-77.9488C382.416,-65.2985 415.534,-45.4277 437.8003,-32.068"/>
</g>
</g>
</svg>