<?xml version="1.0" encoding="UTF-8" standalone="no"?><!DOCTYPE svg PUBLIC "-//W3C//DTD SVG 1.1//EN" "http://www.w3.org/Graphics/SVG/1.1/DTD/svg11.dtd"><!-- Generated by graphviz version 2.40.1 (20161225.0304)
 --><!-- Title: simple Pages: 1 --><svg xmlns="http://www.w3.org/2000/svg" xmlns:xlink="http://www.w3.org/1999/xlink" width="710pt" height="692pt" viewBox="0.00 0.00 710.00 692.00">
<g id="graph0" class="graph" transform="scale(1 1) rotate(0) translate(4 688)">
<title>simple</title>
<polygon fill="#ffffff" stroke="transparent" points="-4,4 -4,-688 706,-688 706,4 -4,4"/>
<!-- 140171753987936 -->
<g id="node1" class="node">
<title>140171753987936</title>
<ellipse fill="none" stroke="#000000" cx="351" cy="-666" rx="27" ry="18"/>
<text text-anchor="middle" x="351" y="-661.8" font-family="Times,serif" font-size="14.00" fill="#000000">D</text>
</g>
<!-- 140171753984464 -->
<g id="node2" class="node">
<title>140171753984464</title>
<ellipse fill="none" stroke="#000000" cx="351" cy="-594" rx="27" ry="18"/>
<text text-anchor="middle" x="351" y="-589.8" font-family="Times,serif" font-size="14.00" fill="#000000">I</text>
</g>
<!-- 140171753987936&#45;&#45;140171753984464 -->
<g id="edge41" class="edge">
<title>140171753987936--140171753984464</title>
<path fill="none" stroke="#000000" d="M351,-647.8314C351,-637 351,-623.2876 351,-612.4133"/>
</g>
<!-- 140171786860080 -->
<g id="node3" class="node">
<title>140171786860080</title>
<ellipse fill="none" stroke="#000000" cx="351" cy="-522" rx="27" ry="18"/>
<text text-anchor="middle" x="351" y="-517.8" font-family="Times,serif" font-size="14.00" fill="#000000">G</text>
</g>
<!-- 140171753984464&#45;&#45;140171786860080 -->
<g id="edge40" class="edge">
<title>140171753984464--140171786860080</title>
<path fill="none" stroke="#000000" d="M351,-575.8314C351,-565 351,-551.2876 351,-540.4133"/>
</g>
<!-- 140171786859856 -->
<g id="node4" class="node">
<title>140171786859856</title>
<ellipse fill="none" stroke="#000000" cx="351" cy="-450" rx="27" ry="18"/>
<text text-anchor="middle" x="351" y="-445.8" font-family="Times,serif" font-size="14.00" fill="#000000">I</text>
</g>
<!-- 140171786860080&#45;&#45;140171786859856 -->
<g id="edge39" class="edge">
<title>140171786860080--140171786859856</title>
<path fill="none" stroke="#000000" d="M351,-503.8314C351,-493 351,-479.2876 351,-468.4133"/>
</g>
<!-- 140171786859688 -->
<g id="node5" class="node">
<title>140171786859688</title>
<ellipse fill="none" stroke="#000000" cx="351" cy="-378" rx="27" ry="18"/>
<text text-anchor="middle" x="351" y="-373.8" font-family="Times,serif" font-size="14.00" fill="#000000">T</text>
</g>
<!-- 140171786859856&#45;&#45;140171786859688 -->
<g id="edge38" class="edge">
<title>140171786859856--140171786859688</title>
<path fill="none" stroke="#000000" d="M351,-431.8314C351,-421 351,-407.2876 351,-396.4133"/>
</g>
<!-- 140171786859576 -->
<g id="node6" class="node">
<title>140171786859576</title>
<ellipse fill="none" stroke="#000000" cx="45" cy="-306" rx="27" ry="18"/>
<text text-anchor="middle" x="45" y="-301.8" font-family="Times,serif" font-size="14.00" fill="#000000">Z</text>
</g>
<!-- 140171786859688&#45;&#45;140171786859576 -->
<g id="edge4" class="edge">
<title>140171786859688--140171786859576</title>
<path fill="none" stroke="#000000" d="M324.6499,-373.3484C278.5366,-364.9875 180.3653,-346.2054 99,-324 89.0852,-321.2942 78.3141,-317.8161 69.0187,-314.6398"/>
</g>
<!-- 140171786859296 -->
<g id="node10" class="node">
<title>140171786859296</title>
<ellipse fill="none" stroke="#000000" cx="135" cy="-306" rx="27" ry="18"/>
<text text-anchor="middle" x="135" y="-301.8" font-family="Times,serif" font-size="14.00" fill="#000000">O</text>
</g>
<!-- 140171786859688&#45;&#45;140171786859296 -->
<g id="edge7" class="edge">
<title>140171786859688--140171786859296</title>
<path fill="none" stroke="#000000" d="M326.6419,-369.8806C285.0471,-356.0157 200.8029,-327.9343 159.2691,-314.0897"/>
</g>
<!-- 140171786859128 -->
<g id="node13" class="node">
<title>140171786859128</title>
<ellipse fill="none" stroke="#000000" cx="243" cy="-306" rx="27" ry="18"/>
<text text-anchor="middle" x="243" y="-301.8" font-family="Times,serif" font-size="14.00" fill="#000000">T</text>
</g>
<!-- 140171786859688&#45;&#45;140171786859128 -->
<g id="edge14" class="edge">
<title>140171786859688--140171786859128</title>
<path fill="none" stroke="#000000" d="M331.6918,-365.1278C312.0337,-352.0225 281.7386,-331.8257 262.1411,-318.7607"/>
</g>
<!-- 140171786858960 -->
<g id="node20" class="node">
<title>140171786858960</title>
<ellipse fill="none" stroke="#000000" cx="351" cy="-306" rx="27" ry="18"/>
<text text-anchor="middle" x="351" y="-301.8" font-family="Times,serif" font-size="14.00" fill="#000000">F</text>
</g>
<!-- 140171786859688&#45;&#45;140171786858960 -->
<g id="edge21" class="edge">
<title>140171786859688--140171786858960</title>
<path fill="none" stroke="#000000" d="M351,-359.8314C351,-349 351,-335.2876 351,-324.4133"/>
</g>
<!-- 140171786854184 -->
<g id="node27" class="node">
<title>140171786854184</title>
<ellipse fill="none" stroke="#000000" cx="459" cy="-306" rx="27" ry="18"/>
<text text-anchor="middle" x="459" y="-301.8" font-family="Times,serif" font-size="14.00" fill="#000000">S</text>
</g>
<!-- 140171786859688&#45;&#45;140171786854184 -->
<g id="edge28" class="edge">
<title>140171786859688--140171786854184</title>
<path fill="none" stroke="#000000" d="M370.3082,-365.1278C389.9663,-352.0225 420.2614,-331.8257 439.8589,-318.7607"/>
</g>
<!-- 140171786859632 -->
<g id="node34" class="node">
<title>140171786859632</title>
<ellipse fill="none" stroke="#000000" cx="567" cy="-306" rx="27" ry="18"/>
<text text-anchor="middle" x="567" y="-301.8" font-family="Times,serif" font-size="14.00" fill="#000000">E</text>
</g>
<!-- 140171786859688&#45;&#45;140171786859632 -->
<g id="edge33" class="edge">
<title>140171786859688--140171786859632</title>
<path fill="none" stroke="#000000" d="M375.3581,-369.8806C416.9529,-356.0157 501.1971,-327.9343 542.7309,-314.0897"/>
</g>
<!-- 140171786853456 -->
<g id="node39" class="node">
<title>140171786853456</title>
<ellipse fill="none" stroke="#000000" cx="657" cy="-306" rx="27" ry="18"/>
<text text-anchor="middle" x="657" y="-301.8" font-family="Times,serif" font-size="14.00" fill="#000000">N</text>
</g>
<!-- 140171786859688&#45;&#45;140171786853456 -->
<g id="edge37" class="edge">
<title>140171786859688--140171786853456</title>
<path fill="none" stroke="#000000" d="M377.3501,-373.3484C423.4634,-364.9875 521.6347,-346.2054 603,-324 612.9148,-321.2942 623.6859,-317.8161 632.9813,-314.6398"/>
</g>
<!-- 140171786859408 -->
<g id="node7" class="node">
<title>140171786859408</title>
<ellipse fill="none" stroke="#000000" cx="27" cy="-234" rx="27" ry="18"/>
<text text-anchor="middle" x="27" y="-229.8" font-family="Times,serif" font-size="14.00" fill="#000000">E</text>
</g>
<!-- 140171786859576&#45;&#45;140171786859408 -->
<g id="edge3" class="edge">
<title>140171786859576--140171786859408</title>
<path fill="none" stroke="#000000" d="M40.5506,-288.2022C37.7813,-277.1252 34.232,-262.928 31.4606,-251.8425"/>
</g>
<!-- 140171786859240 -->
<g id="node8" class="node">
<title>140171786859240</title>
<ellipse fill="none" stroke="#000000" cx="27" cy="-162" rx="27" ry="18"/>
<text text-anchor="middle" x="27" y="-157.8" font-family="Times,serif" font-size="14.00" fill="#000000">R</text>
</g>
<!-- 140171786859408&#45;&#45;140171786859240 -->
<g id="edge2" class="edge">
<title>140171786859408--140171786859240</title>
<path fill="none" stroke="#000000" d="M27,-215.8314C27,-205 27,-191.2876 27,-180.4133"/>
</g>
<!-- 140171786859184 -->
<g id="node9" class="node">
<title>140171786859184</title>
<ellipse fill="none" stroke="#000000" cx="27" cy="-90" rx="27" ry="18"/>
<text text-anchor="middle" x="27" y="-85.8" font-family="Times,serif" font-size="14.00" fill="#000000">O</text>
</g>
<!-- 140171786859240&#45;&#45;140171786859184 -->
<g id="edge1" class="edge">
<title>140171786859240--140171786859184</title>
<path fill="none" stroke="#000000" d="M27,-143.8314C27,-133 27,-119.2876 27,-108.4133"/>
</g>
<!-- 140171786859072 -->
<g id="node11" class="node">
<title>140171786859072</title>
<ellipse fill="none" stroke="#000000" cx="99" cy="-234" rx="27" ry="18"/>
<text text-anchor="middle" x="99" y="-229.8" font-family="Times,serif" font-size="14.00" fill="#000000">N</text>
</g>
<!-- 140171786859296&#45;&#45;140171786859072 -->
<g id="edge6" class="edge">
<title>140171786859296--140171786859072</title>
<path fill="none" stroke="#000000" d="M126.2854,-288.5708C120.6253,-277.2506 113.2784,-262.5568 107.6343,-251.2687"/>
</g>
<!-- 140171786859016 -->
<g id="node12" class="node">
<title>140171786859016</title>
<ellipse fill="none" stroke="#000000" cx="99" cy="-162" rx="27" ry="18"/>
<text text-anchor="middle" x="99" y="-157.8" font-family="Times,serif" font-size="14.00" fill="#000000">E</text>
</g>
<!-- 140171786859072&#45;&#45;140171786859016 -->
<g id="edge5" class="edge">
<title>140171786859072--140171786859016</title>
<path fill="none" stroke="#000000" d="M99,-215.8314C99,-205 99,-191.2876 99,-180.4133"/>
</g>
<!-- 140171786858904 -->
<g id="node14" class="node">
<title>140171786858904</title>
<ellipse fill="none" stroke="#000000" cx="171" cy="-234" rx="27" ry="18"/>
<text text-anchor="middle" x="171" y="-229.8" font-family="Times,serif" font-size="14.00" fill="#000000">W</text>
</g>
<!-- 140171786859128&#45;&#45;140171786858904 -->
<g id="edge9" class="edge">
<title>140171786859128--140171786858904</title>
<path fill="none" stroke="#000000" d="M227.7307,-290.7307C215.512,-278.512 198.4602,-261.4602 186.2473,-249.2473"/>
</g>
<!-- 140171786859520 -->
<g id="node16" class="node">
<title>140171786859520</title>
<ellipse fill="none" stroke="#000000" cx="243" cy="-234" rx="27" ry="18"/>
<text text-anchor="middle" x="243" y="-229.8" font-family="Times,serif" font-size="14.00" fill="#000000">H</text>
</g>
<!-- 140171786859128&#45;&#45;140171786859520 -->
<g id="edge13" class="edge">
<title>140171786859128--140171786859520</title>
<path fill="none" stroke="#000000" d="M243,-287.8314C243,-277 243,-263.2876 243,-252.4133"/>
</g>
<!-- 140171786858848 -->
<g id="node15" class="node">
<title>140171786858848</title>
<ellipse fill="none" stroke="#000000" cx="171" cy="-162" rx="27" ry="18"/>
<text text-anchor="middle" x="171" y="-157.8" font-family="Times,serif" font-size="14.00" fill="#000000">O</text>
</g>
<!-- 140171786858904&#45;&#45;140171786858848 -->
<g id="edge8" class="edge">
<title>140171786858904--140171786858848</title>
<path fill="none" stroke="#000000" d="M171,-215.8314C171,-205 171,-191.2876 171,-180.4133"/>
</g>
<!-- 140171786858792 -->
<g id="node17" class="node">
<title>140171786858792</title>
<ellipse fill="none" stroke="#000000" cx="243" cy="-162" rx="27" ry="18"/>
<text text-anchor="middle" x="243" y="-157.8" font-family="Times,serif" font-size="14.00" fill="#000000">R</text>
</g>
<!-- 140171786859520&#45;&#45;140171786858792 -->
<g id="edge12" class="edge">
<title>140171786859520--140171786858792</title>
<path fill="none" stroke="#000000" d="M243,-215.8314C243,-205 243,-191.2876 243,-180.4133"/>
</g>
<!-- 140171786858680 -->
<g id="node18" class="node">
<title>140171786858680</title>
<ellipse fill="none" stroke="#000000" cx="243" cy="-90" rx="27" ry="18"/>
<text text-anchor="middle" x="243" y="-85.8" font-family="Times,serif" font-size="14.00" fill="#000000">E</text>
</g>
<!-- 140171786858792&#45;&#45;140171786858680 -->
<g id="edge11" class="edge">
<title>140171786858792--140171786858680</title>
<path fill="none" stroke="#000000" d="M243,-143.8314C243,-133 243,-119.2876 243,-108.4133"/>
</g>
<!-- 140171786858624 -->
<g id="node19" class="node">
<title>140171786858624</title>
<ellipse fill="none" stroke="#000000" cx="243" cy="-18" rx="27" ry="18"/>
<text text-anchor="middle" x="243" y="-13.8" font-family="Times,serif" font-size="14.00" fill="#000000">E</text>
</g>
<!-- 140171786858680&#45;&#45;140171786858624 -->
<g id="edge10" class="edge">
<title>140171786858680--140171786858624</title>
<path fill="none" stroke="#000000" d="M243,-71.8314C243,-61 243,-47.2876 243,-36.4133"/>
</g>
<!-- 140171786858568 -->
<g id="node21" class="node">
<title>140171786858568</title>
<ellipse fill="none" stroke="#000000" cx="315" cy="-234" rx="27" ry="18"/>
<text text-anchor="middle" x="315" y="-229.8" font-family="Times,serif" font-size="14.00" fill="#000000">O</text>
</g>
<!-- 140171786858960&#45;&#45;140171786858568 -->
<g id="edge17" class="edge">
<title>140171786858960--140171786858568</title>
<path fill="none" stroke="#000000" d="M342.2854,-288.5708C336.6253,-277.2506 329.2784,-262.5568 323.6343,-251.2687"/>
</g>
<!-- 140171786854352 -->
<g id="node24" class="node">
<title>140171786854352</title>
<ellipse fill="none" stroke="#000000" cx="387" cy="-234" rx="27" ry="18"/>
<text text-anchor="middle" x="387" y="-229.8" font-family="Times,serif" font-size="14.00" fill="#000000">I</text>
</g>
<!-- 140171786858960&#45;&#45;140171786854352 -->
<g id="edge20" class="edge">
<title>140171786858960--140171786854352</title>
<path fill="none" stroke="#000000" d="M359.7146,-288.5708C365.3747,-277.2506 372.7216,-262.5568 378.3657,-251.2687"/>
</g>
<!-- 140171786854296 -->
<g id="node22" class="node">
<title>140171786854296</title>
<ellipse fill="none" stroke="#000000" cx="315" cy="-162" rx="27" ry="18"/>
<text text-anchor="middle" x="315" y="-157.8" font-family="Times,serif" font-size="14.00" fill="#000000">U</text>
</g>
<!-- 140171786858568&#45;&#45;140171786854296 -->
<g id="edge16" class="edge">
<title>140171786858568--140171786854296</title>
<path fill="none" stroke="#000000" d="M315,-215.8314C315,-205 315,-191.2876 315,-180.4133"/>
</g>
<!-- 140171786854240 -->
<g id="node23" class="node">
<title>140171786854240</title>
<ellipse fill="none" stroke="#000000" cx="315" cy="-90" rx="27" ry="18"/>
<text text-anchor="middle" x="315" y="-85.8" font-family="Times,serif" font-size="14.00" fill="#000000">R</text>
</g>
<!-- 140171786854296&#45;&#45;140171786854240 -->
<g id="edge15" class="edge">
<title>140171786854296--140171786854240</title>
<path fill="none" stroke="#000000" d="M315,-143.8314C315,-133 315,-119.2876 315,-108.4133"/>
</g>
<!-- 140171786854128 -->
<g id="node25" class="node">
<title>140171786854128</title>
<ellipse fill="none" stroke="#000000" cx="387" cy="-162" rx="27" ry="18"/>
<text text-anchor="middle" x="387" y="-157.8" font-family="Times,serif" font-size="14.00" fill="#000000">V</text>
</g>
<!-- 140171786854352&#45;&#45;140171786854128 -->
<g id="edge19" class="edge">
<title>140171786854352--140171786854128</title>
<path fill="none" stroke="#000000" d="M387,-215.8314C387,-205 387,-191.2876 387,-180.4133"/>
</g>
<!-- 140171786854072 -->
<g id="node26" class="node">
<title>140171786854072</title>
<ellipse fill="none" stroke="#000000" cx="387" cy="-90" rx="27" ry="18"/>
<text text-anchor="middle" x="387" y="-85.8" font-family="Times,serif" font-size="14.00" fill="#000000">E</text>
</g>
<!-- 140171786854128&#45;&#45;140171786854072 -->
<g id="edge18" class="edge">
<title>140171786854128--140171786854072</title>
<path fill="none" stroke="#000000" d="M387,-143.8314C387,-133 387,-119.2876 387,-108.4133"/>
</g>
<!-- 140171786853904 -->
<g id="node28" class="node">
<title>140171786853904</title>
<ellipse fill="none" stroke="#000000" cx="459" cy="-234" rx="27" ry="18"/>
<text text-anchor="middle" x="459" y="-229.8" font-family="Times,serif" font-size="14.00" fill="#000000">I</text>
</g>
<!-- 140171786854184&#45;&#45;140171786853904 -->
<g id="edge23" class="edge">
<title>140171786854184--140171786853904</title>
<path fill="none" stroke="#000000" d="M459,-287.8314C459,-277 459,-263.2876 459,-252.4133"/>
</g>
<!-- 140171786858736 -->
<g id="node30" class="node">
<title>140171786858736</title>
<ellipse fill="none" stroke="#000000" cx="531" cy="-234" rx="27" ry="18"/>
<text text-anchor="middle" x="531" y="-229.8" font-family="Times,serif" font-size="14.00" fill="#000000">E</text>
</g>
<!-- 140171786854184&#45;&#45;140171786858736 -->
<g id="edge27" class="edge">
<title>140171786854184--140171786858736</title>
<path fill="none" stroke="#000000" d="M474.2693,-290.7307C486.488,-278.512 503.5398,-261.4602 515.7527,-249.2473"/>
</g>
<!-- 140171786853792 -->
<g id="node29" class="node">
<title>140171786853792</title>
<ellipse fill="none" stroke="#000000" cx="459" cy="-162" rx="27" ry="18"/>
<text text-anchor="middle" x="459" y="-157.8" font-family="Times,serif" font-size="14.00" fill="#000000">X</text>
</g>
<!-- 140171786853904&#45;&#45;140171786853792 -->
<g id="edge22" class="edge">
<title>140171786853904--140171786853792</title>
<path fill="none" stroke="#000000" d="M459,-215.8314C459,-205 459,-191.2876 459,-180.4133"/>
</g>
<!-- 140171786853680 -->
<g id="node31" class="node">
<title>140171786853680</title>
<ellipse fill="none" stroke="#000000" cx="531" cy="-162" rx="27" ry="18"/>
<text text-anchor="middle" x="531" y="-157.8" font-family="Times,serif" font-size="14.00" fill="#000000">V</text>
</g>
<!-- 140171786858736&#45;&#45;140171786853680 -->
<g id="edge26" class="edge">
<title>140171786858736--140171786853680</title>
<path fill="none" stroke="#000000" d="M531,-215.8314C531,-205 531,-191.2876 531,-180.4133"/>
</g>
<!-- 140171786853568 -->
<g id="node32" class="node">
<title>140171786853568</title>
<ellipse fill="none" stroke="#000000" cx="531" cy="-90" rx="27" ry="18"/>
<text text-anchor="middle" x="531" y="-85.8" font-family="Times,serif" font-size="14.00" fill="#000000">E</text>
</g>
<!-- 140171786853680&#45;&#45;140171786853568 -->
<g id="edge25" class="edge">
<title>140171786853680--140171786853568</title>
<path fill="none" stroke="#000000" d="M531,-143.8314C531,-133 531,-119.2876 531,-108.4133"/>
</g>
<!-- 140171786853512 -->
<g id="node33" class="node">
<title>140171786853512</title>
<ellipse fill="none" stroke="#000000" cx="531" cy="-18" rx="27" ry="18"/>
<text text-anchor="middle" x="531" y="-13.8" font-family="Times,serif" font-size="14.00" fill="#000000">N</text>
</g>
<!-- 140171786853568&#45;&#45;140171786853512 -->
<g id="edge24" class="edge">
<title>140171786853568--140171786853512</title>
<path fill="none" stroke="#000000" d="M531,-71.8314C531,-61 531,-47.2876 531,-36.4133"/>
</g>
<!-- 140171786853624 -->
<g id="node35" class="node">
<title>140171786853624</title>
<ellipse fill="none" stroke="#000000" cx="603" cy="-234" rx="27" ry="18"/>
<text text-anchor="middle" x="603" y="-229.8" font-family="Times,serif" font-size="14.00" fill="#000000">I</text>
</g>
<!-- 140171786859632&#45;&#45;140171786853624 -->
<g id="edge32" class="edge">
<title>140171786859632--140171786853624</title>
<path fill="none" stroke="#000000" d="M575.7146,-288.5708C581.3747,-277.2506 588.7216,-262.5568 594.3657,-251.2687"/>
</g>
<!-- 140171786853400 -->
<g id="node36" class="node">
<title>140171786853400</title>
<ellipse fill="none" stroke="#000000" cx="603" cy="-162" rx="27" ry="18"/>
<text text-anchor="middle" x="603" y="-157.8" font-family="Times,serif" font-size="14.00" fill="#000000">G</text>
</g>
<!-- 140171786853624&#45;&#45;140171786853400 -->
<g id="edge31" class="edge">
<title>140171786853624--140171786853400</title>
<path fill="none" stroke="#000000" d="M603,-215.8314C603,-205 603,-191.2876 603,-180.4133"/>
</g>
<!-- 140171786853288 -->
<g id="node37" class="node">
<title>140171786853288</title>
<ellipse fill="none" stroke="#000000" cx="603" cy="-90" rx="27" ry="18"/>
<text text-anchor="middle" x="603" y="-85.8" font-family="Times,serif" font-size="14.00" fill="#000000">H</text>
</g>
<!-- 140171786853400&#45;&#45;140171786853288 -->
<g id="edge30" class="edge">
<title>140171786853400--140171786853288</title>
<path fill="none" stroke="#000000" d="M603,-143.8314C603,-133 603,-119.2876 603,-108.4133"/>
</g>
<!-- 140171786853232 -->
<g id="node38" class="node">
<title>140171786853232</title>
<ellipse fill="none" stroke="#000000" cx="603" cy="-18" rx="27" ry="18"/>
<text text-anchor="middle" x="603" y="-13.8" font-family="Times,serif" font-size="14.00" fill="#000000">T</text>
</g>
<!-- 140171786853288&#45;&#45;140171786853232 -->
<g id="edge29" class="edge">
<title>140171786853288--140171786853232</title>
<path fill="none" stroke="#000000" d="M603,-71.8314C603,-61 603,-47.2876 603,-36.4133"/>
</g>
<!-- 140171786853176 -->
<g id="node40" class="node">
<title>140171786853176</title>
<ellipse fill="none" stroke="#000000" cx="675" cy="-234" rx="27" ry="18"/>
<text text-anchor="middle" x="675" y="-229.8" font-family="Times,serif" font-size="14.00" fill="#000000">I</text>
</g>
<!-- 140171786853456&#45;&#45;140171786853176 -->
<g id="edge36" class="edge">
<title>140171786853456--140171786853176</title>
<path fill="none" stroke="#000000" d="M661.4494,-288.2022C664.2187,-277.1252 667.768,-262.928 670.5394,-251.8425"/>
</g>
<!-- 140171786853064 -->
<g id="node41" class="node">
<title>140171786853064</title>
<ellipse fill="none" stroke="#000000" cx="675" cy="-162" rx="27" ry="18"/>
<text text-anchor="middle" x="675" y="-157.8" font-family="Times,serif" font-size="14.00" fill="#000000">N</text>
</g>
<!-- 140171786853176&#45;&#45;140171786853064 -->
<g id="edge35" class="edge">
<title>140171786853176--140171786853064</title>
<path fill="none" stroke="#000000" d="M675,-215.8314C675,-205 675,-191.2876 675,-180.4133"/>
</g>
<!-- 140171786853008 -->
<g id="node42" class="node">
<title>140171786853008</title>
<ellipse fill="none" stroke="#000000" cx="675" cy="-90" rx="27" ry="18"/>
<text text-anchor="middle" x="675" y="-85.8" font-family="Times,serif" font-size="14.00" fill="#000000">E</text>
</g>
<!-- 140171786853064&#45;&#45;140171786853008 -->
<g id="edge34" class="edge">
<title>140171786853064--140171786853008</title>
<path fill="none" stroke="#000000" d="M675,-143.8314C675,-133 675,-119.2876 675,-108.4133"/>
</g>
</g>
</svg>