<svg version="1.1" viewBox="0.0 0.0 1036.0 640.0" fill="none" stroke="none" stroke-linecap="square" stroke-miterlimit="10" width="1036" height="640" xmlns:xlink="http://www.w3.org/1999/xlink" xmlns="http://www.w3.org/2000/svg"><path fill="#ffffff" d="M0 0L1036.0 0L1036.0 640.0L0 640.0L0 0Z" fill-rule="nonzero"/><path stroke="#333333" stroke-width="1.0" stroke-linecap="butt" d="M149.5 549.5L1004.5 549.5" fill-rule="nonzero"/><path stroke="#cccccc" stroke-width="1.0" stroke-linecap="butt" d="M149.5 382.5L1004.5 382.5" fill-rule="nonzero"/><path stroke="#cccccc" stroke-width="1.0" stroke-linecap="butt" d="M149.5 216.5L1004.5 216.5" fill-rule="nonzero"/><path stroke="#cccccc" stroke-width="1.0" stroke-linecap="butt" d="M149.5 49.5L1004.5 49.5" fill-rule="nonzero"/><clipPath id="id_0"><path d="M149.0 49.5L1004.0 49.5L1004.0 549.0L149.0 549.0L149.0 49.5Z" clip-rule="nonzero"/></clipPath><path stroke="#000000" stroke-width="0.0" stroke-linecap="butt" stroke-opacity="0.0" clip-path="url(#id_0)" d="M309.0 549.0L205.0 549.0L205.0 549.0C205.0 549.0 205.0 549.0 205.0 549.0L309.0 549.0C309.0 549.0 309.0 549.0 309.0 549.0Z" fill-rule="nonzero"/><path fill="#3c78d8" clip-path="url(#id_0)" d="M309.0 549.0L205.0 549.0L205.0 549.0C205.0 549.0 205.0 549.0 205.0 549.0L309.0 549.0C309.0 549.0 309.0 549.0 309.0 549.0Z" fill-rule="nonzero"/><path stroke="#000000" stroke-width="0.0" stroke-linecap="butt" stroke-opacity="0.0" clip-path="url(#id_0)" d="M469.0 549.0L365.0 549.0L365.0 548.5C365.0 548.2239 365.22385 548.0 365.5 548.0L468.5 548.0C468.77615 548.0 469.0 548.2239 469.0 548.5Z" fill-rule="nonzero"/><path fill="#3c78d8" clip-path="url(#id_0)" d="M469.0 549.0L365.0 549.0L365.0 548.5C365.0 548.2239 365.22385 548.0 365.5 548.0L468.5 548.0C468.77615 548.0 469.0 548.2239 469.0 548.5Z" fill-rule="nonzero"/><path stroke="#000000" stroke-width="0.0" stroke-linecap="butt" stroke-opacity="0.0" clip-path="url(#id_0)" d="M629.0 549.0L525.0 549.0L525.0 526.0C525.0 524.89545 525.89545 524.0 527.0 524.0L627.0 524.0C628.10455 524.0 629.0 524.89545 629.0 526.0Z" fill-rule="nonzero"/><path fill="#3c78d8" clip-path="url(#id_0)" d="M629.0 549.0L525.0 549.0L525.0 526.0C525.0 524.89545 525.89545 524.0 527.0 524.0L627.0 524.0C628.10455 524.0 629.0 524.89545 629.0 526.0Z" fill-rule="nonzero"/><path stroke="#000000" stroke-width="0.0" stroke-linecap="butt" stroke-opacity="0.0" clip-path="url(#id_0)" d="M788.0 549.0L684.0 549.0L684.0 484.0C684.0 482.89542 684.89545 482.0 686.0 482.0L786.0 482.0C787.10455 482.0 788.0 482.89542 788.0 484.0Z" fill-rule="nonzero"/><path fill="#3c78d8" clip-path="url(#id_0)" d="M788.0 549.0L684.0 549.0L684.0 484.0C684.0 482.89542 684.89545 482.0 686.0 482.0L786.0 482.0C787.10455 482.0 788.0 482.89542 788.0 484.0Z" fill-rule="nonzero"/><path stroke="#000000" stroke-width="0.0" stroke-linecap="butt" stroke-opacity="0.0" clip-path="url(#id_0)" d="M948.0 549.0L844.0 549.0L844.0 72.0C844.0 70.89543 844.89545 70.0 846.0 70.0L946.0 70.0C947.10455 70.0 948.0 70.89543 948.0 72.0Z" fill-rule="nonzero"/><path fill="#3c78d8" clip-path="url(#id_0)" d="M948.0 549.0L844.0 549.0L844.0 72.0C844.0 70.89543 844.89545 70.0 846.0 70.0L946.0 70.0C947.10455 70.0 948.0 70.89543 948.0 72.0Z" fill-rule="nonzero"/><path fill="#000000" d="M118.25 548.90625Q118.25 545.09375 119.03125 542.78125Q119.8125 540.4531 121.359375 539.2031Q122.90625 537.9375 125.25 537.9375Q126.96875 537.9375 128.26562 538.6406Q129.57812 539.3281 130.42188 540.6406Q131.28125 541.9531 131.76562 543.84375Q132.25 545.71875 132.25 548.90625Q132.25 552.6875 131.46875 555.0156Q130.70312 557.3281 129.15625 558.59375Q127.609375 559.8594 125.25 559.8594Q122.140625 559.8594 120.375 557.6406Q118.25 554.9531 118.25 548.90625ZM120.953125 548.90625Q120.953125 554.2031 122.1875 555.9531Q123.4375 557.7031 125.25 557.7031Q127.0625 557.7031 128.29688 555.9531Q129.54688 554.1875 129.54688 548.90625Q129.54688 543.6094 128.29688 541.875Q127.0625 540.125 125.21875 540.125Q123.40625 540.125 122.3125 541.65625Q120.953125 543.625 120.953125 548.90625Z" fill-rule="nonzero"/><path fill="#000000" d="M50.25 387.375L53.015625 387.14062Q53.328125 389.15625 54.4375 390.1875Q55.5625 391.20312 57.140625 391.20312Q59.046875 391.20312 60.359375 389.76562Q61.6875 388.32812 61.6875 385.95312Q61.6875 383.70312 60.421875 382.40625Q59.15625 381.09375 57.09375 381.09375Q55.828125 381.09375 54.796875 381.67188Q53.78125 382.25 53.1875 383.17188L50.71875 382.84375L52.796875 371.8125L63.46875 371.8125L63.46875 374.34375L54.90625 374.34375L53.75 380.10938Q55.6875 378.76562 57.796875 378.76562Q60.609375 378.76562 62.546875 380.71875Q64.484375 382.65625 64.484375 385.71875Q64.484375 388.64062 62.78125 390.76562Q60.71875 393.35938 57.140625 393.35938Q54.21875 393.35938 52.359375 391.71875Q50.515625 390.07812 50.25 387.375ZM67.25 382.40625Q67.25 378.59375 68.03125 376.28125Q68.8125 373.95312 70.359375 372.70312Q71.90625 371.4375 74.25 371.4375Q75.96875 371.4375 77.265625 372.14062Q78.578125 372.82812 79.421875 374.14062Q80.28125 375.45312 80.765625 377.34375Q81.25 379.21875 81.25 382.40625Q81.25 386.1875 80.46875 388.51562Q79.703125 390.82812 78.15625 392.09375Q76.609375 393.35938 74.25 393.35938Q71.140625 393.35938 69.375 391.14062Q67.25 388.45312 67.25 382.40625ZM69.953125 382.40625Q69.953125 387.70312 71.1875 389.45312Q72.4375 391.20312 74.25 391.20312Q76.0625 391.20312 77.296875 389.45312Q78.546875 387.6875 78.546875 382.40625Q78.546875 377.10938 77.296875 375.375Q76.0625 373.625 74.21875 373.625Q72.40625 373.625 71.3125 375.15625Q69.953125 377.125 69.953125 382.40625ZM84.25 382.40625Q84.25 378.59375 85.03125 376.28125Q85.8125 373.95312 87.359375 372.70312Q88.90625 371.4375 91.25 371.4375Q92.96875 371.4375 94.265625 372.14062Q95.578125 372.82812 96.421875 374.14062Q97.28125 375.45312 97.765625 377.34375Q98.25 379.21875 98.25 382.40625Q98.25 386.1875 97.46875 388.51562Q96.703125 390.82812 95.15625 392.09375Q93.609375 393.35938 91.25 393.35938Q88.140625 393.35938 86.375 391.14062Q84.25 388.45312 84.25 382.40625ZM86.953125 382.40625Q86.953125 387.70312 88.1875 389.45312Q89.4375 391.20312 91.25 391.20312Q93.0625 391.20312 94.296875 389.45312Q95.546875 387.6875 95.546875 382.40625Q95.546875 377.10938 94.296875 375.375Q93.0625 373.625 91.21875 373.625Q89.40625 373.625 88.3125 375.15625Q86.953125 377.125 86.953125 382.40625ZM101.25 382.40625Q101.25 378.59375 102.03125 376.28125Q102.8125 373.95312 104.359375 372.70312Q105.90625 371.4375 108.25 371.4375Q109.96875 371.4375 111.265625 372.14062Q112.578125 372.82812 113.421875 374.14062Q114.28125 375.45312 114.765625 377.34375Q115.25 379.21875 115.25 382.40625Q115.25 386.1875 114.46875 388.51562Q113.703125 390.82812 112.15625 392.09375Q110.609375 393.35938 108.25 393.35938Q105.140625 393.35938 103.375 391.14062Q101.25 388.45312 101.25 382.40625ZM103.953125 382.40625Q103.953125 387.70312 105.1875 389.45312Q106.4375 391.20312 108.25 391.20312Q110.0625 391.20312 111.296875 389.45312Q112.546875 387.6875 112.546875 382.40625Q112.546875 377.10938 111.296875 375.375Q110.0625 373.625 108.21875 373.625Q106.40625 373.625 105.3125 375.15625Q103.953125 377.125 103.953125 382.40625ZM118.25 382.40625Q118.25 378.59375 119.03125 376.28125Q119.8125 373.95312 121.359375 372.70312Q122.90625 371.4375 125.25 371.4375Q126.96875 371.4375 128.26562 372.14062Q129.57812 372.82812 130.42188 374.14062Q131.28125 375.45312 131.76562 377.34375Q132.25 379.21875 132.25 382.40625Q132.25 386.1875 131.46875 388.51562Q130.70312 390.82812 129.15625 392.09375Q127.609375 393.35938 125.25 393.35938Q122.140625 393.35938 120.375 391.14062Q118.25 388.45312 118.25 382.40625ZM120.953125 382.40625Q120.953125 387.70312 122.1875 389.45312Q123.4375 391.20312 125.25 391.20312Q127.0625 391.20312 128.29688 389.45312Q129.54688 387.6875 129.54688 382.40625Q129.54688 377.10938 128.29688 375.375Q127.0625 373.625 125.21875 373.625Q123.40625 373.625 122.3125 375.15625Q120.953125 377.125 120.953125 382.40625Z" fill-rule="nonzero"/><path fill="#000000" d="M43.171875 226.5L40.546875 226.5L40.546875 209.70312Q39.59375 210.60938 38.046875 211.51562Q36.5 212.42188 35.265625 212.875L35.265625 210.32812Q37.484375 209.28125 39.140625 207.8125Q40.796875 206.32812 41.484375 204.9375L43.171875 204.9375L43.171875 226.5ZM50.25 215.90625Q50.25 212.09375 51.03125 209.78125Q51.8125 207.45312 53.359375 206.20312Q54.90625 204.9375 57.25 204.9375Q58.96875 204.9375 60.265625 205.64062Q61.578125 206.32812 62.421875 207.64062Q63.28125 208.95312 63.765625 210.84375Q64.25 212.71875 64.25 215.90625Q64.25 219.6875 63.46875 222.01562Q62.703125 224.32812 61.15625 225.59375Q59.609375 226.85938 57.25 226.85938Q54.140625 226.85938 52.375 224.64062Q50.25 221.95312 50.25 215.90625ZM52.953125 215.90625Q52.953125 221.20312 54.1875 222.95312Q55.4375 224.70312 57.25 224.70312Q59.0625 224.70312 60.296875 222.95312Q61.546875 221.1875 61.546875 215.90625Q61.546875 210.60938 60.296875 208.875Q59.0625 207.125 57.21875 207.125Q55.40625 207.125 54.3125 208.65625Q52.953125 210.625 52.953125 215.90625ZM67.25 215.90625Q67.25 212.09375 68.03125 209.78125Q68.8125 207.45312 70.359375 206.20312Q71.90625 204.9375 74.25 204.9375Q75.96875 204.9375 77.265625 205.64062Q78.578125 206.32812 79.421875 207.64062Q80.28125 208.95312 80.765625 210.84375Q81.25 212.71875 81.25 215.90625Q81.25 219.6875 80.46875 222.01562Q79.703125 224.32812 78.15625 225.59375Q76.609375 226.85938 74.25 226.85938Q71.140625 226.85938 69.375 224.64062Q67.25 221.95312 67.25 215.90625ZM69.953125 215.90625Q69.953125 221.20312 71.1875 222.95312Q72.4375 224.70312 74.25 224.70312Q76.0625 224.70312 77.296875 222.95312Q78.546875 221.1875 78.546875 215.90625Q78.546875 210.60938 77.296875 208.875Q76.0625 207.125 74.21875 207.125Q72.40625 207.125 71.3125 208.65625Q69.953125 210.625 69.953125 215.90625ZM84.25 215.90625Q84.25 212.09375 85.03125 209.78125Q85.8125 207.45312 87.359375 206.20312Q88.90625 204.9375 91.25 204.9375Q92.96875 204.9375 94.265625 205.64062Q95.578125 206.32812 96.421875 207.64062Q97.28125 208.95312 97.765625 210.84375Q98.25 212.71875 98.25 215.90625Q98.25 219.6875 97.46875 222.01562Q96.703125 224.32812 95.15625 225.59375Q93.609375 226.85938 91.25 226.85938Q88.140625 226.85938 86.375 224.64062Q84.25 221.95312 84.25 215.90625ZM86.953125 215.90625Q86.953125 221.20312 88.1875 222.95312Q89.4375 224.70312 91.25 224.70312Q93.0625 224.70312 94.296875 222.95312Q95.546875 221.1875 95.546875 215.90625Q95.546875 210.60938 94.296875 208.875Q93.0625 207.125 91.21875 207.125Q89.40625 207.125 88.3125 208.65625Q86.953125 210.625 86.953125 215.90625ZM101.25 215.90625Q101.25 212.09375 102.03125 209.78125Q102.8125 207.45312 104.359375 206.20312Q105.90625 204.9375 108.25 204.9375Q109.96875 204.9375 111.265625 205.64062Q112.578125 206.32812 113.421875 207.64062Q114.28125 208.95312 114.765625 210.84375Q115.25 212.71875 115.25 215.90625Q115.25 219.6875 114.46875 222.01562Q113.703125 224.32812 112.15625 225.59375Q110.609375 226.85938 108.25 226.85938Q105.140625 226.85938 103.375 224.64062Q101.25 221.95312 101.25 215.90625ZM103.953125 215.90625Q103.953125 221.20312 105.1875 222.95312Q106.4375 224.70312 108.25 224.70312Q110.0625 224.70312 111.296875 222.95312Q112.546875 221.1875 112.546875 215.90625Q112.546875 210.60938 111.296875 208.875Q110.0625 207.125 108.21875 207.125Q106.40625 207.125 105.3125 208.65625Q103.953125 210.625 103.953125 215.90625ZM118.25 215.90625Q118.25 212.09375 119.03125 209.78125Q119.8125 207.45312 121.359375 206.20312Q122.90625 204.9375 125.25 204.9375Q126.96875 204.9375 128.26562 205.64062Q129.57812 206.32812 130.42188 207.64062Q131.28125 208.95312 131.76562 210.84375Q132.25 212.71875 132.25 215.90625Q132.25 219.6875 131.46875 222.01562Q130.70312 224.32812 129.15625 225.59375Q127.609375 226.85938 125.25 226.85938Q122.140625 226.85938 120.375 224.64062Q118.25 221.95312 118.25 215.90625ZM120.953125 215.90625Q120.953125 221.20312 122.1875 222.95312Q123.4375 224.70312 125.25 224.70312Q127.0625 224.70312 128.29688 222.95312Q129.54688 221.1875 129.54688 215.90625Q129.54688 210.60938 128.29688 208.875Q127.0625 207.125 125.21875 207.125Q123.40625 207.125 122.3125 208.65625Q120.953125 210.625 120.953125 215.90625Z" fill-rule="nonzero"/><path fill="#000000" d="M43.171875 60.0L40.546875 60.0L40.546875 43.203125Q39.59375 44.109375 38.046875 45.015625Q36.5 45.921875 35.265625 46.375L35.265625 43.828125Q37.484375 42.78125 39.140625 41.3125Q40.796875 39.828125 41.484375 38.4375L43.171875 38.4375L43.171875 60.0ZM50.25 54.375L53.015625 54.140625Q53.328125 56.15625 54.4375 57.1875Q55.5625 58.203125 57.140625 58.203125Q59.046875 58.203125 60.359375 56.765625Q61.6875 55.328125 61.6875 52.953125Q61.6875 50.703125 60.421875 49.40625Q59.15625 48.09375 57.09375 48.09375Q55.828125 48.09375 54.796875 48.671875Q53.78125 49.25 53.1875 50.171875L50.71875 49.84375L52.796875 38.8125L63.46875 38.8125L63.46875 41.34375L54.90625 41.34375L53.75 47.109375Q55.6875 45.765625 57.796875 45.765625Q60.609375 45.765625 62.546875 47.71875Q64.484375 49.65625 64.484375 52.71875Q64.484375 55.640625 62.78125 57.765625Q60.71875 60.359375 57.140625 60.359375Q54.21875 60.359375 52.359375 58.71875Q50.515625 57.078125 50.25 54.375ZM67.25 49.40625Q67.25 45.59375 68.03125 43.28125Q68.8125 40.953125 70.359375 39.703125Q71.90625 38.4375 74.25 38.4375Q75.96875 38.4375 77.265625 39.140625Q78.578125 39.828125 79.421875 41.140625Q80.28125 42.453125 80.765625 44.34375Q81.25 46.21875 81.25 49.40625Q81.25 53.1875 80.46875 55.515625Q79.703125 57.828125 78.15625 59.09375Q76.609375 60.359375 74.25 60.359375Q71.140625 60.359375 69.375 58.140625Q67.25 55.453125 67.25 49.40625ZM69.953125 49.40625Q69.953125 54.703125 71.1875 56.453125Q72.4375 58.203125 74.25 58.203125Q76.0625 58.203125 77.296875 56.453125Q78.546875 54.6875 78.546875 49.40625Q78.546875 44.109375 77.296875 42.375Q76.0625 40.625 74.21875 40.625Q72.40625 40.625 71.3125 42.15625Q69.953125 44.125 69.953125 49.40625ZM84.25 49.40625Q84.25 45.59375 85.03125 43.28125Q85.8125 40.953125 87.359375 39.703125Q88.90625 38.4375 91.25 38.4375Q92.96875 38.4375 94.265625 39.140625Q95.578125 39.828125 96.421875 41.140625Q97.28125 42.453125 97.765625 44.34375Q98.25 46.21875 98.25 49.40625Q98.25 53.1875 97.46875 55.515625Q96.703125 57.828125 95.15625 59.09375Q93.609375 60.359375 91.25 60.359375Q88.140625 60.359375 86.375 58.140625Q84.25 55.453125 84.25 49.40625ZM86.953125 49.40625Q86.953125 54.703125 88.1875 56.453125Q89.4375 58.203125 91.25 58.203125Q93.0625 58.203125 94.296875 56.453125Q95.546875 54.6875 95.546875 49.40625Q95.546875 44.109375 94.296875 42.375Q93.0625 40.625 91.21875 40.625Q89.40625 40.625 88.3125 42.15625Q86.953125 44.125 86.953125 49.40625ZM101.25 49.40625Q101.25 45.59375 102.03125 43.28125Q102.8125 40.953125 104.359375 39.703125Q105.90625 38.4375 108.25 38.4375Q109.96875 38.4375 111.265625 39.140625Q112.578125 39.828125 113.421875 41.140625Q114.28125 42.453125 114.765625 44.34375Q115.25 46.21875 115.25 49.40625Q115.25 53.1875 114.46875 55.515625Q113.703125 57.828125 112.15625 59.09375Q110.609375 60.359375 108.25 60.359375Q105.140625 60.359375 103.375 58.140625Q101.25 55.453125 101.25 49.40625ZM103.953125 49.40625Q103.953125 54.703125 105.1875 56.453125Q106.4375 58.203125 108.25 58.203125Q110.0625 58.203125 111.296875 56.453125Q112.546875 54.6875 112.546875 49.40625Q112.546875 44.109375 111.296875 42.375Q110.0625 40.625 108.21875 40.625Q106.40625 40.625 105.3125 42.15625Q103.953125 44.125 103.953125 49.40625ZM118.25 49.40625Q118.25 45.59375 119.03125 43.28125Q119.8125 40.953125 121.359375 39.703125Q122.90625 38.4375 125.25 38.4375Q126.96875 38.4375 128.26562 39.140625Q129.57812 39.828125 130.42188 41.140625Q131.28125 42.453125 131.76562 44.34375Q132.25 46.21875 132.25 49.40625Q132.25 53.1875 131.46875 55.515625Q130.70312 57.828125 129.15625 59.09375Q127.609375 60.359375 125.25 60.359375Q122.140625 60.359375 120.375 58.140625Q118.25 55.453125 118.25 49.40625ZM120.953125 49.40625Q120.953125 54.703125 122.1875 56.453125Q123.4375 58.203125 125.25 58.203125Q127.0625 58.203125 128.29688 56.453125Q129.54688 54.6875 129.54688 49.40625Q129.54688 44.109375 128.29688 42.375Q127.0625 40.625 125.21875 40.625Q123.40625 40.625 122.3125 42.15625Q120.953125 44.125 120.953125 49.40625Z" fill-rule="nonzero"/><path fill="#000000" d="M209.82695 600.0L219.71758 574.2344L223.38945 574.2344L233.93633 600.0L230.06133 600.0L227.0457 592.1875L216.28008 592.1875L213.43633 600.0L209.82695 600.0ZM217.26445 589.4219L225.99883 589.4219L223.31133 582.28125Q222.07695 579.03125 221.4832 576.9375Q220.9832 579.4219 220.09258 581.8594L217.26445 589.4219ZM235.49883 591.71875L238.70195 591.4375Q238.93633 593.375 239.76445 594.6094Q240.6082 595.84375 242.3582 596.6094Q244.12383 597.375 246.32695 597.375Q248.26445 597.375 249.76445 596.7969Q251.26445 596.21875 251.9832 595.21875Q252.71758 594.2031 252.71758 593.0Q252.71758 591.7969 252.01445 590.8906Q251.31133 589.9844 249.70195 589.3594Q248.65508 588.9531 245.1082 588.1094Q241.56133 587.25 240.13945 586.5Q238.28008 585.53125 237.37383 584.1094Q236.4832 582.6719 236.4832 580.8906Q236.4832 578.9375 237.57695 577.25Q238.68633 575.5469 240.81133 574.6719Q242.95195 573.7969 245.5457 573.7969Q248.40508 573.7969 250.59258 574.71875Q252.7957 575.6406 253.96758 577.4375Q255.13945 579.21875 255.2332 581.4844L251.96758 581.7344Q251.70195 579.2969 250.1707 578.0469Q248.65508 576.7969 245.68633 576.7969Q242.59258 576.7969 241.1707 577.9375Q239.76445 579.0625 239.76445 580.65625Q239.76445 582.0469 240.76445 582.9531Q241.74883 583.84375 245.90508 584.78125Q250.06133 585.71875 251.6082 586.4219Q253.8582 587.46875 254.9207 589.0625Q255.99883 590.6406 255.99883 592.71875Q255.99883 594.78125 254.82695 596.6094Q253.65508 598.4219 251.43633 599.4375Q249.2332 600.4375 246.4832 600.4375Q242.9832 600.4375 240.6082 599.4219Q238.24883 598.40625 236.90508 596.3594Q235.56133 594.2969 235.49883 591.71875ZM279.04572 590.96875L282.45197 591.8281Q281.37384 596.03125 278.5926 598.2344Q275.81134 600.4375 271.7801 600.4375Q267.60822 600.4375 264.99884 598.75Q262.38947 597.0469 261.0301 593.8281Q259.67072 590.6094 259.67072 586.9219Q259.67072 582.8906 261.20197 579.90625Q262.74884 576.90625 265.57697 575.3594Q268.42072 573.7969 271.82697 573.7969Q275.70197 573.7969 278.32697 575.7656Q280.9676 577.7344 282.01447 581.2969L278.6551 582.09375Q277.74884 579.28125 276.04572 578.0Q274.3426 576.7031 271.76447 576.7031Q268.79572 576.7031 266.79572 578.1406Q264.79572 579.5625 263.98322 581.96875Q263.18634 584.3594 263.18634 586.90625Q263.18634 590.1875 264.13947 592.6406Q265.0926 595.09375 267.10822 596.3125Q269.13947 597.5156 271.49884 597.5156Q274.35822 597.5156 276.3426 595.875Q278.3426 594.21875 279.04572 590.96875ZM287.23322 600.0L287.23322 574.2344L290.63947 574.2344L290.63947 600.0L287.23322 600.0ZM297.23322 600.0L297.23322 574.2344L300.63947 574.2344L300.63947 600.0L297.23322 600.0Z" fill-rule="nonzero"/><path fill="#000000" d="M365.32755 600.0L365.32755 574.2344L368.7338 574.2344L368.7338 596.9531L381.4213 596.9531L381.4213 600.0L365.32755 600.0ZM397.24942 597.7031Q395.4838 599.1875 393.8588 599.8125Q392.2338 600.4219 390.37442 600.4219Q387.2963 600.4219 385.64005 598.9219Q383.9838 597.4219 383.9838 595.0781Q383.9838 593.7031 384.6088 592.5781Q385.2338 591.4375 386.24942 590.75Q387.26505 590.0625 388.53067 589.71875Q389.45255 589.46875 391.34317 589.2344Q395.1713 588.78125 396.9838 588.15625Q396.99942 587.5 396.99942 587.3281Q396.99942 585.3906 396.09317 584.59375Q394.89005 583.53125 392.49942 583.53125Q390.26505 583.53125 389.20255 584.3125Q388.14005 585.09375 387.62442 587.0781L384.53067 586.65625Q384.95255 584.6719 385.9213 583.4531Q386.89005 582.2344 388.71817 581.5781Q390.5463 580.90625 392.95255 580.90625Q395.34317 580.90625 396.82755 581.46875Q398.32755 582.03125 399.03067 582.8906Q399.7338 583.7344 400.01505 585.0469Q400.1713 585.84375 400.1713 587.9531L400.1713 592.1719Q400.1713 596.59375 400.37442 597.7656Q400.57755 598.9219 401.18692 600.0L397.87442 600.0Q397.39005 599.0156 397.24942 597.7031ZM396.9838 590.625Q395.24942 591.3281 391.81192 591.8281Q389.8588 592.1094 389.0463 592.46875Q388.24942 592.8125 387.7963 593.4844Q387.3588 594.15625 387.3588 594.9844Q387.3588 596.25 388.31192 597.09375Q389.28067 597.9375 391.12442 597.9375Q392.95255 597.9375 394.37442 597.1406Q395.7963 596.34375 396.46817 594.9531Q396.9838 593.875 396.9838 591.7969L396.9838 590.625ZM411.96817 597.1719L412.4213 599.96875Q411.09317 600.25 410.03067 600.25Q408.31192 600.25 407.3588 599.7031Q406.4213 599.15625 406.03067 598.2656Q405.64005 597.375 405.64005 594.53125L405.64005 583.7969L403.32755 583.7969L403.32755 581.3281L405.64005 581.3281L405.64005 576.7031L408.78067 574.8125L408.78067 581.3281L411.96817 581.3281L411.96817 583.7969L408.78067 583.7969L408.78067 594.7031Q408.78067 596.0625 408.95255 596.4531Q409.12442 596.8281 409.49942 597.0625Q409.87442 597.2969 410.57755 597.2969Q411.1088 597.2969 411.96817 597.1719ZM415.07755 577.875L415.07755 574.2344L418.24942 574.2344L418.24942 577.875L415.07755 577.875ZM415.07755 600.0L415.07755 581.3281L418.24942 581.3281L418.24942 600.0L415.07755 600.0ZM423.06192 600.0L423.06192 581.3281L425.90567 581.3281L425.90567 583.9844Q427.96817 580.90625 431.84317 580.90625Q433.53067 580.90625 434.95255 581.5156Q436.37442 582.125 437.07755 583.1094Q437.78067 584.09375 438.06192 585.4375Q438.2338 586.3281 438.2338 588.5156L438.2338 600.0L435.06192 600.0L435.06192 588.6406Q435.06192 586.7031 434.68692 585.75Q434.32755 584.7969 433.39005 584.2344Q432.45255 583.65625 431.18692 583.65625Q429.15567 583.65625 427.68692 584.9375Q426.21817 586.21875 426.21817 589.7969L426.21817 600.0L423.06192 600.0ZM464.09317 600.0L460.93692 600.0L460.93692 579.84375Q459.7963 580.9219 457.93692 582.0156Q456.07755 583.1094 454.6088 583.65625L454.6088 580.59375Q457.26505 579.34375 459.24942 577.5781Q461.2338 575.7969 462.06192 574.125L464.09317 574.125L464.09317 600.0Z" fill-rule="nonzero"/><path fill="#000000" d="M511.125 591.71875L514.3281 591.4375Q514.5625 593.375 515.3906 594.6094Q516.2344 595.84375 517.9844 596.6094Q519.75 597.375 521.9531 597.375Q523.8906 597.375 525.3906 596.7969Q526.8906 596.21875 527.6094 595.21875Q528.34375 594.2031 528.34375 593.0Q528.34375 591.7969 527.6406 590.8906Q526.9375 589.9844 525.3281 589.3594Q524.28125 588.9531 520.7344 588.1094Q517.1875 587.25 515.7656 586.5Q513.90625 585.53125 513.0 584.1094Q512.1094 582.6719 512.1094 580.8906Q512.1094 578.9375 513.2031 577.25Q514.3125 575.5469 516.4375 574.6719Q518.5781 573.7969 521.1719 573.7969Q524.03125 573.7969 526.21875 574.71875Q528.4219 575.6406 529.59375 577.4375Q530.7656 579.21875 530.8594 581.4844L527.59375 581.7344Q527.3281 579.2969 525.7969 578.0469Q524.28125 576.7969 521.3125 576.7969Q518.21875 576.7969 516.7969 577.9375Q515.3906 579.0625 515.3906 580.65625Q515.3906 582.0469 516.3906 582.9531Q517.375 583.84375 521.53125 584.78125Q525.6875 585.71875 527.2344 586.4219Q529.4844 587.46875 530.5469 589.0625Q531.625 590.6406 531.625 592.71875Q531.625 594.78125 530.4531 596.6094Q529.28125 598.4219 527.0625 599.4375Q524.8594 600.4375 522.1094 600.4375Q518.6094 600.4375 516.2344 599.4219Q513.875 598.40625 512.53125 596.3594Q511.1875 594.2969 511.125 591.71875ZM535.875 600.0L535.875 574.2344L539.03125 574.2344L539.03125 583.46875Q541.25 580.90625 544.625 580.90625Q546.7031 580.90625 548.2344 581.7344Q549.7656 582.5469 550.4219 583.9844Q551.0781 585.4219 551.0781 588.1719L551.0781 600.0L547.9219 600.0L547.9219 588.1719Q547.9219 585.7969 546.8906 584.71875Q545.8594 583.6406 543.9844 583.6406Q542.5781 583.6406 541.3281 584.375Q540.09375 585.09375 539.5625 586.34375Q539.03125 587.59375 539.03125 589.78125L539.03125 600.0L535.875 600.0ZM555.8906 577.875L555.8906 574.2344L559.0625 574.2344L559.0625 577.875L555.8906 577.875ZM555.8906 600.0L555.8906 581.3281L559.0625 581.3281L559.0625 600.0L555.8906 600.0ZM564.625 600.0L564.625 583.7969L561.8281 583.7969L561.8281 581.3281L564.625 581.3281L564.625 579.34375Q564.625 577.46875 564.96875 576.5469Q565.4219 575.3125 566.5625 574.5625Q567.71875 573.7969 569.7969 573.7969Q571.1406 573.7969 572.75 574.1094L572.28125 576.8594Q571.2969 576.6875 570.40625 576.6875Q568.96875 576.6875 568.375 577.3125Q567.78125 577.9219 567.78125 579.6094L567.78125 581.3281L571.4219 581.3281L571.4219 583.7969L567.78125 583.7969L567.78125 600.0L564.625 600.0ZM580.78125 597.1719L581.2344 599.96875Q579.90625 600.25 578.84375 600.25Q577.125 600.25 576.1719 599.7031Q575.2344 599.15625 574.84375 598.2656Q574.4531 597.375 574.4531 594.53125L574.4531 583.7969L572.1406 583.7969L572.1406 581.3281L574.4531 581.3281L574.4531 576.7031L577.59375 574.8125L577.59375 581.3281L580.78125 581.3281L580.78125 583.7969L577.59375 583.7969L577.59375 594.7031Q577.59375 596.0625 577.7656 596.4531Q577.9375 596.8281 578.3125 597.0625Q578.6875 597.2969 579.3906 597.2969Q579.9219 597.2969 580.78125 597.1719ZM592.53125 592.6875L595.6094 592.2656Q595.7344 595.21875 596.71875 596.3125Q597.7031 597.3906 599.4531 597.3906Q600.7344 597.3906 601.65625 596.8125Q602.59375 596.21875 602.9375 595.21875Q603.2969 594.2031 603.2969 591.9844L603.2969 574.2344L606.7031 574.2344L606.7031 591.7969Q606.7031 595.03125 605.9219 596.8125Q605.1406 598.5781 603.4375 599.5156Q601.75 600.4375 599.46875 600.4375Q596.0781 600.4375 594.2656 598.4844Q592.46875 596.53125 592.53125 592.6875ZM612.8594 600.0L612.8594 574.2344L616.2656 574.2344L616.2656 600.0L612.8594 600.0ZM621.125 591.71875L624.3281 591.4375Q624.5625 593.375 625.3906 594.6094Q626.2344 595.84375 627.9844 596.6094Q629.75 597.375 631.9531 597.375Q633.8906 597.375 635.3906 596.7969Q636.8906 596.21875 637.6094 595.21875Q638.34375 594.2031 638.34375 593.0Q638.34375 591.7969 637.6406 590.8906Q636.9375 589.9844 635.3281 589.3594Q634.28125 588.9531 630.7344 588.1094Q627.1875 587.25 625.7656 586.5Q623.90625 585.53125 623.0 584.1094Q622.1094 582.6719 622.1094 580.8906Q622.1094 578.9375 623.2031 577.25Q624.3125 575.5469 626.4375 574.6719Q628.5781 573.7969 631.1719 573.7969Q634.03125 573.7969 636.21875 574.71875Q638.4219 575.6406 639.59375 577.4375Q640.7656 579.21875 640.8594 581.4844L637.59375 581.7344Q637.3281 579.2969 635.7969 578.0469Q634.28125 576.7969 631.3125 576.7969Q628.21875 576.7969 626.7969 577.9375Q625.3906 579.0625 625.3906 580.65625Q625.3906 582.0469 626.3906 582.9531Q627.375 583.84375 631.53125 584.78125Q635.6875 585.71875 637.2344 586.4219Q639.4844 587.46875 640.5469 589.0625Q641.625 590.6406 641.625 592.71875Q641.625 594.78125 640.4531 596.6094Q639.28125 598.4219 637.0625 599.4375Q634.8594 600.4375 632.1094 600.4375Q628.6094 600.4375 626.2344 599.4219Q623.875 598.40625 622.53125 596.3594Q621.1875 594.2969 621.125 591.71875Z" fill-rule="nonzero"/><path fill="#000000" d="M696.95374 600.0L696.95374 574.2344L706.6256 574.2344Q709.57874 574.2344 711.36 575.0156Q713.14124 575.7969 714.14124 577.4219Q715.15686 579.0469 715.15686 580.8281Q715.15686 582.46875 714.26624 583.9375Q713.3756 585.3906 711.5631 586.28125Q713.89124 586.96875 715.14124 588.625Q716.40686 590.28125 716.40686 592.53125Q716.40686 594.34375 715.64124 595.90625Q714.8756 597.4531 713.7506 598.2969Q712.6256 599.1406 710.9225 599.5781Q709.235 600.0 706.78186 600.0L696.95374 600.0ZM700.36 585.0625L705.9381 585.0625Q708.20374 585.0625 709.1881 584.7656Q710.485 584.375 711.14124 583.4844Q711.7975 582.5781 711.7975 581.21875Q711.7975 579.9375 711.1881 578.96875Q710.57874 577.9844 709.4225 577.625Q708.28186 577.2656 705.51624 577.2656L700.36 577.2656L700.36 585.0625ZM700.36 596.9531L706.78186 596.9531Q708.4225 596.9531 709.09436 596.8281Q710.28186 596.625 711.0631 596.1406Q711.86 595.6406 712.36 594.7031Q712.8756 593.7656 712.8756 592.53125Q712.8756 591.09375 712.14124 590.03125Q711.40686 588.9531 710.09436 588.53125Q708.78186 588.09375 706.3131 588.09375L700.36 588.09375L700.36 596.9531ZM720.70374 577.875L720.70374 574.2344L723.8756 574.2344L723.8756 577.875L720.70374 577.875ZM720.70374 600.0L720.70374 581.3281L723.8756 581.3281L723.8756 600.0L720.70374 600.0ZM728.11 601.5469L731.1881 602.0Q731.3756 603.4219 732.2506 604.0781Q733.4381 604.9531 735.46936 604.9531Q737.6725 604.9531 738.86 604.0781Q740.0631 603.2031 740.485 601.625Q740.735 600.65625 740.70374 597.5625Q738.64124 600.0 735.5475 600.0Q731.6881 600.0 729.57874 597.21875Q727.46936 594.4375 727.46936 590.5625Q727.46936 587.8906 728.4381 585.6406Q729.40686 583.375 731.235 582.1406Q733.07874 580.90625 735.5631 580.90625Q738.86 580.90625 741.01624 583.5781L741.01624 581.3281L743.9225 581.3281L743.9225 597.46875Q743.9225 601.8281 743.03186 603.6406Q742.15686 605.46875 740.21936 606.5156Q738.2975 607.5781 735.485 607.5781Q732.15686 607.5781 730.09436 606.0781Q728.03186 604.5781 728.11 601.5469ZM730.71936 590.3281Q730.71936 594.0 732.1725 595.6875Q733.64124 597.375 735.84436 597.375Q738.01624 597.375 739.485 595.7031Q740.96936 594.0156 740.96936 590.4375Q740.96936 587.0156 739.45374 585.28125Q737.9381 583.53125 735.78186 583.53125Q733.6725 583.53125 732.1881 585.25Q730.71936 586.9531 730.71936 590.3281ZM747.45374 592.2656L747.45374 589.0781L757.1725 589.0781L757.1725 592.2656L747.45374 592.2656ZM759.8131 593.25L763.1256 592.96875Q763.5006 595.3906 764.84436 596.625Q766.1881 597.84375 768.09436 597.84375Q770.3756 597.84375 771.95374 596.125Q773.53186 594.3906 773.53186 591.5469Q773.53186 588.84375 772.01624 587.28125Q770.5006 585.7031 768.03186 585.7031Q766.5006 585.7031 765.26624 586.40625Q764.0475 587.09375 763.34436 588.2031L760.3756 587.8125L762.86 574.5781L775.6881 574.5781L775.6881 577.6094L765.39124 577.6094L764.01624 584.53125Q766.32874 582.90625 768.8756 582.90625Q772.2506 582.90625 774.5631 585.25Q776.89124 587.59375 776.89124 591.2656Q776.89124 594.7656 774.86 597.3125Q772.3756 600.4375 768.09436 600.4375Q764.57874 600.4375 762.34436 598.46875Q760.1256 596.5 759.8131 593.25Z" fill-rule="nonzero"/><path fill="#000000" d="M849.81366 574.2344L853.2199 574.2344L853.2199 589.125Q853.2199 593.0 852.3449 595.2969Q851.4699 597.5781 849.17303 599.0156Q846.87616 600.4375 843.1574 600.4375Q839.5324 600.4375 837.2199 599.1875Q834.92303 597.9375 833.93866 595.5781Q832.9543 593.21875 832.9543 589.125L832.9543 574.2344L836.36053 574.2344L836.36053 589.09375Q836.36053 592.4531 836.98553 594.0469Q837.61053 595.6406 839.12616 596.5Q840.6574 597.3594 842.86053 597.3594Q846.61053 597.3594 848.2043 595.65625Q849.81366 593.9531 849.81366 589.09375L849.81366 574.2344ZM858.50116 600.0L858.50116 581.3281L861.3449 581.3281L861.3449 583.9844Q863.4074 580.90625 867.2824 580.90625Q868.9699 580.90625 870.3918 581.5156Q871.81366 582.125 872.5168 583.1094Q873.2199 584.09375 873.50116 585.4375Q873.67303 586.3281 873.67303 588.5156L873.67303 600.0L870.50116 600.0L870.50116 588.6406Q870.50116 586.7031 870.12616 585.75Q869.7668 584.7969 868.8293 584.2344Q867.8918 583.65625 866.62616 583.65625Q864.5949 583.65625 863.12616 584.9375Q861.6574 586.21875 861.6574 589.7969L861.6574 600.0L858.50116 600.0ZM878.5168 577.875L878.5168 574.2344L881.68866 574.2344L881.68866 577.875L878.5168 577.875ZM878.5168 600.0L878.5168 581.3281L881.68866 581.3281L881.68866 600.0L878.5168 600.0ZM898.68866 593.15625L901.79803 593.5625Q901.2824 596.78125 899.17303 598.6094Q897.0793 600.4219 894.0168 600.4219Q890.18866 600.4219 887.86053 597.9219Q885.5324 595.40625 885.5324 590.7344Q885.5324 587.71875 886.5324 585.4531Q887.5324 583.1719 889.5793 582.0469Q891.62616 580.90625 894.04803 580.90625Q897.0793 580.90625 899.0168 582.4531Q900.9543 583.9844 901.50116 586.8125L898.42303 587.2969Q897.98553 585.40625 896.86053 584.46875Q895.75116 583.5156 894.1574 583.5156Q891.7668 583.5156 890.2668 585.2344Q888.7824 586.9375 888.7824 590.6406Q888.7824 594.40625 890.2199 596.1094Q891.67303 597.8125 893.98553 597.8125Q895.8449 597.8125 897.0949 596.6719Q898.3449 595.53125 898.68866 593.15625ZM903.3293 590.6719Q903.3293 585.4844 906.2043 582.9844Q908.61053 580.90625 912.0793 580.90625Q915.92303 580.90625 918.36053 583.4375Q920.81366 585.9531 920.81366 590.40625Q920.81366 594.0 919.73553 596.0781Q918.6574 598.1406 916.5793 599.28125Q914.5168 600.4219 912.0793 600.4219Q908.1574 600.4219 905.73553 597.90625Q903.3293 595.3906 903.3293 590.6719ZM906.5793 590.6719Q906.5793 594.25 908.1418 596.03125Q909.7043 597.8125 912.0793 597.8125Q914.43866 597.8125 916.00116 596.03125Q917.56366 594.2344 917.56366 590.5625Q917.56366 587.09375 915.98553 585.3125Q914.4074 583.53125 912.0793 583.53125Q909.7043 583.53125 908.1418 585.3125Q906.5793 587.0781 906.5793 590.6719ZM936.61053 600.0L936.61053 597.6406Q934.8293 600.4219 931.3918 600.4219Q929.1574 600.4219 927.2824 599.1875Q925.4074 597.9531 924.37616 595.75Q923.36053 593.5469 923.36053 590.6875Q923.36053 587.8906 924.2824 585.6094Q925.2199 583.3281 927.0793 582.125Q928.9543 580.90625 931.25116 580.90625Q932.93866 580.90625 934.25116 581.625Q935.5793 582.3281 936.4074 583.46875L936.4074 574.2344L939.54803 574.2344L939.54803 600.0L936.61053 600.0ZM926.61053 590.6875Q926.61053 594.2656 928.11053 596.0469Q929.62616 597.8125 931.68866 597.8125Q933.7668 597.8125 935.2043 596.125Q936.6574 594.4219 936.6574 590.9531Q936.6574 587.1094 935.17303 585.3281Q933.7043 583.53125 931.54803 583.53125Q929.43866 583.53125 928.0168 585.25Q926.61053 586.96875 926.61053 590.6875ZM957.2824 593.9844L960.54803 594.3906Q959.7824 597.25 957.68866 598.84375Q955.5949 600.4219 952.3449 600.4219Q948.25116 600.4219 945.8449 597.90625Q943.43866 595.375 943.43866 590.8281Q943.43866 586.1094 945.86053 583.5156Q948.29803 580.90625 952.1574 580.90625Q955.9074 580.90625 958.2824 583.4531Q960.6574 586.0 960.6574 590.625Q960.6574 590.90625 960.6418 591.46875L946.7199 591.46875Q946.8918 594.5469 948.4543 596.1875Q950.0168 597.8125 952.36053 597.8125Q954.0949 597.8125 955.3293 596.90625Q956.56366 595.9844 957.2824 593.9844ZM946.8918 588.875L957.31366 588.875Q957.11053 586.5156 956.12616 585.34375Q954.61053 583.5156 952.2043 583.5156Q950.0168 583.5156 948.5324 584.96875Q947.04803 586.4219 946.8918 588.875Z" fill-rule="nonzero"/></svg>