<svg version="1.1" viewBox="0.0 0.0 986.0 609.0" fill="none" stroke="none" stroke-linecap="square" stroke-miterlimit="10" width="986" height="609" xmlns:xlink="http://www.w3.org/1999/xlink" xmlns="http://www.w3.org/2000/svg"><path fill="#ffffff" d="M0 0L986.0 0L986.0 609.0L0 609.0L0 0Z" fill-rule="nonzero"/><path fill="#71c287" d="M278.7305 14.221066C308.47723 4.7963586 339.4959 0 370.7 0L370.7 304.5Z" fill-rule="nonzero"/><path fill="#9900ff" d="M152.7434 91.86141C187.71547 56.014698 230.98912 29.347034 278.7305 14.221066L370.7 304.5Z" fill-rule="nonzero"/><path fill="#f07b72" d="M142.6951 102.67331C145.95668 98.98868 149.3071 95.38365 152.7434 91.86141L370.7 304.5Z" fill-rule="nonzero"/><path fill="#ffff00" d="M134.2385 112.65057C136.9856 109.264656 139.80511 105.93813 142.6951 102.67331L370.7 304.5Z" fill-rule="nonzero"/><path fill="#46bdc6" d="M120.76462 130.56738C125.03447 124.431755 129.52881 118.45544 134.2385 112.65057L370.7 304.5Z" fill-rule="nonzero"/><path fill="#ff6d01" d="M93.1483 179.25902C100.83917 162.21497 110.083664 145.91556 120.76462 130.56738L370.7 304.5Z" fill-rule="nonzero"/><path fill="#34a853" d="M77.269745 223.14317C81.43218 208.13046 86.74062 193.45934 93.1483 179.25902L370.7 304.5Z" fill-rule="nonzero"/><path fill="#fbbc04" d="M68.95186 345.34494C63.418728 304.46808 66.2486 262.89322 77.269745 223.14317L370.7 304.5Z" fill-rule="nonzero"/><path fill="#ea4335" d="M195.27512 553.39026C126.077255 504.61765 80.30779 429.23865 68.95186 345.34494L370.7 304.5Z" fill-rule="nonzero"/><path fill="#4285f4" d="M370.7 0C502.08047 0 618.6466 84.26475 659.843 209.01926C701.0394 333.77377 657.57556 470.88358 552.03064 549.12103C446.48572 627.3585 302.66205 629.0796 195.27512 553.39026L370.7 304.5Z" fill-rule="nonzero"/><path fill="#4285f4" d="M794.0 20.5C794.0 23.81371 791.3137 26.5 788.0 26.5C784.6863 26.5 782.0 23.81371 782.0 20.5C782.0 17.18629 784.6863 14.5 788.0 14.5C791.3137 14.5 794.0 17.18629 794.0 20.5Z" fill-rule="nonzero"/><path fill="#1a1a1a" d="M804.6406 33.0L804.6406 7.234375L808.0469 7.234375L808.0469 29.953125L820.7344 29.953125L820.7344 33.0L804.6406 33.0ZM836.5625 30.703125Q834.7969 32.1875 833.1719 32.8125Q831.5469 33.421875 829.6875 33.421875Q826.6094 33.421875 824.9531 31.921875Q823.2969 30.421875 823.2969 28.078125Q823.2969 26.703125 823.9219 25.578125Q824.5469 24.4375 825.5625 23.75Q826.5781 23.0625 827.84375 22.71875Q828.7656 22.46875 830.65625 22.234375Q834.4844 21.78125 836.2969 21.15625Q836.3125 20.5 836.3125 20.328125Q836.3125 18.390625 835.40625 17.59375Q834.2031 16.53125 831.8125 16.53125Q829.5781 16.53125 828.5156 17.3125Q827.4531 18.09375 826.9375 20.078125L823.84375 19.65625Q824.2656 17.671875 825.2344 16.453125Q826.2031 15.234375 828.03125 14.578125Q829.8594 13.90625 832.2656 13.90625Q834.65625 13.90625 836.1406 14.46875Q837.6406 15.03125 838.34375 15.890625Q839.0469 16.734375 839.3281 18.046875Q839.4844 18.84375 839.4844 20.953125L839.4844 25.171875Q839.4844 29.59375 839.6875 30.765625Q839.8906 31.921875 840.5 33.0L837.1875 33.0Q836.7031 32.015625 836.5625 30.703125ZM836.2969 23.625Q834.5625 24.328125 831.125 24.828125Q829.1719 25.109375 828.3594 25.46875Q827.5625 25.8125 827.1094 26.484375Q826.6719 27.15625 826.6719 27.984375Q826.6719 29.25 827.625 30.09375Q828.59375 30.9375 830.4375 30.9375Q832.2656 30.9375 833.6875 30.140625Q835.1094 29.34375 835.78125 27.953125Q836.2969 26.875 836.2969 24.796875L836.2969 23.625ZM851.28125 30.171875L851.7344 32.96875Q850.40625 33.25 849.34375 33.25Q847.625 33.25 846.6719 32.703125Q845.7344 32.15625 845.34375 31.265625Q844.9531 30.375 844.9531 27.53125L844.9531 16.796875L842.6406 16.796875L842.6406 14.328125L844.9531 14.328125L844.9531 9.703125L848.09375 7.8125L848.09375 14.328125L851.28125 14.328125L851.28125 16.796875L848.09375 16.796875L848.09375 27.703125Q848.09375 29.0625 848.2656 29.453125Q848.4375 29.828125 848.8125 30.0625Q849.1875 30.296875 849.8906 30.296875Q850.4219 30.296875 851.28125 30.171875ZM854.3906 10.875L854.3906 7.234375L857.5625 7.234375L857.5625 10.875L854.3906 10.875ZM854.3906 33.0L854.3906 14.328125L857.5625 14.328125L857.5625 33.0L854.3906 33.0ZM862.375 33.0L862.375 14.328125L865.21875 14.328125L865.21875 16.984375Q867.28125 13.90625 871.15625 13.90625Q872.84375 13.90625 874.2656 14.515625Q875.6875 15.125 876.3906 16.109375Q877.09375 17.09375 877.375 18.4375Q877.5469 19.328125 877.5469 21.515625L877.5469 33.0L874.375 33.0L874.375 21.640625Q874.375 19.703125 874.0 18.75Q873.6406 17.796875 872.7031 17.234375Q871.7656 16.65625 870.5 16.65625Q868.46875 16.65625 867.0 17.9375Q865.53125 19.21875 865.53125 22.796875L865.53125 33.0L862.375 33.0Z" fill-rule="nonzero"/><path fill="#ea4335" d="M794.0 71.5C794.0 74.813705 791.3137 77.5 788.0 77.5C784.6863 77.5 782.0 74.813705 782.0 71.5C782.0 68.186295 784.6863 65.5 788.0 65.5C791.3137 65.5 794.0 68.186295 794.0 71.5Z" fill-rule="nonzero"/><path fill="#1a1a1a" d="M816.90625 59.8125Q815.5 59.953125 814.2344 59.953125L814.2344 57.28125Q817.6094 57.421875 820.1406 57.421875L833.6406 57.421875Q832.375 63.1875 830.6094 68.25Q828.8594 73.3125 826.3281 77.109375Q828.2969 79.359375 831.03125 81.40625Q833.78125 83.4375 836.59375 84.84375Q835.3281 85.546875 834.2031 87.375Q832.2344 86.109375 829.4219 83.71875Q826.6094 81.328125 824.6406 78.9375Q822.3906 81.46875 819.4375 83.65625Q816.4844 85.828125 813.1094 87.796875Q812.6875 86.671875 811.1406 85.265625Q813.6719 84.421875 816.96875 82.3125Q820.28125 80.203125 823.09375 76.96875Q820.84375 73.59375 819.4375 69.453125Q818.03125 65.296875 816.90625 59.8125ZM819.5781 59.8125Q820.1406 63.75 821.6875 68.1875Q823.2344 72.609375 824.78125 74.71875Q826.1875 72.609375 827.65625 68.75Q829.1406 64.875 830.2656 59.8125L820.7031 59.8125L819.5781 59.8125ZM812.8281 75.0Q809.4531 81.328125 806.9219 86.390625Q805.9375 85.40625 804.25 84.5625Q806.21875 81.890625 807.90625 78.734375Q809.59375 75.5625 810.5781 73.03125Q811.7031 74.296875 812.8281 75.0ZM805.5156 63.75Q808.0469 65.15625 812.2656 67.96875Q811.28125 69.09375 810.4375 70.5Q807.34375 67.96875 803.96875 66.140625Q804.9531 64.875 805.5156 63.75ZM807.2031 55.171875Q810.2969 57.28125 813.25 59.53125Q812.125 60.796875 811.4219 61.921875Q808.6094 59.25 805.5156 57.28125Q806.78125 56.015625 807.2031 55.171875Z" fill-rule="nonzero"/><path fill="#1a1a1a" d="M857.6875 71.34375L857.6875 73.171875L871.46875 73.171875L871.46875 75.84375L857.6875 75.84375L857.6875 84.0Q857.6875 86.25 855.4375 86.25L851.6406 86.25L850.9375 83.578125L854.3125 83.578125Q854.875 83.578125 854.875 83.015625L854.875 75.84375L840.25 75.84375L840.25 73.171875L854.875 73.171875L854.875 69.515625L856.28125 69.796875L860.21875 67.125L846.71875 67.125L846.71875 64.453125L863.03125 64.453125L863.59375 63.890625L865.9844 66.28125L865.1406 66.5625L857.6875 71.34375ZM857.5469 58.828125L870.625 58.828125L870.625 65.859375L867.8125 65.859375L867.8125 61.5L844.0469 61.5L844.0469 66.140625L841.2344 66.140625L841.2344 58.828125L854.3125 58.828125L854.3125 55.03125L857.40625 55.03125Q858.8125 55.3125 857.5469 56.15625L857.5469 58.828125Z" fill-rule="nonzero"/><path fill="#fbbc04" d="M794.0 122.5C794.0 125.813705 791.3137 128.5 788.0 128.5C784.6863 128.5 782.0 125.813705 782.0 122.5C782.0 119.186295 784.6863 116.5 788.0 116.5C791.3137 116.5 794.0 119.186295 794.0 122.5Z" fill-rule="nonzero"/><path fill="#1a1a1a" d="M917.0469 108.84375L915.6875 111.375L912.8281 109.859375L914.15625 107.34375L917.0469 108.84375ZM913.0156 110.421875L911.6719 112.96875L908.8281 111.5L910.125 108.953125L913.0156 110.421875ZM921.5 129.84375L918.9844 129.84375Q917.71875 129.84375 916.75 127.6875Q916.03125 126.0625 915.59375 123.515625Q915.0625 124.5 914.25 125.046875Q913.4531 125.59375 912.5469 125.59375Q910.53125 125.59375 909.1875 125.328125Q907.84375 125.046875 907.84375 124.625Q907.84375 123.109375 909.8125 121.28125Q911.78125 119.4375 914.7344 118.078125Q914.7031 117.9375 914.5781 117.34375Q914.46875 116.734375 914.46875 116.59375Q914.46875 116.0 914.875 115.265625Q915.2031 114.65625 915.75 114.03125Q915.9219 115.125 916.1094 116.140625Q916.2969 117.15625 916.5469 118.25L917.0781 121.265625Q917.5156 123.765625 917.8594 124.96875Q918.40625 126.796875 918.9844 126.796875L921.5 126.796875L921.5 129.84375ZM915.3594 121.984375L915.03125 120.078125Q913.5 120.625 912.625 121.21875Q911.75 121.796875 911.1406 122.765625Q911.5156 122.921875 912.0 123.015625Q912.5 123.09375 913.3594 123.09375Q914.4219 123.09375 915.3594 121.984375ZM930.7969 129.84375L920.7656 129.84375L920.7656 126.796875L929.5 126.796875Q929.5 124.71875 929.0156 123.625Q928.6875 122.875 927.3594 121.453125L928.7344 118.578125Q930.0 120.1875 930.3125 121.078125Q930.7969 122.4375 930.7969 125.5625L930.7969 129.84375ZM930.7031 133.35938L929.3281 135.89062L926.4844 134.39062L927.7969 131.875L930.7031 133.35938ZM926.65625 134.95312L925.3281 137.5L922.46875 136.01562L923.78125 133.46875L926.65625 134.95312ZM939.7969 129.84375L929.7656 129.84375L929.7656 126.796875L938.5 126.796875Q938.5 124.71875 938.0156 123.625Q937.6875 122.875 936.3594 121.453125L937.7344 118.578125Q939.0 120.1875 939.3125 121.078125Q939.7969 122.4375 939.7969 125.5625L939.7969 129.84375ZM938.0 134.125L936.625 136.67188L933.78125 135.1875L935.0781 132.625L938.0 134.125ZM957.59375 129.84375Q957.59375 131.78125 955.9375 133.85938Q954.5 135.6875 952.3594 137.0Q950.3125 138.26562 949.0 138.26562Q947.78125 138.26562 946.375 137.92188Q945.3125 137.65625 943.8125 137.09375Q942.5469 136.625 941.2969 136.14062L941.59375 135.4375Q942.7656 135.67188 944.0156 135.90625Q945.28125 136.14062 946.2969 136.14062Q948.5469 136.14062 950.9844 134.70312Q953.2031 133.375 954.7656 131.375Q956.3281 129.35938 956.3281 127.734375Q956.3281 126.34375 955.5156 124.828125Q954.875 123.59375 953.6875 122.296875L954.7031 119.53125Q956.1406 120.859375 956.8281 122.203125Q957.59375 123.71875 957.59375 125.578125L957.59375 129.84375ZM972.1875 129.84375L969.6094 129.84375Q968.4531 129.84375 967.28125 129.29688Q965.875 128.65625 965.25 127.5Q964.0625 128.54688 962.5469 129.125Q960.7031 129.84375 958.3594 129.84375L956.7656 129.84375L956.7656 126.796875L958.3594 126.796875Q959.8281 126.796875 961.09375 126.46875Q962.53125 126.109375 963.9219 125.296875L963.1875 124.34375Q962.625 123.671875 961.9219 123.671875Q961.6094 123.671875 961.3594 123.796875Q961.1094 123.90625 960.8125 124.296875L960.4375 124.296875L960.4375 123.25Q960.4375 121.328125 961.46875 120.609375Q962.3906 119.953125 964.7031 119.953125Q966.6875 119.953125 967.9375 120.484375Q969.5625 121.171875 969.5625 122.59375Q969.5625 123.34375 968.9219 124.15625Q968.4375 124.75 967.1719 125.8125Q967.4531 126.234375 968.25 126.515625Q969.0625 126.796875 969.6094 126.796875L972.1875 126.796875L972.1875 129.84375ZM979.4531 129.84375L970.7656 129.84375L970.7656 126.796875L977.6719 126.796875L975.59375 111.890625L974.6719 111.4375Q974.6719 110.234375 974.875 109.171875Q975.09375 108.109375 975.5156 107.109375L975.78125 107.296875Q975.78125 108.3125 976.9219 108.828125Q977.7969 109.171875 978.7031 109.53125Q978.7031 110.40625 978.5625 111.40625Q978.4219 112.40625 978.21875 112.90625L977.375 112.625L979.4531 126.40625L979.4531 129.84375ZM984.9375 125.359375Q984.9375 126.765625 984.4375 128.09375Q984.1719 128.79688 983.2969 130.32812L982.96875 130.14062Q983.03125 129.64062 983.0625 128.96875Q983.1094 128.29688 983.1094 128.07812Q983.1094 126.25 982.8125 122.96875Q982.53125 119.6875 982.125 116.125Q981.8906 113.953125 981.5781 111.703125Q981.9375 110.9375 982.375 110.046875Q982.8281 109.140625 983.2344 108.34375Q983.5156 110.359375 983.9375 113.84375Q984.375 117.3125 984.625 120.109375Q984.9375 123.59375 984.9375 125.359375Z" fill-rule="nonzero"/><path fill="#34a853" d="M794.0 173.5C794.0 176.8137 791.3137 179.5 788.0 179.5C784.6863 179.5 782.0 176.8137 782.0 173.5C782.0 170.1863 784.6863 167.5 788.0 167.5C791.3137 167.5 794.0 170.1863 794.0 173.5Z" fill-rule="nonzero"/><path fill="#1a1a1a" d="M804.8281 160.23438L808.2344 160.23438L808.2344 171.51562Q810.5781 171.51562 811.53125 170.60938Q812.4844 169.70312 813.9531 166.26562Q815.03125 163.73438 815.71875 162.6875Q816.4219 161.64062 817.7031 160.9375Q818.9844 160.21875 820.53125 160.21875Q822.5 160.21875 822.6094 160.25L822.6094 163.20312Q822.4219 163.20312 821.9219 163.1875Q821.3594 163.17188 821.2344 163.17188Q819.59375 163.17188 818.8125 163.95312Q818.0 164.75 816.9531 167.32812Q815.65625 170.59375 814.75 171.45312Q813.8594 172.3125 812.625 172.8125Q815.1094 173.5 817.5469 177.42188L822.84375 186.0L818.6094 186.0L814.3125 179.0Q812.53125 176.10938 811.3281 175.03125Q810.1406 173.9375 808.2344 173.9375L808.2344 186.0L804.8281 186.0L804.8281 160.23438ZM825.375 167.32812L828.53125 167.32812L828.53125 181.5625L837.3125 167.32812L840.71875 167.32812L840.71875 186.0L837.5625 186.0L837.5625 171.84375L828.78125 186.0L825.375 186.0L825.375 167.32812ZM845.375 193.15625L845.375 167.32812L848.25 167.32812L848.25 169.75Q849.28125 168.32812 850.5625 167.625Q851.84375 166.90625 853.6719 166.90625Q856.0625 166.90625 857.8906 168.14062Q859.71875 169.375 860.6406 171.625Q861.5781 173.85938 861.5781 176.53125Q861.5781 179.39062 860.5469 181.6875Q859.53125 183.98438 857.5625 185.20312Q855.6094 186.42188 853.4375 186.42188Q851.8594 186.42188 850.59375 185.75Q849.34375 185.07812 848.53125 184.0625L848.53125 193.15625L845.375 193.15625ZM848.2344 176.76562Q848.2344 180.375 849.6875 182.09375Q851.15625 183.8125 853.2344 183.8125Q855.34375 183.8125 856.84375 182.03125Q858.34375 180.25 858.34375 176.5Q858.34375 172.9375 856.875 171.17188Q855.40625 169.39062 853.375 169.39062Q851.34375 169.39062 849.78125 171.28125Q848.2344 173.17188 848.2344 176.76562ZM865.375 167.32812L868.53125 167.32812L868.53125 181.5625L877.3125 167.32812L880.71875 167.32812L880.71875 186.0L877.5625 186.0L877.5625 171.84375L868.78125 186.0L865.375 186.0L865.375 167.32812ZM886.9219 167.32812L901.6094 167.32812L901.6094 186.0L898.46875 186.0L898.46875 169.95312L890.0781 169.95312L890.0781 179.25Q890.0781 182.5 889.8594 183.54688Q889.65625 184.57812 888.7031 185.35938Q887.7656 186.125 885.96875 186.125Q884.8594 186.125 883.4219 185.98438L883.4219 183.34375L884.8125 183.34375Q885.7969 183.34375 886.21875 183.14062Q886.6406 182.9375 886.78125 182.5Q886.9219 182.0625 886.9219 179.64062L886.9219 167.32812ZM907.9219 167.32812L922.6094 167.32812L922.6094 186.0L919.46875 186.0L919.46875 169.95312L911.0781 169.95312L911.0781 179.25Q911.0781 182.5 910.8594 183.54688Q910.65625 184.57812 909.7031 185.35938Q908.7656 186.125 906.96875 186.125Q905.8594 186.125 904.4219 185.98438L904.4219 183.34375L905.8125 183.34375Q906.7969 183.34375 907.21875 183.14062Q907.6406 182.9375 907.78125 182.5Q907.9219 182.0625 907.9219 179.64062L907.9219 167.32812ZM927.375 167.32812L930.53125 167.32812L930.53125 181.5625L939.3125 167.32812L942.71875 167.32812L942.71875 186.0L939.5625 186.0L939.5625 171.84375L930.78125 186.0L927.375 186.0L927.375 167.32812ZM947.4219 167.32812L950.59375 167.32812L950.59375 183.39062L959.34375 183.39062L959.34375 167.32812L962.5156 167.32812L962.5156 183.39062L964.5469 183.39062L964.5469 191.29688L961.9531 191.29688L961.9531 186.0L947.4219 186.0L947.4219 167.32812ZM980.5625 183.70312Q978.7969 185.1875 977.1719 185.8125Q975.5469 186.42188 973.6875 186.42188Q970.6094 186.42188 968.9531 184.92188Q967.2969 183.42188 967.2969 181.07812Q967.2969 179.70312 967.9219 178.57812Q968.5469 177.4375 969.5625 176.75Q970.5781 176.0625 971.84375 175.71875Q972.7656 175.46875 974.65625 175.23438Q978.4844 174.78125 980.2969 174.15625Q980.3125 173.5 980.3125 173.32812Q980.3125 171.39062 979.40625 170.59375Q978.2031 169.53125 975.8125 169.53125Q973.5781 169.53125 972.5156 170.3125Q971.4531 171.09375 970.9375 173.07812L967.84375 172.65625Q968.2656 170.67188 969.2344 169.45312Q970.2031 168.23438 972.03125 167.57812Q973.8594 166.90625 976.2656 166.90625Q978.65625 166.90625 980.1406 167.46875Q981.6406 168.03125 982.34375 168.89062Q983.0469 169.73438 983.3281 171.04688Q983.4844 171.84375 983.4844 173.95312L983.4844 178.17188Q983.4844 182.59375 983.6875 183.76562Q983.8906 184.92188 984.5 186.0L981.1875 186.0Q980.7031 185.01562 980.5625 183.70312ZM980.2969 176.625Q978.5625 177.32812 975.125 177.82812Q973.1719 178.10938 972.3594 178.46875Q971.5625 178.8125 971.1094 179.48438Q970.6719 180.15625 970.6719 180.98438Q970.6719 182.25 971.625 183.09375Q972.59375 183.9375 974.4375 183.9375Q976.2656 183.9375 977.6875 183.14062Q979.1094 182.34375 979.78125 180.95312Q980.2969 179.875 980.2969 177.79688L980.2969 176.625Z" fill-rule="nonzero"/><path fill="#ff6d01" d="M794.0 224.5C794.0 227.8137 791.3137 230.5 788.0 230.5C784.6863 230.5 782.0 227.8137 782.0 224.5C782.0 221.1863 784.6863 218.5 788.0 218.5C791.3137 218.5 794.0 221.1863 794.0 224.5Z" fill-rule="nonzero"/><path fill="#1a1a1a" d="M824.7969 213.89062L824.7969 216.28125L820.1406 216.28125L820.1406 237.0L817.6875 237.0L817.6875 234.35938Q816.59375 232.8125 815.1094 231.6875Q813.625 230.5625 811.8281 229.76562Q810.0469 228.96875 808.0469 228.4375Q806.0625 227.90625 803.96875 227.5625Q804.40625 224.95312 806.0156 223.07812Q807.6406 221.20312 810.1094 220.28125Q812.96875 219.28125 817.6875 219.28125L817.6875 216.28125L802.0 216.28125L802.0 213.89062L824.7969 213.89062ZM817.6875 230.76562L817.6875 221.57812Q813.8906 221.57812 811.3594 222.4375Q808.125 223.51562 806.8281 225.95312Q808.375 226.1875 809.8906 226.60938Q811.4219 227.03125 812.8281 227.64062Q814.2344 228.23438 815.46875 229.03125Q816.7031 229.8125 817.6875 230.76562ZM833.9531 213.89062L833.9531 216.28125L832.28125 216.28125Q831.1719 216.32812 830.7344 217.0Q830.2969 217.65625 830.2969 218.59375L830.2969 238.70312L827.8594 238.70312L827.8594 220.875Q827.8594 220.01562 827.65625 219.20312Q827.4531 218.39062 827.0469 217.73438Q826.65625 217.07812 826.0625 216.6875Q825.46875 216.28125 824.6719 216.28125L823.0 216.28125L823.0 213.89062L824.6719 213.89062Q825.4375 213.89062 826.09375 214.10938Q826.7656 214.3125 827.2656 214.64062Q827.78125 214.95312 828.125 215.32812Q828.46875 215.6875 828.625 216.03125Q828.90625 215.15625 829.875 214.53125Q830.84375 213.89062 832.25 213.89062L833.9531 213.89062ZM841.5781 220.01562Q841.5781 220.79688 841.28125 221.46875Q840.9844 222.14062 840.4844 222.67188Q839.9844 223.1875 839.2969 223.5Q838.625 223.79688 837.8594 223.79688Q837.09375 223.79688 836.3906 223.5Q835.7031 223.20312 835.1875 222.70312Q834.6719 222.1875 834.375 221.5Q834.0781 220.79688 834.0781 220.01562Q834.0781 219.26562 834.375 218.57812Q834.6719 217.89062 835.1875 217.39062Q835.7031 216.875 836.3906 216.57812Q837.09375 216.28125 837.8594 216.28125Q838.625 216.28125 839.2969 216.57812Q839.9844 216.875 840.4844 217.39062Q840.9844 217.89062 841.28125 218.57812Q841.5781 219.26562 841.5781 220.01562ZM844.1719 237.0L841.3906 237.0Q840.9531 234.21875 838.8594 231.85938Q836.90625 229.60938 834.0781 228.625L834.0781 225.78125Q837.9531 226.76562 840.71875 229.92188Q843.34375 232.95312 844.1719 237.0ZM839.2656 220.0Q839.2656 219.42188 838.84375 219.0Q838.4375 218.5625 837.8594 218.5625Q837.25 218.5625 836.8125 219.0Q836.3906 219.42188 836.3906 220.0Q836.3906 220.57812 836.8125 221.01562Q837.25 221.4375 837.8594 221.4375Q838.4375 221.4375 838.84375 221.01562Q839.2656 220.57812 839.2656 220.0ZM868.7969 213.89062L868.7969 216.28125L864.1406 216.28125L864.1406 237.0L861.6875 237.0L861.6875 223.65625Q861.6875 222.75 861.1406 222.20312Q860.6094 221.64062 859.6875 221.64062Q857.75 221.64062 857.75 224.90625L855.28125 224.90625Q855.28125 223.0625 854.625 222.15625Q853.9844 221.25 852.8281 221.25Q852.1875 221.25 851.75 221.54688Q851.3125 221.84375 851.0469 222.32812Q850.78125 222.79688 850.65625 223.39062Q850.53125 223.96875 850.53125 224.53125Q850.53125 225.09375 850.65625 225.5Q850.78125 225.90625 851.03125 226.32812Q851.2969 226.15625 851.6094 226.04688Q851.9219 225.92188 852.2969 225.92188Q853.1875 225.92188 853.8125 226.5625Q854.4531 227.1875 854.4531 228.10938Q854.4531 229.01562 853.8125 229.65625Q853.1875 230.28125 852.2969 230.28125Q851.3281 230.28125 850.5469 229.76562Q849.78125 229.23438 849.21875 228.40625Q848.6719 227.5625 848.375 226.5625Q848.0781 225.5625 848.0781 224.57812Q848.0781 223.32812 848.4219 222.29688Q848.78125 221.26562 849.40625 220.51562Q850.0469 219.75 850.90625 219.34375Q851.7656 218.92188 852.8281 218.92188Q853.9531 218.92188 854.875 219.39062Q855.8125 219.84375 856.5 220.73438Q857.6719 219.3125 859.7969 219.3125Q860.75 219.3125 861.6875 219.71875L861.6875 216.28125L846.0 216.28125L846.0 213.89062L868.7969 213.89062ZM877.9531 213.89062L877.9531 216.28125L876.28125 216.28125Q875.1719 216.32812 874.7344 217.0Q874.2969 217.65625 874.2969 218.59375L874.2969 238.70312L871.8594 238.70312L871.8594 220.875Q871.8594 220.01562 871.65625 219.20312Q871.4531 218.39062 871.0469 217.73438Q870.65625 217.07812 870.0625 216.6875Q869.46875 216.28125 868.6719 216.28125L867.0 216.28125L867.0 213.89062L868.6719 213.89062Q869.4375 213.89062 870.09375 214.10938Q870.7656 214.3125 871.2656 214.64062Q871.78125 214.95312 872.125 215.32812Q872.46875 215.6875 872.625 216.03125Q872.90625 215.15625 873.875 214.53125Q874.84375 213.89062 876.25 213.89062L877.9531 213.89062Z" fill-rule="nonzero"/><path fill="#46bdc6" d="M794.0 275.5C794.0 278.81372 791.3137 281.5 788.0 281.5C784.6863 281.5 782.0 278.81372 782.0 275.5C782.0 272.18628 784.6863 269.5 788.0 269.5C791.3137 269.5 794.0 272.18628 794.0 275.5Z" fill-rule="nonzero"/><path fill="#1a1a1a" d="M804.3906 288.0Q808.46875 281.67188 811.5625 271.54688Q808.46875 271.96875 805.5156 272.25L805.2344 269.15625Q807.7656 269.15625 812.2656 268.73438Q813.53125 264.375 814.375 259.875L817.3281 260.85938Q819.0156 261.5625 817.1875 262.125Q816.34375 265.07812 815.5 268.45312Q817.1875 268.17188 819.0156 268.17188Q820.9844 268.17188 821.96875 269.15625Q823.65625 270.84375 823.65625 276.75Q823.65625 284.90625 821.2656 287.29688Q819.8594 288.70312 818.03125 288.70312Q815.3594 288.70312 812.6875 285.60938L814.5156 283.07812Q816.7656 285.32812 817.8906 285.32812Q818.59375 285.32812 819.15625 284.76562Q820.7031 283.21875 820.7031 276.1875Q820.7031 272.25 819.8594 271.40625Q819.4375 270.98438 818.1719 270.98438Q816.90625 270.98438 814.65625 271.26562Q811.7031 281.67188 807.625 289.125L804.3906 288.0ZM832.65625 280.96875Q830.125 271.82812 825.34375 267.32812L827.875 265.5Q833.6406 271.40625 835.75 279.70312L832.65625 280.96875ZM860.9219 272.10938Q862.46875 272.39062 861.2031 273.23438L861.2031 281.39062Q864.71875 282.51562 868.5156 284.48438L866.8281 287.15625Q863.7344 285.32812 861.2031 284.48438Q860.78125 287.4375 859.375 288.84375Q857.6875 290.53125 854.7344 290.53125Q850.7969 290.53125 849.25 288.98438Q847.84375 287.57812 847.84375 285.32812Q847.84375 283.5 849.25 282.09375Q851.0781 280.26562 854.59375 280.26562Q856.9844 280.26562 858.3906 280.6875L858.3906 272.10938L860.9219 272.10938ZM845.875 268.73438Q843.625 269.01562 840.25 269.01562L839.8281 266.0625Q843.34375 266.0625 846.8594 265.78125Q847.5625 263.25 848.5469 259.03125L851.0781 259.875Q852.4844 260.4375 851.0781 261.0L849.8125 265.5Q852.2031 265.21875 854.7344 264.51562L855.4375 267.46875Q851.5 268.3125 848.96875 268.45312Q846.71875 275.625 842.3594 284.0625L839.5469 282.65625Q843.90625 274.92188 845.875 268.73438ZM859.375 264.51562Q863.3125 265.78125 868.7969 267.89062L867.53125 270.84375Q861.625 268.3125 858.25 267.32812L859.375 264.51562ZM858.3906 283.35938Q856.7031 282.79688 854.59375 282.79688Q852.34375 282.79688 851.5 283.64062Q850.7969 284.34375 850.7969 285.32812Q850.7969 286.3125 851.3594 286.875Q852.2031 287.71875 854.3125 287.71875Q856.28125 287.71875 857.125 286.875Q858.3906 285.60938 858.3906 283.35938Z" fill-rule="nonzero"/><path fill="#ffff00" d="M794.0 326.5C794.0 329.81372 791.3137 332.5 788.0 332.5C784.6863 332.5 782.0 329.81372 782.0 326.5C782.0 323.18628 784.6863 320.5 788.0 320.5C791.3137 320.5 794.0 323.18628 794.0 326.5Z" fill-rule="nonzero"/><path fill="#1a1a1a" d="M825.3125 315.79688L825.3125 318.89062L820.28125 318.89062L820.28125 324.57812L821.5156 324.57812Q823.0469 324.57812 824.4219 325.03125Q825.8125 325.46875 826.8594 326.35938Q827.9219 327.23438 828.5469 328.59375Q829.1719 329.95312 829.1719 331.75Q829.1719 333.54688 829.125 335.1875Q829.0781 336.8125 828.7969 338.25Q828.5156 339.67188 827.9375 340.82812Q827.3594 341.98438 826.3281 342.8125Q825.3125 343.64062 823.7344 344.07812Q822.15625 344.53125 819.8906 344.53125L811.28125 344.53125Q810.1094 344.53125 809.2656 344.82812Q808.4219 345.125 807.8281 345.57812Q807.2344 346.04688 806.875 346.65625Q806.5156 347.28125 806.3125 347.92188Q806.125 348.5625 806.0469 349.1875Q805.9844 349.8125 805.9844 350.32812L802.1875 350.32812Q802.1875 349.5 802.34375 348.51562Q802.5156 347.53125 802.90625 346.54688Q803.2969 345.5625 803.9844 344.64062Q804.6875 343.71875 805.7656 343.0Q806.8594 342.28125 808.3594 341.85938Q809.875 341.4375 811.9219 341.4375L819.6719 341.4375Q821.0781 341.4375 822.03125 341.17188Q823.0 340.92188 823.6406 340.375Q824.2969 339.84375 824.625 339.01562Q824.96875 338.1875 825.1406 337.07812Q825.3125 335.95312 825.34375 334.53125Q825.375 333.10938 825.375 331.375Q825.375 330.26562 824.9844 329.5625Q824.6094 328.84375 823.9219 328.4375Q823.2344 328.01562 822.2969 327.84375Q821.375 327.67188 820.28125 327.67188L820.28125 330.5625Q820.28125 332.25 819.8906 333.78125Q819.5156 335.3125 818.5781 336.46875Q817.65625 337.625 816.125 338.3125Q814.59375 339.0 812.2656 339.0Q811.1719 339.0 810.1406 338.64062Q809.1094 338.28125 808.1719 337.67188Q807.2344 337.04688 806.4375 336.21875Q805.65625 335.375 805.0781 334.45312Q804.5156 333.51562 804.1875 332.51562Q803.875 331.51562 803.875 330.54688Q803.875 329.53125 804.125 328.625Q804.375 327.70312 804.8906 326.96875Q805.4219 326.21875 806.2656 325.71875Q807.1094 325.21875 808.3281 325.04688L808.3281 315.79688L825.3125 315.79688ZM816.4844 327.67188L810.84375 327.67188Q810.2031 327.67188 809.625 327.79688Q809.0625 327.90625 808.6094 328.23438Q808.1719 328.54688 807.90625 329.10938Q807.6406 329.67188 807.6406 330.54688Q807.6406 331.5 808.1094 332.45312Q808.59375 333.40625 809.2969 334.17188Q810.0156 334.9375 810.84375 335.42188Q811.6719 335.90625 812.375 335.90625Q813.4375 335.90625 814.21875 335.48438Q815.0156 335.0625 815.5156 334.29688Q816.0156 333.51562 816.25 332.42188Q816.4844 331.32812 816.4844 330.0L816.4844 327.67188ZM816.4844 324.57812L816.4844 318.89062L812.125 318.89062L812.125 324.57812L816.4844 324.57812ZM834.8125 339.0L834.8125 315.79688L838.6094 315.79688L838.6094 335.90625L847.5 335.90625L847.5 322.46875Q847.5 321.17188 847.7969 319.89062Q848.1094 318.59375 848.875 317.5625Q849.65625 316.51562 851.0 315.875Q852.3594 315.23438 854.46875 315.23438Q856.125 315.23438 857.46875 315.92188Q858.8125 316.59375 859.8594 317.73438Q860.9219 318.85938 861.6875 320.32812Q862.46875 321.79688 862.96875 323.375Q863.46875 324.95312 863.7031 326.54688Q863.9531 328.14062 863.9531 329.5L863.9531 333.57812Q863.9531 335.3125 863.5 336.375Q863.0469 337.4375 862.1719 338.01562Q861.2969 338.59375 860.0469 338.79688Q858.7969 339.0 857.1875 339.0L834.8125 339.0ZM851.2969 335.90625L857.2031 335.90625Q857.6406 335.90625 858.15625 335.85938Q858.6875 335.79688 859.125 335.5625Q859.5625 335.32812 859.8594 334.875Q860.15625 334.40625 860.15625 333.57812L860.15625 329.57812Q860.15625 328.45312 859.9844 327.1875Q859.8281 325.92188 859.5 324.67188Q859.1719 323.42188 858.7031 322.28125Q858.2344 321.125 857.6094 320.25Q856.9844 319.35938 856.21875 318.84375Q855.4531 318.32812 854.5781 318.32812Q853.59375 318.32812 852.9531 318.6875Q852.3281 319.04688 851.9531 319.64062Q851.5781 320.21875 851.4375 320.96875Q851.2969 321.71875 851.2969 322.46875L851.2969 335.90625ZM871.1875 339.0L867.3906 339.0L867.3906 320.92188Q867.3906 315.40625 865.9375 313.01562Q864.03125 309.875 858.875 309.875Q856.9844 309.875 855.3594 310.75Q853.4219 311.82812 853.4219 313.5625Q853.4219 314.5 853.9531 315.15625Q854.46875 315.79688 855.375 315.79688L855.375 318.89062Q852.8281 318.90625 851.2656 317.54688Q849.625 316.125 849.625 313.60938Q849.625 310.4375 852.90625 308.45312Q855.7031 306.76562 859.1094 306.76562Q864.34375 306.76562 867.7031 309.79688Q871.1875 312.96875 871.1875 318.14062L871.1875 339.0ZM853.5 317.34375L853.5 317.34375ZM876.8125 339.0L876.8125 315.79688L880.6094 315.79688L880.6094 335.90625L889.5 335.90625L889.5 322.46875Q889.5 321.17188 889.7969 319.89062Q890.1094 318.59375 890.875 317.5625Q891.65625 316.51562 893.0 315.875Q894.3594 315.23438 896.46875 315.23438Q898.125 315.23438 899.46875 315.92188Q900.8125 316.59375 901.8594 317.73438Q902.9219 318.85938 903.6875 320.32812Q904.46875 321.79688 904.96875 323.375Q905.46875 324.95312 905.7031 326.54688Q905.9531 328.14062 905.9531 329.5L905.9531 333.57812Q905.9531 335.3125 905.5 336.375Q905.0469 337.4375 904.1719 338.01562Q903.2969 338.59375 902.0469 338.79688Q900.7969 339.0 899.1875 339.0L893.2969 339.0Q893.4375 339.53125 893.75 340.03125Q894.0781 340.54688 894.5156 340.95312Q894.9531 341.35938 895.4844 341.59375Q896.0156 341.84375 896.5469 341.84375L902.375 341.84375L902.375 344.9375L898.90625 344.9375Q897.7344 344.9375 896.8125 345.28125Q895.90625 345.625 895.09375 346.17188Q894.2969 346.73438 893.5469 347.4375Q892.8125 348.14062 891.9844 348.85938Q891.1875 349.54688 890.2656 350.20312Q889.3594 350.85938 888.2031 351.375Q887.0469 351.89062 885.5781 352.1875Q884.125 352.5 882.25 352.5Q880.90625 352.5 879.8281 352.0625Q878.7656 351.64062 878.0 350.89062Q877.25 350.15625 876.84375 349.17188Q876.4375 348.1875 876.4375 347.10938Q876.4375 346.0 876.875 345.03125Q877.3281 344.07812 878.09375 343.375Q878.8594 342.67188 879.8906 342.26562Q880.9219 341.85938 882.125 341.85938L883.78125 341.85938L883.78125 345.0Q882.0 345.0 881.1094 345.54688Q880.2344 346.10938 880.2344 347.28125Q880.2344 347.70312 880.5 348.07812Q880.7656 348.46875 881.1719 348.76562Q881.59375 349.0625 882.125 349.23438Q882.65625 349.40625 883.1719 349.40625Q884.34375 349.40625 885.25 349.1875Q886.1719 348.98438 886.9219 348.625Q887.6719 348.26562 888.3125 347.78125Q888.9531 347.3125 889.5469 346.8125Q890.0469 346.35938 890.5469 345.89062Q891.0469 345.4375 891.5781 345.01562Q892.125 344.59375 892.7344 344.21875Q893.34375 343.85938 894.0625 343.57812Q893.25 343.57812 892.53125 343.23438Q891.8281 342.90625 891.2344 342.29688Q890.6406 341.6875 890.2031 340.84375Q889.7656 340.01562 889.5 339.0L876.8125 339.0ZM893.2969 335.90625L899.2031 335.90625Q899.6406 335.90625 900.15625 335.85938Q900.6875 335.79688 901.125 335.5625Q901.5625 335.32812 901.8594 334.875Q902.15625 334.40625 902.15625 333.57812L902.15625 329.57812Q902.15625 328.45312 901.9844 327.1875Q901.8281 325.92188 901.5 324.67188Q901.1719 323.42188 900.7031 322.28125Q900.2344 321.125 899.6094 320.25Q898.9844 319.35938 898.21875 318.84375Q897.4531 318.32812 896.5781 318.32812Q895.59375 318.32812 894.9531 318.6875Q894.3281 319.04688 893.9531 319.64062Q893.5781 320.21875 893.4375 320.96875Q893.2969 321.71875 893.2969 322.46875L893.2969 335.90625ZM885.875 309.78125Q885.875 308.60938 886.7031 307.78125Q887.5469 306.9375 888.71875 306.9375Q889.9219 306.9375 890.75 307.78125Q891.5781 308.60938 891.5781 309.78125Q891.5781 310.98438 890.75 311.8125Q889.9219 312.625 888.71875 312.625Q887.5469 312.625 886.7031 311.8125Q885.875 310.98438 885.875 309.78125Z" fill-rule="nonzero"/><path fill="#f07b72" d="M794.0 377.5C794.0 380.81372 791.3137 383.5 788.0 383.5C784.6863 383.5 782.0 380.81372 782.0 377.5C782.0 374.18628 784.6863 371.5 788.0 371.5C791.3137 371.5 794.0 374.18628 794.0 377.5Z" fill-rule="nonzero"/><path fill="#1a1a1a" d="M819.6875 363.03125L810.46875 363.03125Q809.4844 363.03125 809.4844 363.90625Q809.4844 364.82812 810.46875 364.82812L819.75 364.82812Q820.7031 364.82812 820.6719 363.90625Q820.6719 363.03125 819.6875 363.03125ZM823.40625 367.42188L806.6719 367.42188Q805.6875 367.42188 805.6875 368.3125Q805.6875 369.1875 806.6719 369.1875L823.4844 369.1875Q823.9375 369.1875 824.21875 368.90625Q824.46875 368.65625 824.46875 368.3125Q824.46875 367.92188 824.1875 367.67188Q823.90625 367.42188 823.40625 367.42188ZM815.1875 371.26562Q811.21875 371.26562 808.96875 372.73438Q806.8906 374.14062 806.8906 376.25Q806.8906 378.29688 808.96875 379.625Q811.21875 381.14062 815.1875 381.14062Q819.0469 381.14062 821.34375 379.625Q823.40625 378.29688 823.40625 376.25Q823.40625 374.14062 821.34375 372.73438Q819.0469 371.26562 815.1875 371.26562ZM815.1875 373.04688Q818.1406 373.04688 819.7969 373.96875Q821.34375 374.8125 821.34375 376.25Q821.34375 377.59375 819.7969 378.4375Q818.1406 379.34375 815.1875 379.34375Q812.2031 379.34375 810.5156 378.4375Q808.96875 377.59375 808.96875 376.25Q808.96875 374.84375 810.5156 373.96875Q812.2031 373.04688 815.1875 373.04688ZM830.2969 372.98438L830.2969 363.3125Q830.2969 362.35938 829.25 362.35938Q828.2344 362.35938 828.2344 363.3125L828.2344 382.79688Q828.2344 383.28125 828.5469 383.5625Q828.8281 383.84375 829.25 383.84375Q829.6719 383.84375 829.9531 383.5625Q830.2969 383.28125 830.2969 382.79688L830.2969 374.78125L834.1406 374.78125Q835.0469 374.78125 835.0469 373.85938Q835.0469 372.98438 834.1406 372.98438L830.2969 372.98438ZM810.6875 383.59375Q810.6875 383.10938 810.3281 382.82812Q810.0469 382.54688 809.625 382.54688Q809.2031 382.54688 808.9219 382.82812Q808.6094 383.10938 808.6094 383.59375L808.6094 387.8125Q808.6094 389.1875 809.4531 390.07812Q810.2969 390.95312 811.7344 390.95312L830.9375 390.95312Q831.84375 390.95312 831.84375 390.03125Q831.84375 389.15625 830.9375 389.15625L812.375 389.15625Q811.3906 389.15625 811.03125 388.84375Q810.6875 388.48438 810.6875 387.53125L810.6875 383.59375ZM863.9531 362.92188L844.6406 362.92188Q843.7031 362.92188 843.7031 363.84375Q843.7031 364.75 844.6406 364.75L863.625 364.75Q864.6094 364.75 865.1719 365.21875Q865.78125 365.70312 865.78125 366.54688L865.78125 367.98438Q865.78125 369.5 865.4219 370.84375Q864.9375 372.625 863.7344 374.5625L865.84375 374.5625Q866.8594 372.8125 867.4219 370.9375Q867.8906 369.35938 867.8906 368.0625L867.8906 366.375Q867.8906 364.71875 866.7969 363.8125Q865.7344 362.92188 863.9531 362.92188ZM869.6406 373.85938L842.25 373.85938Q841.2656 373.85938 841.3125 374.78125Q841.3125 375.6875 842.25 375.6875L869.6406 375.6875Q870.65625 375.6875 870.7031 374.78125Q870.7031 373.85938 869.6406 373.85938ZM864.65625 379.45312L845.1406 379.45312Q844.0781 379.45312 844.0469 380.32812Q844.0469 381.25 845.1094 381.25L864.40625 381.25Q865.1406 381.25 865.4531 381.53125Q865.78125 381.76562 865.78125 382.375L865.78125 383.5625Q865.78125 384.01562 865.4219 384.23438Q865.1094 384.4375 864.46875 384.4375L846.8281 384.4375Q845.53125 384.4375 844.8281 385.14062Q844.125 385.8125 844.125 387.01562L844.125 389.01562Q844.125 390.10938 844.78125 390.73438Q845.4531 391.40625 846.65625 391.40625L867.3281 391.40625Q867.78125 391.40625 868.03125 391.125Q868.2656 390.84375 868.2656 390.5Q868.2344 390.14062 867.9844 389.85938Q867.6719 389.60938 867.1875 389.60938L847.4219 389.60938Q846.7969 389.60938 846.5156 389.40625Q846.2344 389.1875 846.2344 388.65625L846.2344 387.32812Q846.2344 386.76562 846.46875 386.48438Q846.75 386.20312 847.4531 386.20312L865.28125 386.20312Q866.40625 386.20312 867.1406 385.5Q867.8906 384.82812 867.8906 383.8125L867.8906 381.84375Q867.8906 380.75 866.90625 380.07812Q865.9844 379.45312 864.65625 379.45312Z" fill-rule="nonzero"/><path fill="#9900ff" d="M794.0 428.5C794.0 431.81372 791.3137 434.5 788.0 434.5C784.6863 434.5 782.0 431.81372 782.0 428.5C782.0 425.18628 784.6863 422.5 788.0 422.5C791.3137 422.5 794.0 425.18628 794.0 428.5Z" fill-rule="nonzero"/><path fill="#1a1a1a" d="M823.90625 420.60938L816.65625 420.60938L816.65625 427.5L812.8281 427.5Q809.46875 427.5 808.03125 428.34375Q805.96875 429.51562 805.96875 432.85938Q805.96875 434.73438 807.21875 436.03125Q808.46875 437.32812 810.2656 437.32812Q811.7969 437.32812 813.3281 436.48438Q814.96875 435.5625 814.96875 434.45312Q814.96875 434.21875 814.65625 433.01562L817.71875 432.29688L820.6406 443.4375L817.59375 444.23438L815.8906 437.8125Q814.25 440.26562 810.1875 440.26562Q806.9531 440.26562 804.875 438.125Q802.7969 435.96875 802.7969 432.71875Q802.7969 428.79688 805.1094 426.64062Q807.5 424.42188 811.9531 424.42188L813.5625 424.42188L813.5625 420.60938L801.96875 420.60938L801.96875 417.79688L823.90625 417.79688L823.90625 420.60938ZM815.1094 419.07812L815.1094 419.07812ZM812.34375 419.07812L812.34375 419.07812ZM812.34375 439.48438L812.34375 439.48438ZM818.6406 442.125L818.6406 442.125ZM817.1699 418.375L815.31055 420.23438L805.6699 410.17188L807.7793 408.04688L817.1699 418.375ZM815.1074 419.07812L815.1074 419.07812ZM845.8125 420.60938L840.4531 420.60938L840.4531 441.0L837.3594 441.0L837.3594 435.75Q836.625 436.3125 835.875 436.6875Q835.1406 437.04688 834.3906 437.26562Q833.6406 437.48438 832.875 437.57812Q832.1094 437.65625 831.3281 437.65625Q829.90625 437.65625 828.65625 437.10938Q827.40625 436.5625 826.4844 435.625Q825.5781 434.6875 825.0469 433.4375Q824.53125 432.17188 824.53125 430.73438Q824.53125 429.25 825.1094 428.03125Q825.6875 426.8125 826.7031 425.9375Q827.7344 425.0625 829.125 424.57812Q830.53125 424.09375 832.15625 424.09375Q833.0625 424.09375 833.84375 424.23438Q834.625 424.375 835.28125 424.57812Q835.9375 424.78125 836.46875 425.01562Q837.0 425.23438 837.3594 425.42188L837.3594 420.60938L822.96875 420.60938L822.96875 417.79688L845.8125 417.79688L845.8125 420.60938ZM837.3594 428.1875Q836.8906 427.92188 836.2656 427.65625Q835.65625 427.39062 834.96875 427.17188Q834.2969 426.9375 833.59375 426.79688Q832.8906 426.65625 832.2656 426.65625Q830.5625 426.65625 829.5781 427.14062Q828.59375 427.60938 828.09375 428.28125Q827.59375 428.9375 827.4531 429.65625Q827.3281 430.375 827.3281 430.89062Q827.3281 431.75 827.65625 432.5Q828.0 433.25 828.5781 433.8125Q829.15625 434.35938 829.9375 434.67188Q830.7344 434.98438 831.625 434.98438Q832.8125 434.98438 833.78125 434.67188Q834.7656 434.34375 835.5 433.90625Q836.2344 433.46875 836.7031 433.04688Q837.1875 432.60938 837.3594 432.40625L837.3594 428.1875ZM870.625 420.60938L865.2656 420.60938L865.2656 441.0L862.1719 441.0L862.1719 429.76562L853.8594 429.76562Q854.2969 430.28125 854.6094 430.9375Q854.9375 431.57812 854.9375 432.53125Q854.9375 437.92188 850.375 437.92188Q849.2969 437.92188 848.3906 437.51562Q847.4844 437.10938 846.84375 436.40625Q846.2031 435.6875 845.84375 434.71875Q845.5 433.73438 845.5 432.59375Q845.5 426.95312 851.7031 426.95312L862.1719 426.95312L862.1719 420.60938L845.0 420.60938L845.0 417.79688L870.625 417.79688L870.625 420.60938ZM848.34375 432.71875Q848.34375 435.15625 850.375 435.15625Q852.21875 435.15625 852.21875 432.53125Q852.21875 432.0625 852.09375 431.67188Q851.9844 431.28125 851.7656 430.95312Q851.5625 430.60938 851.2969 430.34375Q851.0469 430.07812 850.78125 429.90625Q849.40625 430.15625 848.875 430.82812Q848.34375 431.48438 848.34375 432.71875ZM866.7969 419.07812L866.7969 419.07812ZM879.625 420.60938L874.25 420.60938L874.25 441.0L871.15625 441.0L871.15625 420.60938L868.96875 420.60938L868.96875 417.79688L879.625 417.79688L879.625 420.60938ZM866.7969 439.48438L866.7969 439.48438ZM872.4844 419.07812L872.4844 419.07812ZM904.3281 420.60938L898.9531 420.60938L898.9531 441.0L895.8594 441.0L895.8594 420.60938L889.84375 420.60938L889.84375 429.85938Q889.84375 433.0 888.5625 434.59375Q887.2969 436.1875 884.4844 436.1875Q883.4531 436.1875 882.6094 435.84375Q881.78125 435.48438 881.1719 434.84375Q880.5781 434.20312 880.25 433.29688Q879.9375 432.39062 879.9375 431.26562Q879.9375 430.32812 880.2969 429.53125Q880.6719 428.71875 881.3125 428.125Q881.96875 427.51562 882.84375 427.17188Q883.71875 426.82812 884.71875 426.82812Q885.21875 426.82812 885.7344 426.90625Q886.25 426.98438 886.75 427.125L886.75 420.60938L878.0 420.60938L878.0 417.79688L904.3281 417.79688L904.3281 420.60938ZM886.75 429.71875Q886.2656 429.53125 885.7656 429.4375Q885.28125 429.32812 884.71875 429.32812Q884.2969 429.32812 883.90625 429.48438Q883.5156 429.64062 883.21875 429.90625Q882.9375 430.17188 882.7656 430.53125Q882.6094 430.875 882.6094 431.26562Q882.6094 431.6875 882.75 432.04688Q882.90625 432.40625 883.1719 432.67188Q883.4375 432.9375 883.78125 433.09375Q884.125 433.23438 884.4844 433.23438Q885.1094 433.23438 885.53125 433.07812Q885.96875 432.90625 886.2344 432.51562Q886.5156 432.10938 886.625 431.4375Q886.75 430.75 886.75 429.71875ZM921.1094 420.60938L913.90625 420.60938L913.90625 425.78125Q913.90625 428.76562 913.4219 430.1875Q912.59375 432.65625 910.21875 432.65625L917.3125 440.95312L914.9219 442.96875L903.65625 429.8125L906.0625 427.8125L907.96875 430.0625Q908.1094 430.21875 908.53125 430.21875Q910.8125 430.21875 910.8125 426.625L910.8125 420.60938L902.96875 420.60938L902.96875 417.79688L921.1094 417.79688L921.1094 420.60938ZM911.4375 439.48438L911.4375 439.48438ZM912.3594 419.07812L912.3594 419.07812ZM911.4375 419.07812L911.4375 419.07812ZM913.9219 413.3125L913.9219 413.3125ZM930.625 420.60938L925.28125 420.60938L925.28125 441.0L922.1875 441.0L922.1875 420.60938L919.96875 420.60938L919.96875 417.79688L920.84375 417.79688Q918.8906 414.82812 917.9375 413.75Q915.8125 411.34375 913.90625 411.34375Q911.09375 411.34375 911.09375 413.625Q911.09375 415.32812 913.4531 418.8125L911.125 420.25Q908.0781 416.3125 908.0781 413.53125Q908.0781 411.1875 909.6875 409.76562Q911.2031 408.40625 913.5625 408.40625Q917.0625 408.40625 920.03125 411.64062Q921.125 412.84375 924.3281 417.79688L930.625 417.79688L930.625 420.60938ZM913.9219 439.48438L913.9219 439.48438ZM923.4844 415.5625L923.4844 415.5625Z" fill-rule="nonzero"/><path fill="#71c287" d="M794.0 479.5C794.0 482.81372 791.3137 485.5 788.0 485.5C784.6863 485.5 782.0 482.81372 782.0 479.5C782.0 476.18628 784.6863 473.5 788.0 473.5C791.3137 473.5 794.0 476.18628 794.0 479.5Z" fill-rule="nonzero"/><path fill="#1a1a1a" d="M803.7344 479.45312Q803.7344 473.03125 807.1719 469.40625Q810.625 465.76562 816.0781 465.76562Q819.65625 465.76562 822.5156 467.48438Q825.375 469.1875 826.875 472.23438Q828.3906 475.28125 828.3906 479.15625Q828.3906 483.0625 826.7969 486.15625Q825.21875 489.25 822.3125 490.84375Q819.4219 492.4375 816.0625 492.4375Q812.4219 492.4375 809.5469 490.6875Q806.6875 488.92188 805.2031 485.89062Q803.7344 482.84375 803.7344 479.45312ZM807.25 479.5Q807.25 484.15625 809.75 486.84375Q812.2656 489.51562 816.0469 489.51562Q819.8906 489.51562 822.375 486.8125Q824.875 484.10938 824.875 479.125Q824.875 475.98438 823.8125 473.64062Q822.75 471.29688 820.6875 470.0Q818.6406 468.70312 816.09375 468.70312Q812.4844 468.70312 809.8594 471.20312Q807.25 473.6875 807.25 479.5ZM839.28125 489.17188L839.7344 491.96875Q838.40625 492.25 837.34375 492.25Q835.625 492.25 834.6719 491.70312Q833.7344 491.15625 833.34375 490.26562Q832.9531 489.375 832.9531 486.53125L832.9531 475.79688L830.6406 475.79688L830.6406 473.32812L832.9531 473.32812L832.9531 468.70312L836.09375 466.8125L836.09375 473.32812L839.28125 473.32812L839.28125 475.79688L836.09375 475.79688L836.09375 486.70312Q836.09375 488.0625 836.2656 488.45312Q836.4375 488.82812 836.8125 489.0625Q837.1875 489.29688 837.8906 489.29688Q838.4219 489.29688 839.28125 489.17188ZM842.375 492.0L842.375 466.23438L845.53125 466.23438L845.53125 475.46875Q847.75 472.90625 851.125 472.90625Q853.2031 472.90625 854.7344 473.73438Q856.2656 474.54688 856.9219 475.98438Q857.5781 477.42188 857.5781 480.17188L857.5781 492.0L854.4219 492.0L854.4219 480.17188Q854.4219 477.79688 853.3906 476.71875Q852.3594 475.64062 850.4844 475.64062Q849.0781 475.64062 847.8281 476.375Q846.59375 477.09375 846.0625 478.34375Q845.53125 479.59375 845.53125 481.78125L845.53125 492.0L842.375 492.0ZM875.15625 485.98438L878.4219 486.39062Q877.65625 489.25 875.5625 490.84375Q873.46875 492.42188 870.21875 492.42188Q866.125 492.42188 863.71875 489.90625Q861.3125 487.375 861.3125 482.82812Q861.3125 478.10938 863.7344 475.51562Q866.1719 472.90625 870.03125 472.90625Q873.78125 472.90625 876.15625 475.45312Q878.53125 478.0 878.53125 482.625Q878.53125 482.90625 878.5156 483.46875L864.59375 483.46875Q864.7656 486.54688 866.3281 488.1875Q867.8906 489.8125 870.2344 489.8125Q871.96875 489.8125 873.2031 488.90625Q874.4375 487.98438 875.15625 485.98438ZM864.7656 480.875L875.1875 480.875Q874.9844 478.51562 874.0 477.34375Q872.4844 475.51562 870.0781 475.51562Q867.8906 475.51562 866.40625 476.96875Q864.9219 478.42188 864.7656 480.875ZM882.34375 492.0L882.34375 473.32812L885.1875 473.32812L885.1875 476.15625Q886.28125 474.17188 887.2031 473.54688Q888.125 472.90625 889.2344 472.90625Q890.8281 472.90625 892.4844 473.92188L891.3906 476.85938Q890.2344 476.17188 889.0781 476.17188Q888.03125 476.17188 887.2031 476.79688Q886.375 477.42188 886.03125 478.53125Q885.5 480.21875 885.5 482.21875L885.5 492.0L882.34375 492.0Z" fill-rule="nonzero"/></svg>