<svg version="1.1" viewBox="0.0 0.0 1023.0 632.0" fill="none" stroke="none" stroke-linecap="square" stroke-miterlimit="10" width="1023" height="632" xmlns:xlink="http://www.w3.org/1999/xlink" xmlns="http://www.w3.org/2000/svg"><path fill="#ffffff" d="M0 0L1023.0 0L1023.0 632.0L0 632.0L0 0Z" fill-rule="nonzero"/><path stroke="#cccccc" stroke-width="1.0" stroke-linecap="butt" d="M92.5 46.5L92.5 566.5" fill-rule="nonzero"/><path stroke="#cccccc" stroke-width="1.0" stroke-linecap="butt" d="M388.5 46.5L388.5 566.5" fill-rule="nonzero"/><path stroke="#cccccc" stroke-width="1.0" stroke-linecap="butt" d="M685.5 46.5L685.5 566.5" fill-rule="nonzero"/><path stroke="#cccccc" stroke-width="1.0" stroke-linecap="butt" d="M981.5 46.5L981.5 566.5" fill-rule="nonzero"/><path stroke="#333333" stroke-width="1.0" stroke-linecap="butt" d="M82.5 566.5L991.5 566.5" fill-rule="nonzero"/><path stroke="#cccccc" stroke-width="1.0" stroke-linecap="butt" d="M82.5 436.5L991.5 436.5" fill-rule="nonzero"/><path stroke="#cccccc" stroke-width="1.0" stroke-linecap="butt" d="M82.5 306.5L991.5 306.5" fill-rule="nonzero"/><path stroke="#cccccc" stroke-width="1.0" stroke-linecap="butt" d="M82.5 176.5L991.5 176.5" fill-rule="nonzero"/><path stroke="#cccccc" stroke-width="1.0" stroke-linecap="butt" d="M82.5 46.5L991.5 46.5" fill-rule="nonzero"/><path stroke="#eeeeee" stroke-width="1.0" stroke-linecap="butt" d="M92.38467 524.385L92.38467 540.385" fill-rule="nonzero"/><path stroke="#eeeeee" stroke-width="1.0" stroke-linecap="butt" d="M270.2308 498.37L270.2308 514.37" fill-rule="nonzero"/><path stroke="#eeeeee" stroke-width="1.0" stroke-linecap="butt" d="M448.07693 472.355L448.07693 488.355" fill-rule="nonzero"/><path stroke="#eeeeee" stroke-width="1.0" stroke-linecap="butt" d="M566.64105 446.34L566.64105 462.34" fill-rule="nonzero"/><path stroke="#eeeeee" stroke-width="1.0" stroke-linecap="butt" d="M803.7692 342.28L803.7692 358.28" fill-rule="nonzero"/><path stroke="#eeeeee" stroke-width="1.0" stroke-linecap="butt" d="M863.0513 238.22L863.0513 254.22" fill-rule="nonzero"/><path stroke="#eeeeee" stroke-width="1.0" stroke-linecap="butt" d="M981.61536 134.16L981.61536 150.16" fill-rule="nonzero"/><clipPath id="id_0"><path d="M82.6 46.1L991.4 46.1L991.4 566.4L82.6 566.4L82.6 46.1Z" clip-rule="nonzero"/></clipPath><path fill="#4285f4" clip-path="url(#id_0)" d="M98.38467 540.385C98.38467 543.6987 95.69838 546.385 92.38467 546.385C89.07096 546.385 86.38467 543.6987 86.38467 540.385C86.38467 537.0713 89.07096 534.385 92.38467 534.385C95.69838 534.385 98.38467 537.0713 98.38467 540.385Z" fill-rule="nonzero"/><path fill="#4285f4" clip-path="url(#id_0)" d="M276.2308 514.37C276.2308 517.6837 273.5445 520.37 270.2308 520.37C266.91708 520.37 264.2308 517.6837 264.2308 514.37C264.2308 511.0563 266.91708 508.37 270.2308 508.37C273.5445 508.37 276.2308 511.0563 276.2308 514.37Z" fill-rule="nonzero"/><path fill="#4285f4" clip-path="url(#id_0)" d="M454.07693 488.355C454.07693 491.6687 451.39066 494.355 448.07693 494.355C444.7632 494.355 442.07693 491.6687 442.07693 488.355C442.07693 485.0413 444.7632 482.355 448.07693 482.355C451.39066 482.355 454.07693 485.0413 454.07693 488.355Z" fill-rule="nonzero"/><path fill="#4285f4" clip-path="url(#id_0)" d="M572.64105 462.34C572.64105 465.65372 569.9547 468.34 566.64105 468.34C563.32733 468.34 560.64105 465.65372 560.64105 462.34C560.64105 459.0263 563.32733 456.34 566.64105 456.34C569.9547 456.34 572.64105 459.0263 572.64105 462.34Z" fill-rule="nonzero"/><path fill="#4285f4" clip-path="url(#id_0)" d="M809.7692 358.28C809.7692 361.59372 807.0829 364.28 803.7692 364.28C800.4555 364.28 797.7692 361.59372 797.7692 358.28C797.7692 354.96628 800.4555 352.28 803.7692 352.28C807.0829 352.28 809.7692 354.96628 809.7692 358.28Z" fill-rule="nonzero"/><path fill="#4285f4" clip-path="url(#id_0)" d="M869.0513 254.22C869.0513 257.53372 866.3649 260.22 863.0513 260.22C859.73755 260.22 857.0513 257.53372 857.0513 254.22C857.0513 250.9063 859.73755 248.22 863.0513 248.22C866.3649 248.22 869.0513 250.9063 869.0513 254.22Z" fill-rule="nonzero"/><path fill="#4285f4" clip-path="url(#id_0)" d="M987.61536 150.16C987.61536 153.47371 984.929 156.16 981.61536 156.16C978.30164 156.16 975.61536 153.47371 975.61536 150.16C975.61536 146.8463 978.30164 144.16 981.61536 144.16C984.929 144.16 987.61536 146.8463 987.61536 150.16Z" fill-rule="nonzero"/><path stroke="#ffffff" stroke-width="3.0" stroke-linejoin="round" stroke-linecap="round" d="M95.18154 522.385L89.58779 522.385L89.58779 521.60376L92.54092 518.3225Q93.19717 517.5725 93.44717 517.1194Q93.69717 516.65063 93.69717 516.15063Q93.69717 515.47876 93.29092 515.0569Q92.90029 514.6194 92.21279 514.6194Q91.41592 514.6194 90.96279 515.08813Q90.50967 515.54126 90.50967 516.3694L89.43154 516.3694Q89.43154 515.1819 90.18154 514.46313Q90.94717 513.72876 92.21279 513.72876Q93.41592 513.72876 94.10342 514.35376Q94.79092 514.97876 94.79092 516.02563Q94.79092 517.27563 93.18154 519.02563L90.90029 521.4944L95.18154 521.4944L95.18154 522.385Z" fill-rule="nonzero"/><path fill="#4285f4" d="M95.18154 522.385L89.58779 522.385L89.58779 521.60376L92.54092 518.3225Q93.19717 517.5725 93.44717 517.1194Q93.69717 516.65063 93.69717 516.15063Q93.69717 515.47876 93.29092 515.0569Q92.90029 514.6194 92.21279 514.6194Q91.41592 514.6194 90.96279 515.08813Q90.50967 515.54126 90.50967 516.3694L89.43154 516.3694Q89.43154 515.1819 90.18154 514.46313Q90.94717 513.72876 92.21279 513.72876Q93.41592 513.72876 94.10342 514.35376Q94.79092 514.97876 94.79092 516.02563Q94.79092 517.27563 93.18154 519.02563L90.90029 521.4944L95.18154 521.4944L95.18154 522.385Z" fill-rule="nonzero"/><path stroke="#ffffff" stroke-width="3.0" stroke-linejoin="round" stroke-linecap="round" d="M272.01205 493.51062L273.19955 493.51062L273.19955 494.38562L272.01205 494.38562L272.01205 496.37L270.93393 496.37L270.93393 494.38562L267.0433 494.38562L267.0433 493.745L270.8558 487.83875L272.01205 487.83875L272.01205 493.51062ZM268.27768 493.51062L270.93393 493.51062L270.93393 489.32312L270.7933 489.5575L268.27768 493.51062Z" fill-rule="nonzero"/><path fill="#4285f4" d="M272.01205 493.51062L273.19955 493.51062L273.19955 494.38562L272.01205 494.38562L272.01205 496.37L270.93393 496.37L270.93393 494.38562L267.0433 494.38562L267.0433 493.745L270.8558 487.83875L272.01205 487.83875L272.01205 493.51062ZM268.27768 493.51062L270.93393 493.51062L270.93393 489.32312L270.7933 489.5575L268.27768 493.51062Z" fill-rule="nonzero"/><path stroke="#ffffff" stroke-width="3.0" stroke-linejoin="round" stroke-linecap="round" d="M449.5457 461.82376L449.5457 462.73L449.34256 462.73Q448.07693 462.76126 447.32693 463.49564Q446.57693 464.2144 446.45193 465.5269Q447.13943 464.76126 448.2957 464.76126Q449.40506 464.76126 450.07693 465.5425Q450.7488 466.32376 450.7488 467.57376Q450.7488 468.88626 450.03006 469.68314Q449.3113 470.48 448.09256 470.48Q446.8738 470.48 446.1082 469.5425Q445.3582 468.5894 445.3582 467.105L445.3582 466.69876Q445.3582 464.3394 446.3582 463.0894Q447.3582 461.8394 449.34256 461.82376L449.5457 461.82376ZM448.1238 465.6675Q447.5613 465.6675 447.09256 465.99564Q446.6238 466.32376 446.4363 466.8394L446.4363 467.23Q446.4363 468.2925 446.90506 468.93314Q447.38943 469.57376 448.09256 469.57376Q448.82693 469.57376 449.2488 469.0425Q449.6707 468.49564 449.6707 467.62064Q449.6707 466.74564 449.2488 466.2144Q448.82693 465.6675 448.1238 465.6675Z" fill-rule="nonzero"/><path fill="#4285f4" d="M449.5457 461.82376L449.5457 462.73L449.34256 462.73Q448.07693 462.76126 447.32693 463.49564Q446.57693 464.2144 446.45193 465.5269Q447.13943 464.76126 448.2957 464.76126Q449.40506 464.76126 450.07693 465.5425Q450.7488 466.32376 450.7488 467.57376Q450.7488 468.88626 450.03006 469.68314Q449.3113 470.48 448.09256 470.48Q446.8738 470.48 446.1082 469.5425Q445.3582 468.5894 445.3582 467.105L445.3582 466.69876Q445.3582 464.3394 446.3582 463.0894Q447.3582 461.8394 449.34256 461.82376L449.5457 461.82376ZM448.1238 465.6675Q447.5613 465.6675 447.09256 465.99564Q446.6238 466.32376 446.4363 466.8394L446.4363 467.23Q446.4363 468.2925 446.90506 468.93314Q447.38943 469.57376 448.09256 469.57376Q448.82693 469.57376 449.2488 469.0425Q449.6707 468.49564 449.6707 467.62064Q449.6707 466.74564 449.2488 466.2144Q448.82693 465.6675 448.1238 465.6675Z" fill-rule="nonzero"/><path stroke="#ffffff" stroke-width="3.0" stroke-linejoin="round" stroke-linecap="round" d="M569.0317 438.0275Q569.0317 438.66812 568.6879 439.16812Q568.3442 439.66812 567.7817 439.94937Q568.4379 440.23062 568.82855 440.79312Q569.2192 441.34 569.2192 442.04312Q569.2192 443.13687 568.4692 443.80875Q567.7348 444.465 566.51605 444.465Q565.2817 444.465 564.5317 443.80875Q563.7973 443.13687 563.7973 442.04312Q563.7973 441.34 564.1723 440.79312Q564.5473 440.23062 565.2192 439.94937Q564.6567 439.66812 564.32855 439.16812Q564.0004 438.66812 564.0004 438.0275Q564.0004 436.94937 564.6879 436.32437Q565.3754 435.68375 566.51605 435.68375Q567.64105 435.68375 568.32855 436.32437Q569.0317 436.94937 569.0317 438.0275ZM568.14105 442.01187Q568.14105 441.29312 567.6879 440.85562Q567.2348 440.4025 566.5004 440.4025Q565.76605 440.4025 565.3129 440.85562Q564.8754 441.29312 564.8754 442.0275Q564.8754 442.74625 565.3129 443.16812Q565.7504 443.57437 566.51605 443.57437Q567.26605 443.57437 567.70355 443.1525Q568.14105 442.73062 568.14105 442.01187ZM566.51605 436.57437Q565.8754 436.57437 565.4692 436.98062Q565.07855 437.37125 565.07855 438.05875Q565.07855 438.69937 565.4692 439.10562Q565.8598 439.51187 566.5004 439.51187Q567.1567 439.51187 567.5473 439.10562Q567.9379 438.69937 567.9379 438.05875Q567.9379 437.4025 567.5317 436.99625Q567.1254 436.57437 566.51605 436.57437Z" fill-rule="nonzero"/><path fill="#4285f4" d="M569.0317 438.0275Q569.0317 438.66812 568.6879 439.16812Q568.3442 439.66812 567.7817 439.94937Q568.4379 440.23062 568.82855 440.79312Q569.2192 441.34 569.2192 442.04312Q569.2192 443.13687 568.4692 443.80875Q567.7348 444.465 566.51605 444.465Q565.2817 444.465 564.5317 443.80875Q563.7973 443.13687 563.7973 442.04312Q563.7973 441.34 564.1723 440.79312Q564.5473 440.23062 565.2192 439.94937Q564.6567 439.66812 564.32855 439.16812Q564.0004 438.66812 564.0004 438.0275Q564.0004 436.94937 564.6879 436.32437Q565.3754 435.68375 566.51605 435.68375Q567.64105 435.68375 568.32855 436.32437Q569.0317 436.94937 569.0317 438.0275ZM568.14105 442.01187Q568.14105 441.29312 567.6879 440.85562Q567.2348 440.4025 566.5004 440.4025Q565.76605 440.4025 565.3129 440.85562Q564.8754 441.29312 564.8754 442.0275Q564.8754 442.74625 565.3129 443.16812Q565.7504 443.57437 566.51605 443.57437Q567.26605 443.57437 567.70355 443.1525Q568.14105 442.73062 568.14105 442.01187ZM566.51605 436.57437Q565.8754 436.57437 565.4692 436.98062Q565.07855 437.37125 565.07855 438.05875Q565.07855 438.69937 565.4692 439.10562Q565.8598 439.51187 566.5004 439.51187Q567.1567 439.51187 567.5473 439.10562Q567.9379 438.69937 567.9379 438.05875Q567.9379 437.4025 567.5317 436.99625Q567.1254 436.57437 566.51605 436.57437Z" fill-rule="nonzero"/><path stroke="#ffffff" stroke-width="3.0" stroke-linejoin="round" stroke-linecap="round" d="M801.03485 340.28L799.9567 340.28L799.9567 333.06125L797.7692 333.85812L797.7692 332.87375L800.8786 331.70187L801.03485 331.70187L801.03485 340.28ZM808.738 331.74875L808.738 332.655L808.53485 332.655Q807.2692 332.68625 806.5192 333.42062Q805.7692 334.13937 805.6442 335.45187Q806.3317 334.68625 807.488 334.68625Q808.59735 334.68625 809.2692 335.4675Q809.9411 336.24875 809.9411 337.49875Q809.9411 338.81125 809.22235 339.60812Q808.5036 340.405 807.28485 340.405Q806.0661 340.405 805.3005 339.4675Q804.5505 338.51437 804.5505 337.03L804.5505 336.62375Q804.5505 334.26437 805.5505 333.01437Q806.5505 331.76437 808.53485 331.74875L808.738 331.74875ZM807.3161 335.5925Q806.7536 335.5925 806.28485 335.92062Q805.8161 336.24875 805.6286 336.76437L805.6286 337.155Q805.6286 338.2175 806.09735 338.85812Q806.5817 339.49875 807.28485 339.49875Q808.0192 339.49875 808.4411 338.9675Q808.863 338.42062 808.863 337.54562Q808.863 336.67062 808.4411 336.13937Q808.0192 335.5925 807.3161 335.5925Z" fill-rule="nonzero"/><path fill="#4285f4" d="M801.03485 340.28L799.9567 340.28L799.9567 333.06125L797.7692 333.85812L797.7692 332.87375L800.8786 331.70187L801.03485 331.70187L801.03485 340.28ZM808.738 331.74875L808.738 332.655L808.53485 332.655Q807.2692 332.68625 806.5192 333.42062Q805.7692 334.13937 805.6442 335.45187Q806.3317 334.68625 807.488 334.68625Q808.59735 334.68625 809.2692 335.4675Q809.9411 336.24875 809.9411 337.49875Q809.9411 338.81125 809.22235 339.60812Q808.5036 340.405 807.28485 340.405Q806.0661 340.405 805.3005 339.4675Q804.5505 338.51437 804.5505 337.03L804.5505 336.62375Q804.5505 334.26437 805.5505 333.01437Q806.5505 331.76437 808.53485 331.74875L808.738 331.74875ZM807.3161 335.5925Q806.7536 335.5925 806.28485 335.92062Q805.8161 336.24875 805.6286 336.76437L805.6286 337.155Q805.6286 338.2175 806.09735 338.85812Q806.5817 339.49875 807.28485 339.49875Q808.0192 339.49875 808.4411 338.9675Q808.863 338.42062 808.863 337.54562Q808.863 336.67062 808.4411 336.13937Q808.0192 335.5925 807.3161 335.5925Z" fill-rule="nonzero"/><path stroke="#ffffff" stroke-width="3.0" stroke-linejoin="round" stroke-linecap="round" d="M862.34814 236.22L856.7544 236.22L856.7544 235.43875L859.7075 232.1575Q860.3638 231.4075 860.6138 230.95438Q860.8638 230.48563 860.8638 229.98563Q860.8638 229.31375 860.4575 228.89188Q860.0669 228.45438 859.3794 228.45438Q858.5825 228.45438 858.1294 228.92313Q857.6763 229.37625 857.6763 230.20438L856.59814 230.20438Q856.59814 229.01688 857.34814 228.29813Q858.1138 227.56375 859.3794 227.56375Q860.5825 227.56375 861.27 228.18875Q861.9575 228.81375 861.9575 229.86063Q861.9575 231.11063 860.34814 232.86063L858.0669 235.32938L862.34814 235.32938L862.34814 236.22ZM868.3325 233.36063L869.52 233.36063L869.52 234.23563L868.3325 234.23563L868.3325 236.22L867.2544 236.22L867.2544 234.23563L863.3638 234.23563L863.3638 233.595L867.1763 227.68875L868.3325 227.68875L868.3325 233.36063ZM864.59814 233.36063L867.2544 233.36063L867.2544 229.17313L867.1138 229.4075L864.59814 233.36063Z" fill-rule="nonzero"/><path fill="#4285f4" d="M862.34814 236.22L856.7544 236.22L856.7544 235.43875L859.7075 232.1575Q860.3638 231.4075 860.6138 230.95438Q860.8638 230.48563 860.8638 229.98563Q860.8638 229.31375 860.4575 228.89188Q860.0669 228.45438 859.3794 228.45438Q858.5825 228.45438 858.1294 228.92313Q857.6763 229.37625 857.6763 230.20438L856.59814 230.20438Q856.59814 229.01688 857.34814 228.29813Q858.1138 227.56375 859.3794 227.56375Q860.5825 227.56375 861.27 228.18875Q861.9575 228.81375 861.9575 229.86063Q861.9575 231.11063 860.34814 232.86063L858.0669 235.32938L862.34814 235.32938L862.34814 236.22ZM868.3325 233.36063L869.52 233.36063L869.52 234.23563L868.3325 234.23563L868.3325 236.22L867.2544 236.22L867.2544 234.23563L863.3638 234.23563L863.3638 233.595L867.1763 227.68875L868.3325 227.68875L868.3325 233.36063ZM864.59814 233.36063L867.2544 233.36063L867.2544 229.17313L867.1138 229.4075L864.59814 233.36063Z" fill-rule="nonzero"/><path stroke="#ffffff" stroke-width="3.0" stroke-linejoin="round" stroke-linecap="round" d="M976.8966 127.36313L977.7091 127.36313Q978.49036 127.3475 978.92786 126.95688Q979.36536 126.56625 979.36536 125.89438Q979.36536 124.39438 977.86536 124.39438Q977.16223 124.39438 976.74036 124.80063Q976.3341 125.20688 976.3341 125.86313L975.24036 125.86313Q975.24036 124.8475 975.97473 124.17563Q976.72473 123.50375 977.86536 123.50375Q979.0685 123.50375 979.756 124.14438Q980.4435 124.785 980.4435 125.92563Q980.4435 126.48813 980.0841 127.00375Q979.72473 127.51938 979.09973 127.785Q979.80286 128.00375 980.17786 128.51938Q980.5685 129.035 980.5685 129.785Q980.5685 130.92563 979.8185 131.61313Q979.0685 132.285 977.86536 132.285Q976.67786 132.285 975.91223 131.62875Q975.16223 130.9725 975.16223 129.91L976.256 129.91Q976.256 130.58188 976.6935 130.98813Q977.131 131.39438 977.881 131.39438Q978.66223 131.39438 979.0685 130.98813Q979.49036 130.56625 979.49036 129.80063Q979.49036 129.06625 979.03723 128.67563Q978.5841 128.26938 977.7091 128.25375L976.8966 128.25375L976.8966 127.36313ZM987.91223 132.16L982.3185 132.16L982.3185 131.37875L985.2716 128.0975Q985.92786 127.3475 986.17786 126.89438Q986.42786 126.42563 986.42786 125.92563Q986.42786 125.25375 986.0216 124.83188Q985.631 124.39438 984.9435 124.39438Q984.1466 124.39438 983.6935 124.86313Q983.24036 125.31625 983.24036 126.14438L982.16223 126.14438Q982.16223 124.95688 982.91223 124.23813Q983.67786 123.50375 984.9435 123.50375Q986.1466 123.50375 986.8341 124.12875Q987.5216 124.75375 987.5216 125.80063Q987.5216 127.05063 985.91223 128.80063L983.631 131.26938L987.91223 131.26938L987.91223 132.16Z" fill-rule="nonzero"/><path fill="#4285f4" d="M976.8966 127.36313L977.7091 127.36313Q978.49036 127.3475 978.92786 126.95688Q979.36536 126.56625 979.36536 125.89438Q979.36536 124.39438 977.86536 124.39438Q977.16223 124.39438 976.74036 124.80063Q976.3341 125.20688 976.3341 125.86313L975.24036 125.86313Q975.24036 124.8475 975.97473 124.17563Q976.72473 123.50375 977.86536 123.50375Q979.0685 123.50375 979.756 124.14438Q980.4435 124.785 980.4435 125.92563Q980.4435 126.48813 980.0841 127.00375Q979.72473 127.51938 979.09973 127.785Q979.80286 128.00375 980.17786 128.51938Q980.5685 129.035 980.5685 129.785Q980.5685 130.92563 979.8185 131.61313Q979.0685 132.285 977.86536 132.285Q976.67786 132.285 975.91223 131.62875Q975.16223 130.9725 975.16223 129.91L976.256 129.91Q976.256 130.58188 976.6935 130.98813Q977.131 131.39438 977.881 131.39438Q978.66223 131.39438 979.0685 130.98813Q979.49036 130.56625 979.49036 129.80063Q979.49036 129.06625 979.03723 128.67563Q978.5841 128.26938 977.7091 128.25375L976.8966 128.25375L976.8966 127.36313ZM987.91223 132.16L982.3185 132.16L982.3185 131.37875L985.2716 128.0975Q985.92786 127.3475 986.17786 126.89438Q986.42786 126.42563 986.42786 125.92563Q986.42786 125.25375 986.0216 124.83188Q985.631 124.39438 984.9435 124.39438Q984.1466 124.39438 983.6935 124.86313Q983.24036 125.31625 983.24036 126.14438L982.16223 126.14438Q982.16223 124.95688 982.91223 124.23813Q983.67786 123.50375 984.9435 123.50375Q986.1466 123.50375 986.8341 124.12875Q987.5216 124.75375 987.5216 125.80063Q987.5216 127.05063 985.91223 128.80063L983.631 131.26938L987.91223 131.26938L987.91223 132.16Z" fill-rule="nonzero"/><path fill="#757575" d="M69.725 567.6188Q69.725 571.4313 68.4125 573.29065Q67.11562 575.1344 64.35 575.1344Q61.615623 575.1344 60.303123 573.3219Q58.990623 571.5094 58.94375 567.91565L58.94375 565.025Q58.94375 561.2594 60.240623 559.4313Q61.553123 557.60315 64.33437 557.60315Q67.08437 557.60315 68.38125 559.3688Q69.67812 561.1344 69.725 564.8063L69.725 567.6188ZM67.55312 564.65Q67.55312 561.9 66.77187 560.65Q66.00625 559.3844 64.33437 559.3844Q62.6625 559.3844 61.896873 560.6344Q61.146873 561.8844 61.115623 564.4938L61.115623 567.9625Q61.115623 570.72815 61.9125 572.0563Q62.725 573.3688 64.35 573.3688Q65.95937 573.3688 66.74062 572.1344Q67.52187 570.8844 67.55312 568.2125L67.55312 564.65Z" fill-rule="nonzero"/><path fill="#757575" d="M53.146873 444.825L50.959373 444.825L50.959373 430.3719L46.6 431.98126L46.6 430.0125L52.803123 427.6844L53.146873 427.6844L53.146873 444.825ZM69.725 437.54376Q69.725 441.35626 68.4125 443.21564Q67.11562 445.0594 64.35 445.0594Q61.615623 445.0594 60.303123 443.2469Q58.990623 441.4344 58.94375 437.84064L58.94375 434.95Q58.94375 431.1844 60.240623 429.35626Q61.553123 427.52814 64.33437 427.52814Q67.08437 427.52814 68.38125 429.29376Q69.67812 431.0594 69.725 434.73126L69.725 437.54376ZM67.55312 434.575Q67.55312 431.825 66.77187 430.575Q66.00625 429.3094 64.33437 429.3094Q62.6625 429.3094 61.896873 430.5594Q61.146873 431.8094 61.115623 434.41876L61.115623 437.8875Q61.115623 440.65314 61.9125 441.98126Q62.725 443.29376 64.35 443.29376Q65.95937 443.29376 66.74062 442.0594Q67.52187 440.8094 67.55312 438.1375L67.55312 434.575Z" fill-rule="nonzero"/><path fill="#757575" d="M57.19375 314.75L46.021873 314.75L46.021873 313.1875L51.928123 306.625Q53.240623 305.14062 53.740623 304.21875Q54.240623 303.28125 54.240623 302.28125Q54.240623 300.9375 53.428123 300.09375Q52.615623 299.23438 51.271873 299.23438Q49.646873 299.23438 48.75625 300.15625Q47.865623 301.07812 47.865623 302.71875L45.69375 302.71875Q45.69375 300.35938 47.209373 298.90625Q48.725 297.45312 51.271873 297.45312Q53.646873 297.45312 55.021873 298.70312Q56.4125 299.95312 56.4125 302.01562Q56.4125 304.54688 53.209373 308.01562L48.63125 312.98438L57.19375 312.98438L57.19375 314.75ZM69.725 307.46875Q69.725 311.28125 68.4125 313.14062Q67.11562 314.98438 64.35 314.98438Q61.615623 314.98438 60.303123 313.17188Q58.990623 311.35938 58.94375 307.76562L58.94375 304.875Q58.94375 301.10938 60.240623 299.28125Q61.553123 297.45312 64.33437 297.45312Q67.08437 297.45312 68.38125 299.21875Q69.67812 300.98438 69.725 304.65625L69.725 307.46875ZM67.55312 304.5Q67.55312 301.75 66.77187 300.5Q66.00625 299.23438 64.33437 299.23438Q62.6625 299.23438 61.896873 300.48438Q61.146873 301.73438 61.115623 304.34375L61.115623 307.8125Q61.115623 310.57812 61.9125 311.90625Q62.725 313.21875 64.35 313.21875Q65.95937 313.21875 66.74062 311.98438Q67.52187 310.73438 67.55312 308.0625L67.55312 304.5Z" fill-rule="nonzero"/><path fill="#757575" d="M49.178123 175.08125L50.803123 175.08125Q52.334373 175.06563 53.209373 174.28438Q54.1 173.4875 54.1 172.15938Q54.1 169.15938 51.1 169.15938Q49.69375 169.15938 48.85 169.97188Q48.021873 170.76875 48.021873 172.08125L45.85 172.08125Q45.85 170.06563 47.334373 168.72188Q48.81875 167.37813 51.1 167.37813Q53.521873 167.37813 54.88125 168.65938Q56.25625 169.925 56.25625 172.20625Q56.25625 173.31563 55.5375 174.3625Q54.81875 175.40938 53.584373 175.925Q54.990623 176.3625 55.75625 177.39375Q56.521873 178.425 56.521873 179.90938Q56.521873 182.20625 55.021873 183.56563Q53.521873 184.90938 51.115623 184.90938Q48.709373 184.90938 47.209373 183.6125Q45.709373 182.3 45.709373 180.175L47.88125 180.175Q47.88125 181.51875 48.75625 182.33125Q49.646873 183.14375 51.115623 183.14375Q52.69375 183.14375 53.521873 182.33125Q54.35 181.50313 54.35 179.95625Q54.35 178.47188 53.428123 177.675Q52.521873 176.87813 50.803123 176.8625L49.178123 176.8625L49.178123 175.08125ZM69.725 177.39375Q69.725 181.20625 68.4125 183.06563Q67.11562 184.90938 64.35 184.90938Q61.615623 184.90938 60.303123 183.09688Q58.990623 181.28438 58.94375 177.69063L58.94375 174.8Q58.94375 171.03438 60.240623 169.20625Q61.553123 167.37813 64.33437 167.37813Q67.08437 167.37813 68.38125 169.14375Q69.67812 170.90938 69.725 174.58125L69.725 177.39375ZM67.55312 174.425Q67.55312 171.675 66.77187 170.425Q66.00625 169.15938 64.33437 169.15938Q62.6625 169.15938 61.896873 170.40938Q61.146873 171.65938 61.115623 174.26875L61.115623 177.7375Q61.115623 180.50313 61.9125 181.83125Q62.725 183.14375 64.35 183.14375Q65.95937 183.14375 66.74062 181.90938Q67.52187 180.65938 67.55312 177.9875L67.55312 174.425Z" fill-rule="nonzero"/><path fill="#757575" d="M55.178123 48.865623L57.5375 48.865623L57.5375 50.63125L55.178123 50.63125L55.178123 54.6L52.990623 54.6L52.990623 50.63125L45.225 50.63125L45.225 49.365623L52.865623 37.5375L55.178123 37.5375L55.178123 48.865623ZM47.678123 48.865623L52.990623 48.865623L52.990623 40.50625L52.740623 40.975L47.678123 48.865623ZM69.725 47.31875Q69.725 51.13125 68.4125 52.990623Q67.11562 54.834373 64.35 54.834373Q61.615623 54.834373 60.303123 53.021873Q58.990623 51.209373 58.94375 47.615623L58.94375 44.725Q58.94375 40.959373 60.240623 39.13125Q61.553123 37.303123 64.33437 37.303123Q67.08437 37.303123 68.38125 39.06875Q69.67812 40.834373 69.725 44.50625L69.725 47.31875ZM67.55312 44.35Q67.55312 41.6 66.77187 40.35Q66.00625 39.084373 64.33437 39.084373Q62.6625 39.084373 61.896873 40.334373Q61.146873 41.584373 61.115623 44.19375L61.115623 47.6625Q61.115623 50.428123 61.9125 51.75625Q62.725 53.06875 64.35 53.06875Q65.95937 53.06875 66.74062 51.834373Q67.52187 50.584373 67.55312 47.9125L67.55312 44.35Z" fill-rule="nonzero"/><path fill="#757575" d="M80.88467 595.4L71.57217 595.4L71.57217 594.10315L76.49404 588.6344Q77.58779 587.3844 77.99404 586.6188Q78.41592 585.8375 78.41592 585.0094Q78.41592 583.9 77.74404 583.1813Q77.07217 582.4625 75.94717 582.4625Q74.58779 582.4625 73.83779 583.2438Q73.10342 584.0094 73.10342 585.3688L71.29092 585.3688Q71.29092 583.4 72.55654 582.1969Q73.82217 580.97815 75.94717 580.97815Q77.93154 580.97815 79.07217 582.025Q80.22842 583.0719 80.22842 584.79065Q80.22842 586.9 77.55654 589.79065L73.74404 593.9313L80.88467 593.9313L80.88467 595.4ZM91.47842 589.3375Q91.47842 592.5094 90.40029 594.0563Q89.32217 595.60315 87.00967 595.60315Q84.72842 595.60315 83.63467 594.0875Q82.54092 592.5719 82.50967 589.5719L82.50967 587.16565Q82.50967 584.025 83.58779 582.5094Q84.68154 580.97815 86.99404 580.97815Q89.29092 580.97815 90.36904 582.4625Q91.44717 583.9313 91.47842 586.9938L91.47842 589.3375ZM89.68154 586.8688Q89.68154 584.5719 89.02529 583.525Q88.38467 582.4625 86.99404 582.4625Q85.60342 582.4625 84.96279 583.5094Q84.33779 584.5563 84.32217 586.72815L84.32217 589.6188Q84.32217 591.91565 84.97842 593.025Q85.65029 594.1188 87.00967 594.1188Q88.35342 594.1188 88.99404 593.0875Q89.65029 592.0563 89.68154 589.8219L89.68154 586.8688ZM102.47842 589.3375Q102.47842 592.5094 101.40029 594.0563Q100.32217 595.60315 98.00967 595.60315Q95.72842 595.60315 94.63467 594.0875Q93.54092 592.5719 93.50967 589.5719L93.50967 587.16565Q93.50967 584.025 94.58779 582.5094Q95.68154 580.97815 97.99404 580.97815Q100.29092 580.97815 101.36904 582.4625Q102.44717 583.9313 102.47842 586.9938L102.47842 589.3375ZM100.68154 586.8688Q100.68154 584.5719 100.02529 583.525Q99.38467 582.4625 97.99404 582.4625Q96.60342 582.4625 95.96279 583.5094Q95.33779 584.5563 95.32217 586.72815L95.32217 589.6188Q95.32217 591.91565 95.97842 593.025Q96.65029 594.1188 98.00967 594.1188Q99.35342 594.1188 99.99404 593.0875Q100.65029 592.0563 100.68154 589.8219L100.68154 586.8688ZM105.40029 588.275L106.11904 581.1813L113.40029 581.1813L113.40029 582.85315L107.65029 582.85315L107.22842 586.72815Q108.27529 586.1188 109.60342 586.1188Q111.54092 586.1188 112.68154 587.4Q113.82217 588.6813 113.82217 590.8688Q113.82217 593.0719 112.63467 594.3375Q111.44717 595.60315 109.32217 595.60315Q107.43154 595.60315 106.24404 594.5563Q105.05654 593.5094 104.88467 591.66565L106.60342 591.66565Q106.75967 592.8844 107.46279 593.5094Q108.16592 594.1188 109.32217 594.1188Q110.58779 594.1188 111.30654 593.2594Q112.02529 592.4 112.02529 590.8844Q112.02529 589.4625 111.24404 588.60315Q110.46279 587.72815 109.18154 587.72815Q107.99404 587.72815 107.32217 588.2438L106.83779 588.6344L105.40029 588.275Z" fill-rule="nonzero"/><path fill="#757575" d="M377.2949 595.4L367.9824 595.4L367.9824 594.10315L372.90427 588.6344Q373.99802 587.3844 374.40427 586.6188Q374.82614 585.8375 374.82614 585.0094Q374.82614 583.9 374.15427 583.1813Q373.4824 582.4625 372.3574 582.4625Q370.99802 582.4625 370.24802 583.2438Q369.51364 584.0094 369.51364 585.3688L367.70114 585.3688Q367.70114 583.4 368.96677 582.1969Q370.2324 580.97815 372.3574 580.97815Q374.34177 580.97815 375.4824 582.025Q376.63864 583.0719 376.63864 584.79065Q376.63864 586.9 373.96677 589.79065L370.15427 593.9313L377.2949 593.9313L377.2949 595.4ZM387.88864 589.3375Q387.88864 592.5094 386.81052 594.0563Q385.7324 595.60315 383.4199 595.60315Q381.13864 595.60315 380.0449 594.0875Q378.95114 592.5719 378.9199 589.5719L378.9199 587.16565Q378.9199 584.025 379.99802 582.5094Q381.09177 580.97815 383.40427 580.97815Q385.70114 580.97815 386.77927 582.4625Q387.8574 583.9313 387.88864 586.9938L387.88864 589.3375ZM386.09177 586.8688Q386.09177 584.5719 385.43552 583.525Q384.7949 582.4625 383.40427 582.4625Q382.01364 582.4625 381.37302 583.5094Q380.74802 584.5563 380.7324 586.72815L380.7324 589.6188Q380.7324 591.91565 381.38864 593.025Q382.06052 594.1188 383.4199 594.1188Q384.76364 594.1188 385.40427 593.0875Q386.06052 592.0563 386.09177 589.8219L386.09177 586.8688ZM395.9199 595.4L394.09177 595.4L394.09177 583.35315L390.45114 584.6969L390.45114 583.0563L395.63864 581.1188L395.9199 581.1188L395.9199 595.4ZM409.88864 589.3375Q409.88864 592.5094 408.81052 594.0563Q407.7324 595.60315 405.4199 595.60315Q403.13864 595.60315 402.0449 594.0875Q400.95114 592.5719 400.9199 589.5719L400.9199 587.16565Q400.9199 584.025 401.99802 582.5094Q403.09177 580.97815 405.40427 580.97815Q407.70114 580.97815 408.77927 582.4625Q409.8574 583.9313 409.88864 586.9938L409.88864 589.3375ZM408.09177 586.8688Q408.09177 584.5719 407.43552 583.525Q406.7949 582.4625 405.40427 582.4625Q404.01364 582.4625 403.37302 583.5094Q402.74802 584.5563 402.7324 586.72815L402.7324 589.6188Q402.7324 591.91565 403.38864 593.025Q404.06052 594.1188 405.4199 594.1188Q406.76364 594.1188 407.40427 593.0875Q408.06052 592.0563 408.09177 589.8219L408.09177 586.8688Z" fill-rule="nonzero"/><path fill="#757575" d="M673.70514 595.4L664.39264 595.4L664.39264 594.10315L669.3145 588.6344Q670.40826 587.3844 670.8145 586.6188Q671.2364 585.8375 671.2364 585.0094Q671.2364 583.9 670.5645 583.1813Q669.89264 582.4625 668.76764 582.4625Q667.40826 582.4625 666.65826 583.2438Q665.9239 584.0094 665.9239 585.3688L664.1114 585.3688Q664.1114 583.4 665.377 582.1969Q666.64264 580.97815 668.76764 580.97815Q670.752 580.97815 671.89264 582.025Q673.0489 583.0719 673.0489 584.79065Q673.0489 586.9 670.377 589.79065L666.5645 593.9313L673.70514 593.9313L673.70514 595.4ZM684.2989 589.3375Q684.2989 592.5094 683.22076 594.0563Q682.14264 595.60315 679.83014 595.60315Q677.5489 595.60315 676.45514 594.0875Q675.3614 592.5719 675.33014 589.5719L675.33014 587.16565Q675.33014 584.025 676.40826 582.5094Q677.502 580.97815 679.8145 580.97815Q682.1114 580.97815 683.1895 582.4625Q684.26764 583.9313 684.2989 586.9938L684.2989 589.3375ZM682.502 586.8688Q682.502 584.5719 681.84576 583.525Q681.20514 582.4625 679.8145 582.4625Q678.4239 582.4625 677.78326 583.5094Q677.15826 584.5563 677.14264 586.72815L677.14264 589.6188Q677.14264 591.91565 677.7989 593.025Q678.47076 594.1188 679.83014 594.1188Q681.1739 594.1188 681.8145 593.0875Q682.47076 592.0563 682.502 589.8219L682.502 586.8688ZM692.33014 595.4L690.502 595.4L690.502 583.35315L686.8614 584.6969L686.8614 583.0563L692.0489 581.1188L692.33014 581.1188L692.33014 595.4ZM698.22076 588.275L698.9395 581.1813L706.22076 581.1813L706.22076 582.85315L700.47076 582.85315L700.0489 586.72815Q701.09576 586.1188 702.4239 586.1188Q704.3614 586.1188 705.502 587.4Q706.64264 588.6813 706.64264 590.8688Q706.64264 593.0719 705.45514 594.3375Q704.26764 595.60315 702.14264 595.60315Q700.252 595.60315 699.0645 594.5563Q697.877 593.5094 697.70514 591.66565L699.4239 591.66565Q699.58014 592.8844 700.28326 593.5094Q700.9864 594.1188 702.14264 594.1188Q703.40826 594.1188 704.127 593.2594Q704.84576 592.4 704.84576 590.8844Q704.84576 589.4625 704.0645 588.60315Q703.28326 587.72815 702.002 587.72815Q700.8145 587.72815 700.14264 588.2438L699.65826 588.6344L698.22076 588.275Z" fill-rule="nonzero"/><path fill="#757575" d="M970.11536 595.4L960.80286 595.4L960.80286 594.10315L965.72473 588.6344Q966.8185 587.3844 967.22473 586.6188Q967.6466 585.8375 967.6466 585.0094Q967.6466 583.9 966.97473 583.1813Q966.30286 582.4625 965.17786 582.4625Q963.8185 582.4625 963.0685 583.2438Q962.3341 584.0094 962.3341 585.3688L960.5216 585.3688Q960.5216 583.4 961.78723 582.1969Q963.05286 580.97815 965.17786 580.97815Q967.16223 580.97815 968.30286 582.025Q969.4591 583.0719 969.4591 584.79065Q969.4591 586.9 966.78723 589.79065L962.97473 593.9313L970.11536 593.9313L970.11536 595.4ZM980.7091 589.3375Q980.7091 592.5094 979.631 594.0563Q978.55286 595.60315 976.24036 595.60315Q973.9591 595.60315 972.86536 594.0875Q971.7716 592.5719 971.74036 589.5719L971.74036 587.16565Q971.74036 584.025 972.8185 582.5094Q973.91223 580.97815 976.22473 580.97815Q978.5216 580.97815 979.59973 582.4625Q980.67786 583.9313 980.7091 586.9938L980.7091 589.3375ZM978.91223 586.8688Q978.91223 584.5719 978.256 583.525Q977.61536 582.4625 976.22473 582.4625Q974.8341 582.4625 974.1935 583.5094Q973.5685 584.5563 973.55286 586.72815L973.55286 589.6188Q973.55286 591.91565 974.2091 593.025Q974.881 594.1188 976.24036 594.1188Q977.5841 594.1188 978.22473 593.0875Q978.881 592.0563 978.91223 589.8219L978.91223 586.8688ZM992.11536 595.4L982.80286 595.4L982.80286 594.10315L987.72473 588.6344Q988.8185 587.3844 989.22473 586.6188Q989.6466 585.8375 989.6466 585.0094Q989.6466 583.9 988.97473 583.1813Q988.30286 582.4625 987.17786 582.4625Q985.8185 582.4625 985.0685 583.2438Q984.3341 584.0094 984.3341 585.3688L982.5216 585.3688Q982.5216 583.4 983.78723 582.1969Q985.05286 580.97815 987.17786 580.97815Q989.16223 580.97815 990.30286 582.025Q991.4591 583.0719 991.4591 584.79065Q991.4591 586.9 988.78723 589.79065L984.97473 593.9313L992.11536 593.9313L992.11536 595.4ZM1002.7091 589.3375Q1002.7091 592.5094 1001.631 594.0563Q1000.55286 595.60315 998.24036 595.60315Q995.9591 595.60315 994.86536 594.0875Q993.7716 592.5719 993.74036 589.5719L993.74036 587.16565Q993.74036 584.025 994.8185 582.5094Q995.91223 580.97815 998.22473 580.97815Q1000.5216 580.97815 1001.59973 582.4625Q1002.67786 583.9313 1002.7091 586.9938L1002.7091 589.3375ZM1000.91223 586.8688Q1000.91223 584.5719 1000.256 583.525Q999.61536 582.4625 998.22473 582.4625Q996.8341 582.4625 996.1935 583.5094Q995.5685 584.5563 995.55286 586.72815L995.55286 589.6188Q995.55286 591.91565 996.2091 593.025Q996.881 594.1188 998.24036 594.1188Q999.5841 594.1188 1000.22473 593.0875Q1000.881 592.0563 1000.91223 589.8219L1000.91223 586.8688Z" fill-rule="nonzero"/></svg>