<svg version="1.1" viewBox="0.0 0.0 951.3832020997376 540.3149606299213" fill="none" stroke="none" stroke-linecap="square" stroke-miterlimit="10" xmlns:xlink="http://www.w3.org/1999/xlink" xmlns="http://www.w3.org/2000/svg"><clipPath id="p.0"><path d="m0 0l951.3832 0l0 540.31494l-951.3832 0l0 -540.31494z" clip-rule="nonzero"/></clipPath><g clip-path="url(#p.0)"><path fill="#000000" fill-opacity="0.0" d="m0 0l951.3832 0l0 540.31494l-951.3832 0z" fill-rule="evenodd"/><path fill="#cfe2f3" d="m29.629921 70.14698l0 0c0 -28.031712 22.724194 -50.755905 50.755905 -50.755905l0 0c13.461304 0 26.37127 5.347481 35.889847 14.86606c9.518578 9.518578 14.866066 22.428543 14.866066 35.889843l0 0c0 28.031715 -22.724197 50.755905 -50.755913 50.755905l0 0c-28.031712 0 -50.755905 -22.72419 -50.755905 -50.755905z" fill-rule="evenodd"/><path fill="#cfe2f3" d="m481.14304 217.67717l0 0c0 -28.031723 22.724213 -50.755905 50.75589 -50.755905l0 0c13.461304 0 26.371277 5.347473 35.889893 14.866058c9.518555 9.51857 14.866028 22.428543 14.866028 35.889847l0 0c0 28.031708 -22.724182 50.755905 -50.75592 50.755905l0 0c-28.031677 0 -50.75589 -22.724197 -50.75589 -50.755905z" fill-rule="evenodd"/><path fill="#cfe2f3" d="m282.93176 199.77953l0 0c0 -33.815475 29.105011 -61.228348 65.00787 -61.228348l0 0c17.24115 0 33.776154 6.450821 45.9675 17.933365c12.191345 11.482544 19.040375 27.056213 19.040375 43.294983l0 0c0 33.81549 -29.105011 61.228348 -65.00787 61.228348l0 0c-35.902863 0 -65.00787 -27.412857 -65.00787 -61.228348z" fill-rule="evenodd"/><path fill="#cfe2f3" d="m202.69817 42.24147l0 0c0 -12.619925 14.101257 -22.850393 31.496063 -22.850393l0 0c17.39479 0 31.496048 10.230469 31.496048 22.850393l0 0c0 12.619923 -14.101257 22.850395 -31.496048 22.850395l0 0c-17.394806 0 -31.496063 -10.230473 -31.496063 -22.850395z" fill-rule="evenodd"/><path fill="#cfe2f3" d="m412.9475 92.855644l0 0c0 -28.031715 22.724182 -50.755905 50.75589 -50.755905l0 0c13.461304 0 26.371277 5.347481 35.889862 14.866058c9.518585 9.518578 14.866028 22.428543 14.866028 35.889847l0 0c0 28.031708 -22.724152 50.755898 -50.75589 50.755898l0 0c-28.031708 0 -50.75589 -22.72419 -50.75589 -50.755898z" fill-rule="evenodd"/><path fill="#a2c4c9" d="m537.4724 407.93176l223.77954 0l0 116.0l-223.77954 0z" fill-rule="evenodd"/><path fill="#000000" d="m629.10065 477.808q-0.609375 0 -0.984375 -0.359375q-0.359375 -0.375 -0.359375 -0.984375l0 -19.125l-6.875 0q-0.578125 0 -0.90625 -0.28125q-0.3125 -0.296875 -0.3125 -0.84375q0 -0.546875 0.3125 -0.828125q0.328125 -0.296875 0.90625 -0.296875l16.421875 0q0.578125 0 0.890625 0.296875q0.3125 0.28125 0.3125 0.828125q0 0.546875 -0.3125 0.84375q-0.3125 0.28125 -0.890625 0.28125l-6.890625 0l0 19.125q0 0.609375 -0.359375 0.984375q-0.34375 0.359375 -0.953125 0.359375zm21.61029 -3.765625q0.34375 0 0.59375 0.28125q0.265625 0.28125 0.265625 0.734375q0 0.796875 -1.125 1.46875q-1.140625 0.671875 -2.421875 1.015625q-1.28125 0.328125 -2.5 0.328125q-3.625 0 -5.71875 -2.140625q-2.09375 -2.140625 -2.09375 -5.921875q0 -2.390625 0.921875 -4.234375q0.9375 -1.84375 2.609375 -2.859375q1.6875 -1.03125 3.828125 -1.03125q3.046875 0 4.828125 1.984375q1.796875 1.984375 1.796875 5.375q0 0.640625 -0.265625 0.9375q-0.25 0.28125 -0.8125 0.28125l-10.3125 0q0.296875 5.5 5.21875 5.5q1.25 0 2.140625 -0.328125q0.890625 -0.34375 1.921875 -0.921875q0.828125 -0.46875 1.125 -0.46875zm-5.609375 -10.34375q-2.046875 0 -3.28125 1.28125q-1.21875 1.28125 -1.453125 3.609375l9.0625 0q-0.0625 -2.359375 -1.1875 -3.625q-1.125 -1.265625 -3.140625 -1.265625zm15.645264 14.171875q-1.46875 0 -2.796875 -0.34375q-1.328125 -0.359375 -2.34375 -1.0q-0.578125 -0.375 -0.828125 -0.703125q-0.234375 -0.34375 -0.234375 -0.828125q0 -0.421875 0.234375 -0.6875q0.25 -0.265625 0.625 -0.265625q0.390625 0 1.125 0.46875q0.96875 0.578125 1.90625 0.921875q0.9375 0.328125 2.359375 0.328125q1.71875 0 2.671875 -0.609375q0.96875 -0.609375 0.96875 -1.75q0 -0.703125 -0.359375 -1.140625q-0.34375 -0.4375 -1.21875 -0.765625q-0.859375 -0.34375 -2.515625 -0.6875q-2.8125 -0.609375 -4.03125 -1.625q-1.21875 -1.03125 -1.21875 -2.796875q0 -1.375 0.765625 -2.421875q0.765625 -1.0625 2.125 -1.671875q1.359375 -0.609375 3.09375 -0.609375q1.25 0 2.40625 0.34375q1.171875 0.328125 2.078125 0.9375q1.078125 0.765625 1.078125 1.59375q0 0.421875 -0.25 0.71875q-0.25 0.28125 -0.609375 0.28125q-0.390625 0 -1.15625 -0.546875q-0.890625 -0.578125 -1.6875 -0.890625q-0.796875 -0.328125 -1.984375 -0.328125q-1.5 0 -2.421875 0.671875q-0.90625 0.671875 -0.90625 1.796875q0 0.703125 0.328125 1.140625q0.34375 0.421875 1.125 0.765625q0.78125 0.328125 2.25 0.65625q2.1875 0.46875 3.375 1.046875q1.203125 0.578125 1.71875 1.421875q0.515625 0.828125 0.515625 2.109375q0 2.015625 -1.703125 3.25q-1.6875 1.21875 -4.484375 1.21875zm17.153137 -2.109375q1.125 0.09375 1.125 1.03125q0 0.546875 -0.40625 0.8125q-0.390625 0.265625 -1.1875 0.203125l-0.875 -0.0625q-2.546875 -0.1875 -3.765625 -1.53125q-1.21875 -1.34375 -1.21875 -4.0625l0 -8.03125l-2.140625 0q-0.546875 0 -0.859375 -0.265625q-0.296875 -0.28125 -0.296875 -0.734375q0 -0.484375 0.296875 -0.765625q0.3125 -0.28125 0.859375 -0.28125l2.140625 0l0 -3.625q0 -0.609375 0.34375 -0.9375q0.359375 -0.34375 0.96875 -0.34375q0.578125 0 0.921875 0.34375q0.359375 0.328125 0.359375 0.9375l0 3.625l3.546875 0q0.515625 0 0.8125 0.28125q0.3125 0.28125 0.3125 0.765625q0 0.453125 -0.3125 0.734375q-0.296875 0.265625 -0.8125 0.265625l-3.546875 0l0 8.15625q0 1.765625 0.71875 2.546875q0.71875 0.78125 2.15625 0.875l0.859375 0.0625z" fill-rule="nonzero"/><path fill="#000000" fill-opacity="0.0" d="m649.3622 407.93176l0 -73.46164l-301.4173 0l0 -73.4675" fill-rule="evenodd"/><path stroke="#76a5af" stroke-width="2.0" stroke-linejoin="round" stroke-linecap="butt" d="m649.3622 407.93176l0 -73.46164l-301.4173 0l0 -66.61334" fill-rule="evenodd"/><path fill="#76a5af" stroke="#76a5af" stroke-width="2.0" stroke-linecap="butt" d="m347.9449 267.8568l2.249176 2.2491455l-2.249176 -6.179535l-2.249176 6.179535z" fill-rule="evenodd"/><path fill="#b6d7a8" d="m6.9343834 389.00262l461.98425 0l0 134.92914l-461.98425 0z" fill-rule="evenodd"/><path fill="#000000" d="m180.42014 468.34344q-0.609375 0 -0.96875 -0.359375q-0.34375 -0.375 -0.34375 -0.984375l0 -20.09375q0 -0.578125 0.359375 -0.921875q0.375 -0.359375 0.984375 -0.359375l7.59375 0q3.546875 0 5.515625 1.734375q1.96875 1.71875 1.96875 4.890625q0 3.171875 -1.984375 4.9375q-1.984375 1.75 -5.5 1.75l-6.3125 0l0 8.0625q0 0.609375 -0.359375 0.984375q-0.34375 0.359375 -0.953125 0.359375zm7.359375 -11.578125q5.15625 0 5.15625 -4.515625q0 -4.453125 -5.15625 -4.453125l-6.046875 0l0 8.96875l6.046875 0zm18.976288 -4.484375q1.34375 -0.09375 1.34375 1.09375q0 0.515625 -0.296875 0.8125q-0.28125 0.296875 -0.984375 0.375l-0.953125 0.09375q-2.140625 0.1875 -3.1875 1.515625q-1.046875 1.328125 -1.046875 3.125l0 7.765625q0 0.640625 -0.359375 0.96875q-0.34375 0.3125 -0.90625 0.3125q-0.578125 0 -0.953125 -0.328125q-0.359375 -0.34375 -0.359375 -0.953125l0 -13.5q0 -0.609375 0.375 -0.9375q0.390625 -0.34375 0.9375 -0.34375q0.5 0 0.84375 0.34375q0.359375 0.328125 0.359375 0.90625l0 1.796875q0.671875 -1.40625 1.90625 -2.140625q1.234375 -0.75 2.828125 -0.875l0.453125 -0.03125zm9.726013 16.125q-2.203125 0 -3.890625 -0.984375q-1.671875 -1.0 -2.59375 -2.828125q-0.90625 -1.84375 -0.90625 -4.28125q0 -2.421875 0.90625 -4.265625q0.921875 -1.84375 2.59375 -2.828125q1.6875 -1.0 3.890625 -1.0q2.21875 0 3.90625 1.0q1.703125 0.984375 2.609375 2.828125q0.90625 1.84375 0.90625 4.265625q0 2.4375 -0.90625 4.28125q-0.90625 1.828125 -2.609375 2.828125q-1.6875 0.984375 -3.90625 0.984375zm0 -2.140625q2.3125 0 3.53125 -1.515625q1.234375 -1.515625 1.234375 -4.4375q0 -2.84375 -1.25 -4.390625q-1.234375 -1.5625 -3.515625 -1.5625q-2.265625 0 -3.515625 1.5625q-1.25 1.546875 -1.25 4.390625q0 2.890625 1.234375 4.421875q1.234375 1.53125 3.53125 1.53125zm23.94754 -13.984375q0.59375 0 0.953125 0.359375q0.359375 0.34375 0.359375 0.921875l0 13.5625q0 3.5 -1.796875 5.265625q-1.796875 1.78125 -5.3125 1.78125q-3.421875 0 -5.703125 -1.34375q-1.140625 -0.640625 -1.140625 -1.46875q0 -0.453125 0.234375 -0.75q0.234375 -0.28125 0.625 -0.28125q0.3125 0 1.15625 0.453125q1.109375 0.578125 2.203125 0.921875q1.09375 0.359375 2.59375 0.359375q2.265625 0 3.421875 -1.203125q1.15625 -1.203125 1.15625 -3.5l0 -2.75q-0.671875 1.5 -2.0625 2.296875q-1.390625 0.796875 -3.28125 0.796875q-2.046875 0 -3.640625 -0.953125q-1.578125 -0.96875 -2.46875 -2.71875q-0.875 -1.765625 -0.875 -4.0625q0 -2.3125 0.875 -4.0625q0.890625 -1.765625 2.46875 -2.71875q1.59375 -0.96875 3.640625 -0.96875q1.84375 0 3.21875 0.796875q1.390625 0.796875 2.09375 2.28125l0 -1.734375q0 -0.578125 0.328125 -0.921875q0.34375 -0.359375 0.953125 -0.359375zm-6.09375 13.28125q2.25 0 3.53125 -1.484375q1.28125 -1.484375 1.28125 -4.109375q0 -2.59375 -1.265625 -4.078125q-1.265625 -1.5 -3.546875 -1.5q-2.265625 0 -3.5625 1.5q-1.296875 1.484375 -1.296875 4.078125q0 2.625 1.296875 4.109375q1.296875 1.484375 3.5625 1.484375zm19.908295 -13.28125q1.34375 -0.09375 1.34375 1.09375q0 0.515625 -0.296875 0.8125q-0.28125 0.296875 -0.984375 0.375l-0.953125 0.09375q-2.140625 0.1875 -3.1875 1.515625q-1.046875 1.328125 -1.046875 3.125l0 7.765625q0 0.640625 -0.359375 0.96875q-0.34375 0.3125 -0.90625 0.3125q-0.578125 0 -0.953125 -0.328125q-0.359375 -0.34375 -0.359375 -0.953125l0 -13.5q0 -0.609375 0.375 -0.9375q0.390625 -0.34375 0.9375 -0.34375q0.5 0 0.84375 0.34375q0.359375 0.328125 0.359375 0.90625l0 1.796875q0.671875 -1.40625 1.90625 -2.140625q1.234375 -0.75 2.828125 -0.875l0.453125 -0.03125zm9.82428 -0.0625q5.859375 0 5.859375 6.140625l0 8.703125q0 0.578125 -0.34375 0.9375q-0.328125 0.34375 -0.90625 0.34375q-0.578125 0 -0.9375 -0.34375q-0.34375 -0.359375 -0.34375 -0.9375l0 -1.53125q-0.609375 1.375 -1.859375 2.125q-1.25 0.75 -2.8750305 0.75q-1.5 0 -2.765625 -0.59375q-1.265625 -0.609375 -2.0 -1.703125q-0.734375 -1.09375 -0.734375 -2.40625q0 -1.75 0.890625 -2.71875q0.890625 -0.984375 2.9375 -1.421875q2.0625305 -0.4375 5.7031555 -0.4375l0.703125 0l0 -1.046875q0 -1.921875 -0.78125 -2.8125q-0.78125 -0.90625 -2.546875 -0.90625q-2.1719055 0 -4.4062805 1.1875q-0.875 0.546875 -1.21875 0.546875q-0.390625 0 -0.65625 -0.28125q-0.25 -0.296875 -0.25 -0.75q0 -0.4375 0.265625 -0.765625q0.28125 -0.34375 0.890625 -0.703125q1.125 -0.640625 2.546875 -1.0q1.421875 -0.375 2.8281555 -0.375zm-1.046875 14.140625q1.90625 0 3.140625 -1.296875q1.234375 -1.296875 1.234375 -3.34375l0 -0.921875l-0.578125 0q-2.8125 0 -4.2812805 0.25q-1.46875 0.234375 -2.09375 0.796875q-0.625 0.546875 -0.625 1.640625q0 1.25 0.90625 2.0625q0.921875 0.8125 2.2969055 0.8125zm28.991272 -14.140625q5.171875 0 5.171875 6.171875l0 8.671875q0 0.609375 -0.359375 0.953125q-0.34375 0.328125 -0.921875 0.328125q-0.5625 0 -0.9375 -0.328125q-0.359375 -0.34375 -0.359375 -0.953125l0 -8.609375q0 -2.140625 -0.78125 -3.09375q-0.765625 -0.96875 -2.390625 -0.96875q-1.953125 0 -3.078125 1.3125q-1.125 1.3125 -1.125 3.5625l0 7.796875q0 0.609375 -0.375 0.953125q-0.359375 0.328125 -0.9375 0.328125q-0.5625 0 -0.921875 -0.328125q-0.34375 -0.34375 -0.34375 -0.953125l0 -8.609375q0 -2.140625 -0.78125 -3.09375q-0.765625 -0.96875 -2.421875 -0.96875q-1.921875 0 -3.0625 1.3125q-1.140625 1.3125 -1.140625 3.5625l0 7.796875q0 0.609375 -0.359375 0.953125q-0.34375 0.328125 -0.90625 0.328125q-0.578125 0 -0.953125 -0.328125q-0.359375 -0.34375 -0.359375 -0.953125l0 -13.5q0 -0.578125 0.359375 -0.921875q0.375 -0.359375 0.953125 -0.359375q0.53125 0 0.875 0.34375q0.359375 0.328125 0.359375 0.90625l0 1.53125q0.703125 -1.375 1.953125 -2.109375q1.25 -0.734375 2.890625 -0.734375q3.640625 0 4.765625 3.078125q0.671875 -1.40625 2.046875 -2.234375q1.375 -0.84375 3.140625 -0.84375z" fill-rule="nonzero"/><path fill="#000000" fill-opacity="0.0" d="m237.92651 389.00262l0 -189.22835l45.007874 0" fill-rule="evenodd"/><path stroke="#000000" stroke-width="1.0" stroke-linejoin="round" stroke-linecap="butt" d="m237.92651 389.00262l0 -189.22835l41.58078 0" fill-rule="evenodd"/><path fill="#000000" stroke="#000000" stroke-width="1.0" stroke-linecap="butt" d="m279.5073 199.77428l-1.1245728 1.124588l3.0897522 -1.124588l-3.0897522 -1.124588z" fill-rule="evenodd"/><path fill="#000000" fill-opacity="0.0" d="m237.92651 389.00262l0 -134.04993l-157.5433 0l0 -134.04456" fill-rule="evenodd"/><path stroke="#000000" stroke-width="2.0" stroke-linejoin="round" stroke-linecap="butt" d="m237.92651 389.00262l0 -134.04993l-157.5433 0l0 -127.190384" fill-rule="evenodd"/><path fill="#000000" stroke="#000000" stroke-width="2.0" stroke-linecap="butt" d="m80.3832 127.76231l2.2491684 2.2491684l-2.2491684 -6.179535l-2.2491684 6.179535z" fill-rule="evenodd"/><path fill="#000000" fill-opacity="0.0" d="m468.91864 456.4672l62.992126 0l0 -188.0315" fill-rule="evenodd"/><path stroke="#000000" stroke-width="1.0" stroke-linejoin="round" stroke-linecap="butt" d="m468.91864 456.4672l62.992126 0l0 -184.6044" fill-rule="evenodd"/><path fill="#000000" stroke="#000000" stroke-width="1.0" stroke-linecap="butt" d="m531.91077 271.8628l1.1245728 1.1245728l-1.1245728 -3.0897827l-1.1245728 3.0897827z" fill-rule="evenodd"/><path fill="#000000" fill-opacity="0.0" d="m649.3622 407.93176l0 -315.0866l-134.89764 0" fill-rule="evenodd"/><path stroke="#45818e" stroke-width="1.0" stroke-linejoin="round" stroke-linecap="butt" d="m649.3622 407.93176l0 -315.0866l-131.47052 0" fill-rule="evenodd"/><path fill="#45818e" stroke="#45818e" stroke-width="1.0" stroke-linecap="butt" d="m517.89166 92.845146l1.1245728 -1.124588l-3.0897827 1.124588l3.0897827 1.1245804z" fill-rule="evenodd"/><path fill="#000000" fill-opacity="0.0" d="m347.93964 138.55118l0 -45.700783l65.00787 0" fill-rule="evenodd"/><path stroke="#000000" stroke-width="1.0" stroke-linejoin="round" stroke-linecap="butt" d="m347.93964 138.55118l0 -45.700783l61.58078 0" fill-rule="evenodd"/><path fill="#000000" stroke="#000000" stroke-width="1.0" stroke-linecap="butt" d="m409.52042 92.850395l-1.1245728 1.1245804l3.0897522 -1.1245804l-3.0897522 -1.124588z" fill-rule="evenodd"/><path fill="#000000" fill-opacity="0.0" d="m131.14174 70.14698l35.77809 0l0 -27.90551l35.78096 0" fill-rule="evenodd"/><path stroke="#000000" stroke-width="1.0" stroke-linejoin="round" stroke-linecap="butt" d="m131.14174 70.14698l35.77809 0l0 -27.90551l32.353867 0" fill-rule="evenodd"/><path fill="#000000" stroke="#000000" stroke-width="1.0" stroke-linecap="butt" d="m199.2737 42.24147l-1.1245728 1.1245842l3.0897675 -1.1245842l-3.0897675 -1.1245842z" fill-rule="evenodd"/><path fill="#000000" fill-opacity="0.0" d="m131.14172 156.29396l0 0c0 -19.543045 21.151901 -35.385826 47.244095 -35.385826l0 0c26.092194 0 47.244095 15.842781 47.244095 35.385826l0 0c0 19.54306 -21.151901 35.385834 -47.244095 35.385834l0 0c-26.092194 0 -47.244095 -15.842773 -47.244095 -35.385834z" fill-rule="evenodd"/><path stroke="#4a86e8" stroke-width="1.0" stroke-linejoin="round" stroke-linecap="butt" d="m131.14172 156.29396l0 0c0 -19.543045 21.151901 -35.385826 47.244095 -35.385826l0 0c26.092194 0 47.244095 15.842781 47.244095 35.385826l0 0c0 19.54306 -21.151901 35.385834 -47.244095 35.385834l0 0c-26.092194 0 -47.244095 -15.842773 -47.244095 -35.385834z" fill-rule="evenodd"/><path fill="#000000" fill-opacity="0.0" d="m653.65875 161.63518l0 0c0 -19.54306 21.151917 -35.385834 47.24414 -35.385834l0 0c26.092163 0 47.24408 15.842773 47.24408 35.385834l0 0c0 19.543045 -21.151917 35.38582 -47.24408 35.38582l0 0c-26.092224 0 -47.24414 -15.842773 -47.24414 -35.38582z" fill-rule="evenodd"/><path stroke="#4a86e8" stroke-width="1.0" stroke-linejoin="round" stroke-linecap="butt" d="m653.65875 161.63518l0 0c0 -19.54306 21.151917 -35.385834 47.24414 -35.385834l0 0c26.092163 0 47.24408 15.842773 47.24408 35.385834l0 0c0 19.543045 -21.151917 35.38582 -47.24408 35.38582l0 0c-26.092224 0 -47.24414 -15.842773 -47.24414 -35.38582z" fill-rule="evenodd"/><path fill="#000000" fill-opacity="0.0" d="m688.0774 270.15747l0 0c0 -19.543045 21.151917 -35.38582 47.24414 -35.38582l0 0c26.092163 0 47.24408 15.842773 47.24408 35.38582l0 0c0 19.54306 -21.151917 35.385834 -47.24408 35.385834l0 0c-26.092224 0 -47.24414 -15.842773 -47.24414 -35.385834z" fill-rule="evenodd"/><path stroke="#4a86e8" stroke-width="1.0" stroke-linejoin="round" stroke-linecap="butt" d="m688.0774 270.15747l0 0c0 -19.543045 21.151917 -35.38582 47.24414 -35.38582l0 0c26.092163 0 47.24408 15.842773 47.24408 35.38582l0 0c0 19.54306 -21.151917 35.385834 -47.24408 35.385834l0 0c-26.092224 0 -47.24414 -15.842773 -47.24414 -35.385834z" fill-rule="evenodd"/><path fill="#000000" fill-opacity="0.0" d="m542.3884 43.740158l0 0c0 -19.543053 21.151917 -35.385826 47.24408 -35.385826l0 0c26.092224 0 47.24414 15.842774 47.24414 35.385826l0 0c0 19.543053 -21.151917 35.385826 -47.24414 35.385826l0 0c-26.092163 0 -47.24408 -15.842773 -47.24408 -35.385826z" fill-rule="evenodd"/><path stroke="#4a86e8" stroke-width="1.0" stroke-linejoin="round" stroke-linecap="butt" d="m542.3884 43.740158l0 0c0 -19.543053 21.151917 -35.385826 47.24408 -35.385826l0 0c26.092224 0 47.24414 15.842774 47.24414 35.385826l0 0c0 19.543053 -21.151917 35.385826 -47.24414 35.385826l0 0c-26.092163 0 -47.24408 -15.842773 -47.24408 -35.385826z" fill-rule="evenodd"/><path fill="#000000" fill-opacity="0.0" d="m314.7244 43.740158l0 0c0 -19.543053 21.151917 -35.385826 47.24411 -35.385826l0 0c26.092194 0 47.24408 15.842774 47.24408 35.385826l0 0c0 19.543053 -21.151886 35.385826 -47.24408 35.385826l0 0c-26.092194 0 -47.24411 -15.842773 -47.24411 -35.385826z" fill-rule="evenodd"/><path stroke="#4a86e8" stroke-width="1.0" stroke-linejoin="round" stroke-linecap="butt" d="m314.7244 43.740158l0 0c0 -19.543053 21.151917 -35.385826 47.24411 -35.385826l0 0c26.092194 0 47.24408 15.842774 47.24408 35.385826l0 0c0 19.543053 -21.151886 35.385826 -47.24408 35.385826l0 0c-26.092194 0 -47.24411 -15.842773 -47.24411 -35.385826z" fill-rule="evenodd"/><path fill="#000000" fill-opacity="0.0" d="m29.629911 307.60892l0 0c0 -19.54306 21.151903 -35.385834 47.244095 -35.385834l0 0c26.092194 0 47.244095 15.842773 47.244095 35.385834l0 0c0 19.54306 -21.151901 35.385834 -47.244095 35.385834l0 0c-26.092194 0 -47.244095 -15.842773 -47.244095 -35.385834z" fill-rule="evenodd"/><path stroke="#4a86e8" stroke-width="1.0" stroke-linejoin="round" stroke-linecap="butt" d="m29.629911 307.60892l0 0c0 -19.54306 21.151903 -35.385834 47.244095 -35.385834l0 0c26.092194 0 47.244095 15.842773 47.244095 35.385834l0 0c0 19.54306 -21.151901 35.385834 -47.244095 35.385834l0 0c-26.092194 0 -47.244095 -15.842773 -47.244095 -35.385834z" fill-rule="evenodd"/><path fill="#000000" fill-opacity="0.0" d="m156.96063 343.95538l0 0c0 -15.029114 14.101257 -27.212616 31.496063 -27.212616l0 0c17.39479 0 31.496063 12.183502 31.496063 27.212616l0 0c0 15.029114 -14.101273 27.212585 -31.496063 27.212585l0 0c-17.394806 0 -31.496063 -12.183472 -31.496063 -27.212585z" fill-rule="evenodd"/><path stroke="#4a86e8" stroke-width="1.0" stroke-linejoin="round" stroke-linecap="butt" d="m156.96063 343.95538l0 0c0 -15.029114 14.101257 -27.212616 31.496063 -27.212616l0 0c17.39479 0 31.496063 12.183502 31.496063 27.212616l0 0c0 15.029114 -14.101273 27.212585 -31.496063 27.212585l0 0c-17.394806 0 -31.496063 -12.183472 -31.496063 -27.212585z" fill-rule="evenodd"/><path fill="#000000" fill-opacity="0.0" d="m252.79527 315.78217l0 0c0 -19.54306 17.774643 -35.385834 39.70079 -35.385834l0 0c21.926147 0 39.700775 15.842773 39.700775 35.385834l0 0c0 19.54303 -17.774628 35.385803 -39.700775 35.385803l0 0c-21.926147 0 -39.70079 -15.842773 -39.70079 -35.385803z" fill-rule="evenodd"/><path stroke="#4a86e8" stroke-width="1.0" stroke-linejoin="round" stroke-linecap="butt" d="m252.79527 315.78217l0 0c0 -19.54306 17.774643 -35.385834 39.70079 -35.385834l0 0c21.926147 0 39.700775 15.842773 39.700775 35.385834l0 0c0 19.54303 -17.774628 35.385803 -39.700775 35.385803l0 0c-21.926147 0 -39.70079 -15.842773 -39.70079 -35.385803z" fill-rule="evenodd"/><path fill="#000000" fill-opacity="0.0" d="m791.1312 52.63517l0 0c0 -19.543053 17.774658 -35.385826 39.700806 -35.385826l0 0c21.926147 0 39.700806 15.842773 39.700806 35.385826l0 0c0 19.543053 -17.774658 35.385826 -39.700806 35.385826l0 0c-21.926147 0 -39.700806 -15.842773 -39.700806 -35.385826z" fill-rule="evenodd"/><path stroke="#4a86e8" stroke-width="1.0" stroke-linejoin="round" stroke-linecap="butt" d="m791.1312 52.63517l0 0c0 -19.543053 17.774658 -35.385826 39.700806 -35.385826l0 0c21.926147 0 39.700806 15.842773 39.700806 35.385826l0 0c0 19.543053 -17.774658 35.385826 -39.700806 35.385826l0 0c-21.926147 0 -39.700806 -15.842773 -39.700806 -35.385826z" fill-rule="evenodd"/><path fill="#b4a7d6" d="m786.9816 424.96326l150.92914 0l0 54.4252l-150.92914 0z" fill-rule="evenodd"/><path fill="#000000" d="m832.10425 464.14584q-4.40625 0 -6.6875 -2.296875q-2.265625 -2.3125 -2.265625 -6.78125l0 -12.546875q0 -0.609375 0.34375 -0.96875q0.359375 -0.375 0.96875 -0.375q0.578125 0 0.921875 0.375q0.359375 0.359375 0.359375 0.96875l0 12.765625q0 3.296875 1.609375 4.96875q1.625 1.65625 4.75 1.65625q3.140625 0 4.734375 -1.65625q1.609375 -1.671875 1.609375 -4.96875l0 -12.765625q0 -0.609375 0.359375 -0.96875q0.375 -0.375 0.953125 -0.375q0.609375 0 0.953125 0.375q0.359375 0.359375 0.359375 0.96875l0 12.546875q0 4.4375 -2.296875 6.765625q-2.28125 2.3125 -6.671875 2.3125zm21.183655 -2.140625q1.125 0.09375 1.125 1.03125q0 0.546875 -0.40625 0.8125q-0.390625 0.265625 -1.1875 0.203125l-0.875 -0.0625q-2.546875 -0.1875 -3.765625 -1.53125q-1.21875 -1.34375 -1.21875 -4.0625l0 -8.03125l-2.140625 0q-0.546875 0 -0.859375 -0.265625q-0.296875 -0.28125 -0.296875 -0.734375q0 -0.484375 0.296875 -0.765625q0.3125 -0.28125 0.859375 -0.28125l2.140625 0l0 -3.625q0 -0.609375 0.34375 -0.9375q0.359375 -0.34375 0.96875 -0.34375q0.578125 0 0.921875 0.34375q0.359375 0.328125 0.359375 0.9375l0 3.625l3.546875 0q0.515625 0 0.8125 0.28125q0.3125 0.28125 0.3125 0.765625q0 0.453125 -0.3125 0.734375q-0.296875 0.265625 -0.8125 0.265625l-3.546875 0l0 8.15625q0 1.765625 0.71875 2.546875q0.71875 0.78125 2.15625 0.875l0.859375 0.0625zm5.005005 2.046875q-0.578125 0 -0.953125 -0.328125q-0.359375 -0.34375 -0.359375 -0.953125l0 -13.5q0 -0.609375 0.359375 -0.9375q0.375 -0.34375 0.953125 -0.34375q0.5625 0 0.90625 0.34375q0.359375 0.328125 0.359375 0.9375l0 13.5q0 0.640625 -0.359375 0.96875q-0.34375 0.3125 -0.90625 0.3125zm0 -19.421875q-0.765625 0 -1.25 -0.4375q-0.484375 -0.453125 -0.484375 -1.1875q0 -0.703125 0.484375 -1.15625q0.484375 -0.453125 1.25 -0.453125q0.765625 0 1.234375 0.453125q0.484375 0.453125 0.484375 1.15625q0 0.734375 -0.484375 1.1875q-0.46875 0.4375 -1.234375 0.4375zm7.424011 19.421875q-0.578125 0 -0.953125 -0.328125q-0.359375 -0.34375 -0.359375 -0.953125l0 -20.3125q0 -0.609375 0.359375 -0.9375q0.375 -0.34375 0.953125 -0.34375q0.53125 0 0.890625 0.34375q0.375 0.328125 0.375 0.9375l0 20.3125q0 0.609375 -0.375 0.953125q-0.359375 0.328125 -0.890625 0.328125zm7.424011 0q-0.578125 0 -0.953125 -0.328125q-0.359375 -0.34375 -0.359375 -0.953125l0 -13.5q0 -0.609375 0.359375 -0.9375q0.375 -0.34375 0.953125 -0.34375q0.5625 0 0.90625 0.34375q0.359375 0.328125 0.359375 0.9375l0 13.5q0 0.640625 -0.359375 0.96875q-0.34375 0.3125 -0.90625 0.3125zm0 -19.421875q-0.765625 0 -1.25 -0.4375q-0.484375 -0.453125 -0.484375 -1.1875q0 -0.703125 0.484375 -1.15625q0.484375 -0.453125 1.25 -0.453125q0.765625 0 1.234375 0.453125q0.484375 0.453125 0.484375 1.15625q0 0.734375 -0.484375 1.1875q-0.46875 0.4375 -1.234375 0.4375zm13.299011 17.375q1.125 0.09375 1.125 1.03125q0 0.546875 -0.40625 0.8125q-0.390625 0.265625 -1.1875 0.203125l-0.875 -0.0625q-2.546875 -0.1875 -3.765625 -1.53125q-1.21875 -1.34375 -1.21875 -4.0625l0 -8.03125l-2.140625 0q-0.546875 0 -0.859375 -0.265625q-0.296875 -0.28125 -0.296875 -0.734375q0 -0.484375 0.296875 -0.765625q0.3125 -0.28125 0.859375 -0.28125l2.140625 0l0 -3.625q0 -0.609375 0.34375 -0.9375q0.359375 -0.34375 0.96875 -0.34375q0.578125 0 0.921875 0.34375q0.359375 0.328125 0.359375 0.9375l0 3.625l3.546875 0q0.515625 0 0.8125 0.28125q0.3125 0.28125 0.3125 0.765625q0 0.453125 -0.3125 0.734375q-0.296875 0.265625 -0.8125 0.265625l-3.546875 0l0 8.15625q0 1.765625 0.71875 2.546875q0.71875 0.78125 2.15625 0.875l0.859375 0.0625zm15.1032715 -13.21875q0.359375 -0.765625 1.125 -0.765625q0.484375 0 0.859375 0.328125q0.390625 0.3125 0.390625 0.796875q0 0.28125 -0.125 0.515625l-9.0 19.390625q-0.15625 0.34375 -0.46875 0.53125q-0.296875 0.203125 -0.609375 0.203125q-0.484375 0 -0.859375 -0.3125q-0.359375 -0.296875 -0.359375 -0.78125q0 -0.25 0.125 -0.515625l2.234375 -4.828125l-6.328125 -13.6875q-0.125 -0.234375 -0.125 -0.484375q0 -0.484375 0.421875 -0.828125q0.4375 -0.359375 0.953125 -0.359375q0.3125 0 0.609375 0.203125q0.3125 0.1875 0.46875 0.53125l5.34375 12.0l5.34375 -11.9375z" fill-rule="nonzero"/><path fill="#000000" fill-opacity="0.0" d="m862.44617 424.96326l0 -69.07086l0.06304932 0l0 -69.07086" fill-rule="evenodd"/><path stroke="#000000" stroke-width="1.0" stroke-linejoin="round" stroke-linecap="butt" d="m862.44617 424.96326l0 -69.07086l0.06304932 0l0 -65.6438" fill-rule="evenodd"/><path fill="#000000" stroke="#000000" stroke-width="1.0" stroke-linecap="butt" d="m862.5092 290.2486l1.1245728 1.1246033l-1.1245728 -3.0897827l-1.1246338 3.0897827z" fill-rule="evenodd"/><path fill="#cfe2f3" d="m821.2806 246.79002l0 0c0 -22.10878 18.444458 -40.031494 41.19684 -40.031494l0 0c10.926086 0 21.404663 4.2175903 29.130615 11.72496c7.725891 7.5073547 12.066284 17.68953 12.066284 28.306534l0 0c0 22.10878 -18.444458 40.03151 -41.1969 40.03151l0 0c-22.75238 0 -41.19684 -17.92273 -41.19684 -40.03151z" fill-rule="evenodd"/></g></svg>