<svg version="1.1" viewBox="0.0 0.0 735.4146981627297 458.43569553805776" fill="none" stroke="none" stroke-linecap="square" stroke-miterlimit="10" xmlns:xlink="http://www.w3.org/1999/xlink" xmlns="http://www.w3.org/2000/svg"><clipPath id="p.0"><path d="m0 0l735.4147 0l0 458.4357l-735.4147 0l0 -458.4357z" clip-rule="nonzero"/></clipPath><g clip-path="url(#p.0)"><path fill="#000000" fill-opacity="0.0" d="m0 0l735.4147 0l0 458.4357l-735.4147 0z" fill-rule="evenodd"/><path fill="#76a5af" d="m1223.6378 147.7769l0 0c0 -18.107986 14.679443 -32.7874 32.787354 -32.7874l0 0c8.695801 0 17.0354 3.4543762 23.184204 9.60321c6.1488037 6.148834 9.6032715 14.488434 9.6032715 23.184189l0 0c0 18.107986 -14.679443 32.7874 -32.787476 32.7874l0 0c-18.10791 0 -32.787354 -14.679413 -32.787354 -32.7874z" fill-rule="evenodd"/><path fill="#f6b26b" d="m1191.9763 85.98688l0 0c0 -18.107986 14.679443 -32.787403 32.787476 -32.787403l0 0c8.695801 0 17.0354 3.4543762 23.184204 9.603207c6.1488037 6.148834 9.603149 14.488434 9.603149 23.184196l0 0c0 18.107979 -14.679443 32.7874 -32.787354 32.7874l0 0c-18.108032 0 -32.787476 -14.67942 -32.787476 -32.7874z" fill-rule="evenodd"/><path fill="#c9daf8" d="m363.06036 328.52493l0 0c0 -68.770325 60.26883 -124.519684 134.61417 -124.519684l0 0c74.34537 0 134.61417 55.74936 134.61417 124.519684l0 0c0 68.770325 -60.2688 124.519684 -134.61417 124.519684l0 0c-74.34534 0 -134.61417 -55.74936 -134.61417 -124.519684z" fill-rule="evenodd"/><path stroke="#6d9eeb" stroke-width="1.0" stroke-linejoin="round" stroke-linecap="butt" d="m363.06036 328.52493l0 0c0 -68.770325 60.26883 -124.519684 134.61417 -124.519684l0 0c74.34537 0 134.61417 55.74936 134.61417 124.519684l0 0c0 68.770325 -60.2688 124.519684 -134.61417 124.519684l0 0c-74.34534 0 -134.61417 -55.74936 -134.61417 -124.519684z" fill-rule="evenodd"/><path fill="#000000" d="m429.5886 340.24493l0 -21.46875l1.953125 0l0 19.640625l15.6875 0l0 1.828125l-17.640625 0zm22.4375 0l0 -21.46875l1.953125 0l0 21.46875l-1.953125 0zm30.46875 -5.921875q0 1.25 -0.328125 2.171875q-0.328125 0.921875 -0.921875 1.59375q-0.578125 0.65625 -1.40625 1.078125q-0.8125 0.40625 -1.796875 0.65625q-0.984375 0.234375 -2.109375 0.328125q-1.125 0.09375 -2.328125 0.09375l-12.390625 0l0 -21.46875l12.109375 0q0.921875 0 1.84375 0.078125q0.921875 0.078125 1.765625 0.296875q0.859375 0.203125 1.578125 0.578125q0.734375 0.375 1.265625 0.984375q0.546875 0.609375 0.84375 1.46875q0.3125 0.859375 0.3125 2.03125q0 1.046875 -0.265625 1.8125q-0.25 0.765625 -0.78125 1.3125q-0.515625 0.546875 -1.328125 0.90625q-0.8125 0.34375 -1.90625 0.546875q1.5625 0.109375 2.671875 0.53125q1.109375 0.421875 1.8125 1.125q0.703125 0.703125 1.03125 1.6875q0.328125 0.96875 0.328125 2.1875zm-3.390625 -10.078125q0 -0.453125 -0.0625 -0.90625q-0.0625 -0.453125 -0.28125 -0.859375q-0.21875 -0.421875 -0.640625 -0.78125q-0.40625 -0.359375 -1.125 -0.609375q-0.71875 -0.265625 -1.78125 -0.40625q-1.046875 -0.15625 -2.53125 -0.15625l-9.515625 0l0 7.5l9.515625 0q2.109375 0 3.375 -0.296875q1.265625 -0.3125 1.9375 -0.828125q0.6875 -0.515625 0.890625 -1.203125q0.21875 -0.6875 0.21875 -1.453125zm1.34375 10.046875q0 -1.21875 -0.421875 -2.078125q-0.421875 -0.859375 -1.296875 -1.40625q-0.875 -0.546875 -2.25 -0.796875q-1.375 -0.265625 -3.265625 -0.265625l-10.046875 0l0 8.734375l10.3125 0q1.953125 0 3.28125 -0.21875q1.34375 -0.234375 2.15625 -0.734375q0.828125 -0.515625 1.171875 -1.3125q0.359375 -0.796875 0.359375 -1.921875zm9.5 -13.6875l0 7.390625l14.28125 0l0 1.8125l-14.28125 0l0 10.4375l-1.953125 0l0 -21.46875l17.0 0l0 1.828125l-15.046875 0zm45.828156 8.921875q0 2.890625 -1.046875 5.0q-1.046875 2.09375 -2.875 3.46875q-1.828125 1.359375 -4.3125 2.015625q-2.484375 0.65625 -5.359375 0.65625q-2.890625 0 -5.390625 -0.65625q-2.5 -0.65625 -4.34375 -2.015625q-1.8437805 -1.375 -2.8906555 -3.46875q-1.046875 -2.109375 -1.046875 -5.0q0 -1.921875 0.484375 -3.484375q0.484375 -1.578125 1.359375 -2.8125q0.875 -1.25 2.1094055 -2.15625q1.25 -0.90625 2.765625 -1.5q1.53125 -0.609375 3.28125 -0.890625q1.75 -0.296875 3.671875 -0.296875q2.875 0 5.359375 0.65625q2.484375 0.65625 4.3125 2.03125q1.828125 1.359375 2.875 3.46875q1.046875 2.09375 1.046875 4.984375zm-2.015625 0q0 -2.28125 -0.75 -4.03125q-0.734375 -1.75 -2.1875 -2.9375q-1.453125 -1.203125 -3.625 -1.8125q-2.15625 -0.625 -5.015625 -0.625q-2.859375 0 -5.046875 0.625q-2.171875 0.625 -3.640625 1.828125q-1.46875 1.1875 -2.2187805 2.953125q-0.75 1.75 -0.75 4.0q0 2.28125 0.75 4.03125q0.7500305 1.75 2.2187805 2.953125q1.46875 1.1875 3.640625 1.8125q2.1875 0.609375 5.046875 0.609375q2.859375 0 5.015625 -0.609375q2.171875 -0.625 3.625 -1.8125q1.453125 -1.203125 2.1875 -2.953125q0.75 -1.75 0.75 -4.03125zm33.5 0q0 2.890625 -1.046875 5.0q-1.046875 2.09375 -2.875 3.46875q-1.828125 1.359375 -4.3125 2.015625q-2.484375 0.65625 -5.359375 0.65625q-2.890625 0 -5.390625 -0.65625q-2.5 -0.65625 -4.34375 -2.015625q-1.84375 -1.375 -2.890625 -3.46875q-1.046875 -2.109375 -1.046875 -5.0q0 -1.921875 0.484375 -3.484375q0.484375 -1.578125 1.359375 -2.8125q0.875 -1.25 2.109375 -2.15625q1.25 -0.90625 2.765625 -1.5q1.53125 -0.609375 3.28125 -0.890625q1.75 -0.296875 3.671875 -0.296875q2.875 0 5.359375 0.65625q2.484375 0.65625 4.3125 2.03125q1.828125 1.359375 2.875 3.46875q1.046875 2.09375 1.046875 4.984375zm-2.015625 0q0 -2.28125 -0.75 -4.03125q-0.734375 -1.75 -2.1875 -2.9375q-1.453125 -1.203125 -3.625 -1.8125q-2.15625 -0.625 -5.015625 -0.625q-2.859375 0 -5.046875 0.625q-2.171875 0.625 -3.640625 1.828125q-1.46875 1.1875 -2.21875 2.953125q-0.75 1.75 -0.75 4.0q0 2.28125 0.75 4.03125q0.75 1.75 2.21875 2.953125q1.46875 1.1875 3.640625 1.8125q2.1875 0.609375 5.046875 0.609375q2.859375 0 5.015625 -0.609375q2.171875 -0.625 3.625 -1.8125q1.453125 -1.203125 2.1875 -2.953125q0.75 -1.75 0.75 -4.03125z" fill-rule="nonzero"/><path fill="#93c47d" d="m226.57742 142.53543l0 0c0 -30.81488 35.79608 -55.795273 79.95276 -55.795273l0 0c44.156677 0 79.95276 24.980392 79.95276 55.795273l0 0c0 30.81488 -35.79608 55.795273 -79.95276 55.795273l0 0c-44.156677 0 -79.95276 -24.980392 -79.95276 -55.795273z" fill-rule="evenodd"/><path stroke="#93c47d" stroke-width="1.0" stroke-linejoin="round" stroke-linecap="butt" d="m226.57742 142.53543l0 0c0 -30.81488 35.79608 -55.795273 79.95276 -55.795273l0 0c44.156677 0 79.95276 24.980392 79.95276 55.795273l0 0c0 30.81488 -35.79608 55.795273 -79.95276 55.795273l0 0c-44.156677 0 -79.95276 -24.980392 -79.95276 -55.795273z" fill-rule="evenodd"/><path fill="#000000" d="m268.453 149.45543l0 -12.515625l1.140625 0l0 11.453125l9.140625 0l0 1.0625l-10.28125 0zm13.081238 0l0 -12.515625l1.140625 0l0 12.515625l-1.140625 0zm17.762634 -3.453125q0 0.734375 -0.203125 1.265625q-0.1875 0.53125 -0.53125 0.921875q-0.328125 0.390625 -0.8125 0.640625q-0.484375 0.234375 -1.0625 0.375q-0.5625 0.140625 -1.21875 0.203125q-0.65625 0.046875 -1.359375 0.046875l-7.21875 0l0 -12.515625l7.0625 0q0.53125 0 1.0625 0.046875q0.546875 0.046875 1.03125 0.171875q0.5 0.125 0.921875 0.34375q0.421875 0.21875 0.734375 0.578125q0.328125 0.34375 0.5 0.84375q0.171875 0.5 0.171875 1.1875q0 0.609375 -0.15625 1.0625q-0.140625 0.4375 -0.453125 0.765625q-0.296875 0.3125 -0.78125 0.515625q-0.46875 0.203125 -1.09375 0.328125q0.90625 0.0625 1.546875 0.3125q0.65625 0.234375 1.0625 0.65625q0.40625 0.40625 0.59375 0.984375q0.203125 0.5625 0.203125 1.265625zm-1.984375 -5.875q0 -0.265625 -0.03125 -0.53125q-0.03125 -0.265625 -0.171875 -0.5q-0.125 -0.25 -0.375 -0.453125q-0.234375 -0.203125 -0.65625 -0.359375q-0.40625 -0.15625 -1.03125 -0.234375q-0.609375 -0.09375 -1.46875 -0.09375l-5.546875 0l0 4.375l5.546875 0q1.21875 0 1.953125 -0.171875q0.75 -0.1875 1.140625 -0.484375q0.390625 -0.296875 0.515625 -0.6875q0.125 -0.40625 0.125 -0.859375zm0.78125 5.859375q0 -0.71875 -0.25 -1.21875q-0.234375 -0.5 -0.75 -0.8125q-0.5 -0.328125 -1.3125 -0.46875q-0.796875 -0.15625 -1.90625 -0.15625l-5.84375 0l0 5.09375l6.0 0q1.140625 0 1.921875 -0.125q0.78125 -0.140625 1.25 -0.4375q0.484375 -0.296875 0.6875 -0.75q0.203125 -0.46875 0.203125 -1.125zm16.816803 0.015625q0 0.734375 -0.203125 1.265625q-0.1875 0.53125 -0.53125 0.921875q-0.328125 0.390625 -0.8125 0.640625q-0.484375 0.234375 -1.0625 0.375q-0.5625 0.140625 -1.21875 0.203125q-0.65625 0.046875 -1.359375 0.046875l-7.21875 0l0 -12.515625l7.0625 0q0.53125 0 1.0625 0.046875q0.546875 0.046875 1.03125 0.171875q0.5 0.125 0.921875 0.34375q0.421875 0.21875 0.734375 0.578125q0.328125 0.34375 0.5 0.84375q0.171875 0.5 0.171875 1.1875q0 0.609375 -0.15625 1.0625q-0.140625 0.4375 -0.453125 0.765625q-0.296875 0.3125 -0.78125 0.515625q-0.46875 0.203125 -1.09375 0.328125q0.90625 0.0625 1.546875 0.3125q0.65625 0.234375 1.0625 0.65625q0.40625 0.40625 0.59375 0.984375q0.203125 0.5625 0.203125 1.265625zm-1.984375 -5.875q0 -0.265625 -0.03125 -0.53125q-0.03125 -0.265625 -0.171875 -0.5q-0.125 -0.25 -0.375 -0.453125q-0.234375 -0.203125 -0.65625 -0.359375q-0.40625 -0.15625 -1.03125 -0.234375q-0.609375 -0.09375 -1.46875 -0.09375l-5.546875 0l0 4.375l5.546875 0q1.21875 0 1.953125 -0.171875q0.75 -0.1875 1.140625 -0.484375q0.390625 -0.296875 0.515625 -0.6875q0.125 -0.40625 0.125 -0.859375zm0.78125 5.859375q0 -0.71875 -0.25 -1.21875q-0.234375 -0.5 -0.75 -0.8125q-0.5 -0.328125 -1.3125 -0.46875q-0.796875 -0.15625 -1.90625 -0.15625l-5.84375 0l0 5.09375l6.0 0q1.140625 0 1.921875 -0.125q0.78125 -0.140625 1.25 -0.4375q0.484375 -0.296875 0.6875 -0.75q0.203125 -0.46875 0.203125 -1.125zm15.863678 3.46875l-1.71875 -3.296875l-8.5 0l-1.71875 3.296875l-1.25 0l6.546875 -12.515625l1.34375 0l6.546875 12.515625l-1.25 0zm-5.96875 -11.421875l-3.6875 7.078125l7.375 0l-3.6875 -7.078125zm10.823578 6.0625l0 5.359375l-1.140625 0l0 -12.515625l6.21875 0q1.4375 0 2.453125 0.234375q1.03125 0.21875 1.671875 0.671875q0.65625 0.4375 0.953125 1.125q0.296875 0.671875 0.296875 1.5625q0 1.40625 -0.734375 2.25q-0.734375 0.84375 -2.375 1.15625l4.265625 5.515625l-1.421875 0l-4.03125 -5.390625q-0.265625 0.015625 -0.53125 0.03125q-0.25 0 -0.546875 0l-5.078125 0zm9.28125 -3.5625q0 -0.796875 -0.28125 -1.296875q-0.28125 -0.5 -0.921875 -0.765625q-0.640625 -0.28125 -1.671875 -0.375q-1.03125 -0.09375 -2.53125 -0.09375l-3.875 0l0 5.03125l3.84375 0q1.5 0 2.53125 -0.078125q1.046875 -0.09375 1.6875 -0.359375q0.640625 -0.265625 0.921875 -0.75q0.296875 -0.5 0.296875 -1.3125z" fill-rule="nonzero"/><path fill="#000000" fill-opacity="0.0" d="m549.2152 71.7979l0 0c0 -30.814877 35.79608 -55.795273 79.95276 -55.795273l0 0c44.156677 0 79.95276 24.980396 79.95276 55.795273l0 0c0 30.81488 -35.79608 55.79528 -79.95276 55.79528l0 0c-44.156677 0 -79.95276 -24.9804 -79.95276 -55.79528z" fill-rule="evenodd"/><path stroke="#674ea7" stroke-width="1.0" stroke-linejoin="round" stroke-linecap="butt" d="m549.2152 71.7979l0 0c0 -30.814877 35.79608 -55.795273 79.95276 -55.795273l0 0c44.156677 0 79.95276 24.980396 79.95276 55.795273l0 0c0 30.81488 -35.79608 55.79528 -79.95276 55.79528l0 0c-44.156677 0 -79.95276 -24.9804 -79.95276 -55.79528z" fill-rule="evenodd"/><path fill="#000000" d="m610.60547 79.05665q-0.84375 0.359375 -1.671875 0.65625q-0.828125 0.28125 -1.71875 0.5q-0.890625 0.203125 -1.875 0.3125q-0.984375 0.125 -2.140625 0.125q-1.421875 0 -2.75 -0.234375q-1.3125 -0.234375 -2.453125 -0.703125q-1.140625 -0.46875 -2.0625 -1.15625q-0.921875 -0.703125 -1.59375 -1.625q-0.65625 -0.9375 -1.015625 -2.09375q-0.359375 -1.15625 -0.359375 -2.546875q0 -1.375 0.359375 -2.53125q0.359375 -1.171875 1.015625 -2.09375q0.671875 -0.921875 1.59375 -1.609375q0.921875 -0.703125 2.0625 -1.171875q1.140625 -0.46875 2.453125 -0.703125q1.3125 -0.234375 2.75 -0.234375q1.15625 0 2.140625 0.125q0.984375 0.109375 1.875 0.328125q0.890625 0.203125 1.71875 0.484375q0.828125 0.28125 1.671875 0.640625l0 1.75q-0.671875 -0.421875 -1.4375 -0.796875q-0.75 -0.375 -1.640625 -0.65625q-0.875 -0.28125 -1.890625 -0.4375q-1.0 -0.171875 -2.15625 -0.171875q-2.3125 0 -4.015625 0.515625q-1.703125 0.5 -2.8125 1.421875q-1.109375 0.921875 -1.640625 2.234375q-0.53125 1.296875 -0.53125 2.90625q0 1.625 0.53125 2.921875q0.53125 1.296875 1.640625 2.21875q1.109375 0.921875 2.8125 1.421875q1.703125 0.5 4.015625 0.5q1.15625 0 2.171875 -0.15625q1.03125 -0.171875 1.921875 -0.453125q0.90625 -0.28125 1.65625 -0.640625q0.75 -0.375 1.375 -0.796875l0 1.75l0 0zm9.90625 -6.109375l0 5.015625l-1.28125 0l0 -5.015625l-4.96875 0l0 -1.265625l4.96875 0l0 -5.015625l1.28125 0l0 5.015625l4.953125 0l0 1.265625l-4.953125 0zm15.234375 0l0 5.015625l-1.28125 0l0 -5.015625l-4.96875 0l0 -1.265625l4.96875 0l0 -5.015625l1.28125 0l0 5.015625l4.953125 0l0 1.265625l-4.953125 0zm10.8125 7.390625l0 -14.8125l-3.84375 1.203125l0 -1.296875l3.84375 -1.203125l1.4375 0l0 16.109375l-1.4375 0zm10.015625 0l-1.71875 0l9.359375 -14.765625l-13.34375 0l0 -1.34375l15.359375 0l0 0.8125l-9.65625 15.296875z" fill-rule="nonzero"/><path fill="#93c47d" d="m95.2021 284.70865l0 0c0 -37.60753 40.844315 -68.09448 91.22835 -68.09448l0 0c50.384018 0 91.22833 30.486954 91.22833 68.09448l0 0c0 37.607574 -40.844315 68.09451 -91.22833 68.09451l0 0c-50.384033 0 -91.22835 -30.486938 -91.22835 -68.09451z" fill-rule="evenodd"/><path stroke="#93c47d" stroke-width="1.0" stroke-linejoin="round" stroke-linecap="butt" d="m95.2021 284.70865l0 0c0 -37.60753 40.844315 -68.09448 91.22835 -68.09448l0 0c50.384018 0 91.22833 30.486954 91.22833 68.09448l0 0c0 37.607574 -40.844315 68.09451 -91.22833 68.09451l0 0c-50.384033 0 -91.22835 -30.486938 -91.22835 -68.09451z" fill-rule="evenodd"/><path fill="#000000" d="m134.94217 290.56866l0 -10.734375l0.96875 0l0 9.8125l7.84375 0l0 0.921875l-8.8125 0zm11.21875 0l0 -10.734375l0.96875 0l0 10.734375l-0.96875 0zm15.234375 -2.96875q0 0.625 -0.171875 1.09375q-0.15625 0.453125 -0.453125 0.796875q-0.296875 0.328125 -0.703125 0.53125q-0.40625 0.203125 -0.90625 0.328125q-0.484375 0.125 -1.046875 0.171875q-0.5625 0.046875 -1.171875 0.046875l-6.1875 0l0 -10.734375l6.046875 0q0.46875 0 0.921875 0.046875q0.46875 0.03125 0.890625 0.140625q0.421875 0.09375 0.78125 0.28125q0.375 0.1875 0.640625 0.5q0.265625 0.296875 0.421875 0.734375q0.15625 0.421875 0.15625 1.015625q0 0.515625 -0.140625 0.90625q-0.125 0.375 -0.390625 0.65625q-0.25 0.265625 -0.65625 0.453125q-0.40625 0.171875 -0.953125 0.265625q0.78125 0.0625 1.328125 0.28125q0.5625 0.203125 0.90625 0.5625q0.359375 0.34375 0.515625 0.828125q0.171875 0.484375 0.171875 1.09375zm-1.703125 -5.03125q0 -0.234375 -0.03125 -0.453125q-0.03125 -0.234375 -0.140625 -0.4375q-0.109375 -0.203125 -0.3125 -0.375q-0.203125 -0.1875 -0.5625 -0.3125q-0.359375 -0.140625 -0.890625 -0.203125q-0.53125 -0.078125 -1.265625 -0.078125l-4.765625 0l0 3.75l4.765625 0q1.046875 0 1.671875 -0.15625q0.640625 -0.15625 0.984375 -0.40625q0.34375 -0.265625 0.4375 -0.609375q0.109375 -0.34375 0.109375 -0.71875zm0.671875 5.015625q0 -0.609375 -0.21875 -1.03125q-0.203125 -0.4375 -0.640625 -0.703125q-0.4375 -0.28125 -1.125 -0.40625q-0.6875 -0.125 -1.625 -0.125l-5.03125 0l0 4.359375l5.15625 0q0.984375 0 1.640625 -0.109375q0.671875 -0.109375 1.078125 -0.359375q0.421875 -0.265625 0.59375 -0.65625q0.171875 -0.40625 0.171875 -0.96875zm12.75 -7.75l3.828125 9.953125l3.96875 -9.953125l1.09375 0l-4.328125 10.734375l-1.453125 0l-3.765625 -9.703125l-3.75 9.703125l-1.453125 0l-4.328125 -10.734375l1.09375 0l3.96875 9.953125l3.8125 -9.953125l1.3125 0zm11.2890625 10.734375l0 -10.734375l0.96875 0l0 10.734375l-0.96875 0zm16.312485 -5.375q0 1.03125 -0.21875 1.828125q-0.21875 0.796875 -0.609375 1.390625q-0.390625 0.59375 -0.953125 1.015625q-0.546875 0.40625 -1.234375 0.65625q-0.6875 0.25 -1.484375 0.375q-0.796875 0.109375 -1.6875 0.109375l-5.53125 0l0 -10.734375l5.515625 0q1.328125 0 2.453125 0.265625q1.140625 0.25 1.96875 0.875q0.828125 0.609375 1.296875 1.640625q0.484375 1.03125 0.484375 2.578125zm-1.015625 0q0 -0.875 -0.171875 -1.546875q-0.171875 -0.671875 -0.5 -1.171875q-0.3125 -0.5 -0.78125 -0.828125q-0.453125 -0.34375 -1.03125 -0.546875q-0.578125 -0.203125 -1.265625 -0.28125q-0.671875 -0.09375 -1.4375 -0.09375l-4.546875 0l0 8.9375l4.546875 0q1.15625 0 2.109375 -0.203125q0.953125 -0.203125 1.625 -0.71875q0.6875 -0.515625 1.0625 -1.375q0.390625 -0.859375 0.390625 -2.171875zm10.171875 -5.5625q0.75 0 1.390625 0.078125q0.640625 0.078125 1.21875 0.21875q0.59375 0.125 1.140625 0.328125q0.5625 0.1875 1.125 0.421875l0 1.1875q-0.453125 -0.28125 -0.953125 -0.53125q-0.5 -0.25 -1.09375 -0.4375q-0.578125 -0.1875 -1.25 -0.296875q-0.65625 -0.109375 -1.421875 -0.109375q-1.5625 0 -2.734375 0.328125q-1.15625 0.328125 -1.9375 0.9375q-0.765625 0.609375 -1.15625 1.484375q-0.390625 0.875 -0.390625 1.96875q0 1.015625 0.375 1.890625q0.390625 0.859375 1.15625 1.484375q0.765625 0.625 1.921875 0.984375q1.15625 0.34375 2.71875 0.34375q0.609375 0 1.203125 -0.046875q0.59375 -0.046875 1.125 -0.125q0.53125 -0.078125 0.96875 -0.15625q0.4375 -0.09375 0.75 -0.1875l0 -3.265625l-4.375 0l0 -0.90625l5.34375 0l0 4.71875q-0.578125 0.203125 -1.171875 0.359375q-0.578125 0.15625 -1.21875 0.265625q-0.625 0.109375 -1.296875 0.15625q-0.671875 0.0625 -1.421875 0.0625q-1.515625 0 -2.8125 -0.34375q-1.296875 -0.34375 -2.25 -1.03125q-0.9375 -0.703125 -1.484375 -1.75q-0.53125 -1.046875 -0.53125 -2.453125q0 -0.953125 0.25 -1.71875q0.25 -0.78125 0.703125 -1.40625q0.453125 -0.625 1.09375 -1.078125q0.65625 -0.46875 1.4375 -0.765625q0.78125 -0.296875 1.6875 -0.453125q0.90625 -0.15625 1.890625 -0.15625zm8.25 10.9375l0 -10.734375l8.9375 0l0 0.90625l-7.875 0l0 3.703125l7.484375 0l0 0.90625l-7.484375 0l0 4.296875l8.0 0l0 0.921875l-9.0625 0zm16.421875 -9.84375l0 9.84375l-0.96875 0l0 -9.84375l-4.875 0l0 -0.890625l10.734375 0l0 0.890625l-4.890625 0z" fill-rule="nonzero"/><path fill="#000000" fill-opacity="0.0" d="m497.67453 204.00525l-111.18109 -61.480316" fill-rule="evenodd"/><path stroke="#000000" stroke-width="4.0" stroke-linejoin="round" stroke-linecap="butt" d="m497.67453 204.00525l-90.178345 -49.866333" fill-rule="evenodd"/><path fill="#000000" stroke="#000000" stroke-width="4.0" stroke-linecap="butt" d="m410.6934 148.3571l-19.082611 -3.002411l12.688202 14.56604z" fill-rule="evenodd"/><path fill="#000000" fill-opacity="0.0" d="m249.99504 181.98865l-63.55905 34.61418" fill-rule="evenodd"/><path stroke="#000000" stroke-width="4.0" stroke-linejoin="round" stroke-linecap="butt" d="m249.99504 181.98866l-42.48198 23.13562" fill-rule="evenodd"/><path fill="#000000" stroke="#000000" stroke-width="4.0" stroke-linecap="butt" d="m204.35313 199.322l-12.781708 14.48407l19.101547 -2.8795013z" fill-rule="evenodd"/><path fill="#000000" fill-opacity="0.0" d="m363.06036 328.52493l-85.38583 -43.811035" fill-rule="evenodd"/><path stroke="#000000" stroke-width="8.0" stroke-linejoin="round" stroke-linecap="butt" d="m363.06036 328.52493l-42.67932 -21.89856" fill-rule="evenodd"/><path fill="#000000" stroke="#000000" stroke-width="8.0" stroke-linecap="butt" d="m326.41327 294.86978l-38.333282 -4.8168945l26.268768 28.330109z" fill-rule="evenodd"/><path fill="#000000" fill-opacity="0.0" d="m592.86115 240.47623l39.433044 -112.8819" fill-rule="evenodd"/><path stroke="#000000" stroke-width="4.0" stroke-linejoin="round" stroke-linecap="butt" d="m592.86115 240.47621l31.518188 -90.22455" fill-rule="evenodd"/><path fill="#000000" stroke="#000000" stroke-width="4.0" stroke-linecap="butt" d="m630.61664 152.43054l-0.25091553 -19.315735l-12.223694 14.957977z" fill-rule="evenodd"/><path fill="#000000" fill-opacity="0.0" d="m26.530184 66.3727l0 0c0 -30.81488 35.796066 -55.795277 79.95276 -55.795277l0 0c44.156693 0 79.95276 24.980396 79.95276 55.795277l0 0c0 30.81488 -35.796066 55.795273 -79.95276 55.795273l0 0c-44.15669 0 -79.95276 -24.980392 -79.95276 -55.795273z" fill-rule="evenodd"/><path stroke="#674ea7" stroke-width="1.0" stroke-linejoin="round" stroke-linecap="butt" d="m26.530184 66.3727l0 0c0 -30.81488 35.796066 -55.795277 79.95276 -55.795277l0 0c44.156693 0 79.95276 24.980396 79.95276 55.795277l0 0c0 30.81488 -35.796066 55.795273 -79.95276 55.795273l0 0c-44.15669 0 -79.95276 -24.980392 -79.95276 -55.795273z" fill-rule="evenodd"/><path fill="#000000" d="m91.88138 73.631454q-0.84375 0.359375 -1.671875 0.65625q-0.828125 0.28125 -1.71875 0.5q-0.890625 0.203125 -1.875 0.3125q-0.984375 0.125 -2.140625 0.125q-1.421875 0 -2.75 -0.234375q-1.3125 -0.234375 -2.453125 -0.703125q-1.140625 -0.46875 -2.0625 -1.15625q-0.921875 -0.703125 -1.59375 -1.625q-0.65625 -0.9375 -1.015625 -2.09375q-0.359375 -1.15625 -0.359375 -2.546875q0 -1.375 0.359375 -2.53125q0.359375 -1.171875 1.015625 -2.09375q0.671875 -0.921875 1.59375 -1.609375q0.921875 -0.703125 2.0625 -1.171875q1.140625 -0.46875 2.453125 -0.703125q1.3125 -0.234375 2.75 -0.234375q1.15625 0 2.140625 0.125q0.984375 0.109375 1.875 0.328125q0.890625 0.203125 1.71875 0.484375q0.828125 0.28125 1.671875 0.640625l0 1.75q-0.671875 -0.421875 -1.4375 -0.796875q-0.75 -0.375 -1.640625 -0.65625q-0.875 -0.28125 -1.890625 -0.4375q-1.0 -0.171875 -2.15625 -0.171875q-2.3125 0 -4.015625 0.515625q-1.703125 0.5 -2.8125 1.421875q-1.109375 0.921875 -1.640625 2.234375q-0.53125 1.296875 -0.53125 2.90625q0 1.625 0.53125 2.921875q0.53125 1.296875 1.640625 2.21875q1.109375 0.921875 2.8125 1.421875q1.703125 0.5 4.015625 0.5q1.15625 0 2.171875 -0.15625q1.03125 -0.171875 1.921875 -0.453125q0.90625 -0.28125 1.65625 -0.640625q0.75 -0.375 1.375 -0.796875l0 1.75l0 0zm9.90625 -6.109375l0 5.015625l-1.28125 0l0 -5.015625l-4.96875 0l0 -1.265625l4.96875 0l0 -5.015625l1.28125 0l0 5.015625l4.953125 0l0 1.265625l-4.953125 0zm15.234383 0l0 5.015625l-1.28125 0l0 -5.015625l-4.9687576 0l0 -1.265625l4.9687576 0l0 -5.015625l1.28125 0l0 5.015625l4.953125 0l0 1.265625l-4.953125 0zm10.8125 7.390625l0 -14.8125l-3.84375 1.203125l0 -1.296875l3.84375 -1.203125l1.4374924 0l0 16.109375l-1.4374924 0zm8.156242 0l0 -14.8125l-3.84375 1.203125l0 -1.296875l3.84375 -1.203125l1.4375 0l0 16.109375l-1.4375 0z" fill-rule="nonzero"/><path fill="#000000" fill-opacity="0.0" d="m121.922264 236.5586l-15.433075 -114.39371" fill-rule="evenodd"/><path stroke="#000000" stroke-width="4.0" stroke-linejoin="round" stroke-linecap="butt" d="m121.922264 236.55858l-12.224258 -90.60918" fill-rule="evenodd"/><path fill="#000000" stroke="#000000" stroke-width="4.0" stroke-linecap="butt" d="m116.24562 145.06606l-8.974602 -17.106064l-4.1206207 18.872757z" fill-rule="evenodd"/></g></svg>